<svg width="24" height="24" viewBox="0 0 24 24" fill="none" xmlns="http://www.w3.org/2000/svg">
<rect width="24" height="24" fill="black"/>
<path d="M-196 -648C-196 -649.104 -195.105 -650 -194 -650H9660C9661.1 -650 9662 -649.105 9662 -648V5604C9662 5605.1 9661.1 5606 9660 5606H-194C-195.104 5606 -196 5605.1 -196 5604V-648Z" fill="#FFC4C4"/>
<path d="M-194 -649H9660V-651H-194V-649ZM9661 -648V5604H9663V-648H9661ZM9660 5605H-194V5607H9660V5605ZM-195 5604V-648H-197V5604H-195ZM-194 5605C-194.552 5605 -195 5604.55 -195 5604H-197C-197 5605.66 -195.657 5607 -194 5607V5605ZM9661 5604C9661 5604.55 9660.55 5605 9660 5605V5607C9661.66 5607 9663 5605.66 9663 5604H9661ZM9660 -649C9660.55 -649 9661 -648.552 9661 -648H9663C9663 -649.657 9661.66 -651 9660 -651V-649ZM-194 -651C-195.657 -651 -197 -649.657 -197 -648H-195C-195 -648.552 -194.552 -649 -194 -649V-651Z" fill="white" fill-opacity="0.1"/>
<rect width="375" height="1251" transform="translate(-16 -58)" fill="#111111"/>
<g opacity="0.9">
<g clip-path="url(#clip0_369_8859)">
<path fill-rule="evenodd" clip-rule="evenodd" d="M15.4142 4.41421L14 3L6.22183 10.7782L4.80761 12.1924L6.22183 13.6066L14 21.3848L15.4142 19.9706L7.63604 12.1924L15.4142 4.41421Z" fill="white"/>
</g>
</g>
<defs>
<clipPath id="clip0_369_8859">
<rect width="24" height="24" fill="white"/>
</clipPath>
</defs>
</svg>
