<svg width="48" height="48" viewBox="0 0 48 48" fill="none" xmlns="http://www.w3.org/2000/svg">
<g clip-path="url(#clip0_969_26839)">
<path d="M36.0044 31.0281H35.968L35.9103 30.9461H35.8799L35.7341 30.776L35.643 30.6849V30.6606L35.5823 30.6059V30.5755H35.564L35.5337 30.53H35.5003L35.4851 30.4996L35.4061 30.4723V30.4571L35.3454 30.4328V30.4176L35.2816 30.3902L35.2664 30.3599L35.1753 30.3113L35.1237 30.2931L35.1085 30.2566L35.0508 30.2323L35.0295 30.2019H35.0022L34.984 30.1716L34.9384 30.1473L34.908 30.1017H34.8716V30.0713H34.8321L34.7713 29.9863H34.744L34.6164 29.8314H34.5891V29.8162L34.5405 29.7798V29.6735L34.416 29.5459V29.5186L34.3856 29.4973L34.334 29.4275V29.4001L34.416 29.312H34.4464L34.4798 29.2726H34.5101L34.5284 29.2452H34.5739V29.227H34.6043L34.6225 29.1997H34.6468L34.6681 29.1754H34.6954L34.7106 29.148H34.7622L34.8047 29.0994H34.8382L34.8533 29.0721H34.8868L34.9779 28.9871H35.0295V28.9597L35.1267 28.8899L35.1874 28.8565L35.2057 28.817L35.2512 28.7988V28.7653L35.2998 28.7471V28.7623H35.3302V28.735H35.3606V28.7076H35.3909L35.4092 28.6682L35.4274 28.6135H35.4547L35.476 28.5558H35.5215L35.564 28.5041H35.5975L35.6278 28.4647H35.6582L35.6764 28.4373H35.7038L35.7675 28.3766H35.804L35.9103 28.2824H35.9407L35.9559 28.2581L36.0044 28.2369V28.2095L36.0682 28.1488H36.0986V28.1184L36.132 28.0789L36.1897 28.0486V28.0182L36.2383 27.9939V27.9696L36.2869 27.9514V27.918H36.3203V27.8511H36.3537V27.8056L36.4934 27.7145V27.6871L36.618 27.6507V27.6234L36.7152 27.596V27.5656L36.8549 27.5049V27.4776H36.8852L37.0007 27.3409H37.028V27.3105H37.0614V27.2832H37.0978L37.1586 27.2073V27.1647L37.2072 27.1435L37.2345 27.0615H37.271L37.2983 26.9643H37.3287V26.9096H37.359V26.8519H37.3925L37.4076 26.7821L37.4259 26.6818H37.4411V26.6545H37.4562V26.5968H37.4714V26.6363H37.4866V26.5634H37.517V26.4571H37.5473V26.3265H37.5777V26.0744H37.5959V26.0136H37.6111L37.5747 25.8162V25.5641H37.5443V25.4214L37.5109 25.4001V25.2969L37.4805 25.2756V25.2027H37.4653V25.1754H37.4471V25.1177H37.4319V25.0721H37.4107V25.0478V24.9871H37.3894V24.9111H37.359H37.3864L37.4076 24.9415H37.4319L37.4684 24.9931H37.5018V25.0265H37.5231L37.5838 25.1116H37.6172L37.7448 25.2665L37.842 25.3363L37.8875 25.4183H37.9179L37.9331 25.4639L38.012 25.5368V25.5672L38.091 25.637V25.6644L38.1244 25.6856V25.716L38.17 25.7494V25.7798L38.2004 25.798V25.8284L38.2277 25.8466L38.2429 25.8921H38.2581L39.2208 26.9612L39.2512 26.9764V27.0068L39.2846 27.0281L39.2998 27.0706H39.315L39.5337 27.3257H39.5671L39.5975 27.3682H39.6278L39.6795 27.432H39.7068L39.7584 27.4988H39.7827L39.883 27.6173L40.0834 27.8269L40.1472 27.9119L40.4175 28.1883L40.4357 28.2186L40.4965 28.246L40.5117 28.2764L40.5724 28.3037L40.5906 28.3341L41.1981 28.9415H41.2284L41.274 29.0235H41.2892V29.0508L41.3226 29.0721L41.353 29.0934V29.1207L41.3833 29.145V29.1723L41.4289 29.2088L41.681 29.473H41.7083L41.7265 29.5034H41.7569L41.7873 29.5489H41.8177L41.848 29.5945H41.8814L41.93 29.6583H41.9604L42.0849 29.8132H42.1183L42.1639 29.8527V29.9772L42.3067 30.1199L42.5162 30.3143V30.3295H42.5436V30.3477L42.5709 30.3629L42.6347 30.3933L42.7167 30.448V30.4814L42.7653 30.5209H42.7956L42.8442 30.5543V30.5877L42.8898 30.6211H42.9232L42.9536 30.6575L42.9718 30.6909L43.2209 30.9339L43.5853 31.3014L43.6187 31.3379H43.643L43.6643 31.3682L44.5086 32.1336L44.5572 32.17L45.031 32.6864H45.0614L45.1252 32.7714H45.1556L45.1707 32.8048L45.2649 32.8929L45.3287 32.9658L45.4076 33.063L45.4714 33.148L45.517 33.2148L45.5474 33.2604L45.599 33.3546L45.6567 33.4366L45.6901 33.5034L45.7083 33.5338L45.7569 33.631V33.6735H45.7721V33.7312H45.7873V33.7737H45.8025V33.8041H45.8177V33.8496H45.8359V33.8952V33.9407L45.9391 34.372V34.5451H45.9543V34.9157V35.0129H45.9391V35.0827V35.1526H45.9209V35.2073H45.9057V35.265H45.8875V35.3105H45.8723V35.4108H45.8571V35.4381H45.8389V35.4806H45.8207V35.508V35.5505H45.8055L45.7751 35.6325H45.7569V35.6598H45.7417V35.6932V35.7266H45.7235L45.6992 35.8056H45.681V35.8451H45.6476V35.9028H45.6142V35.9301L45.5686 35.9514V35.9818L45.5231 36V36.0516H45.4198V36.085L45.2801 36.167L45.1556 36.2794H45.1282L45.0796 36.325H45.0462L45.0189 36.3644H44.9824L44.9551 36.3979H44.9247L44.9095 36.4221H44.864H44.8002L44.785 36.4464H44.6909L44.6757 36.4707L44.539 36.489V36.5041H44.4752H44.4266H44.3993H44.3477H44.3021H44.2565H44.211H44.1472H44.0834H44.0105C44.0105 36.5041 43.5428 36.4434 43.3575 36.3979C43.1723 36.3523 42.6954 36.1731 42.6954 36.1731L42.6286 36.1518H42.6073V36.1367L42.5253 36.1093V36.0941L42.4676 36.0729V36.0546H42.416L42.3522 36.0303V36.0121L42.2915 35.9848L42.2763 35.9544L42.1791 35.9089L41.7296 35.6234H41.6658V35.6051H41.6202V35.5899H41.5716L41.5231 35.5687L40.8063 35.0736H40.7729L40.7091 34.9855H40.6757L40.2383 34.6515V34.6332L40.1806 34.6059H40.129V34.5877L40.0379 34.5391H40.0045V34.5239L39.9407 34.4966L39.9224 34.4632L39.8313 34.4176L39.8131 34.3872H39.7858V34.369L39.7402 34.3508L39.722 34.3143H39.6916L39.6552 34.2657H39.6309L39.6127 34.2354H39.5823L39.5155 34.1503H39.4851L38.9688 33.7251V33.7099L38.8746 33.6613H38.8442V33.6461H38.8108L38.7197 33.6036L38.7045 33.5672L38.6407 33.5459L38.6225 33.5095L38.5618 33.4852L38.5314 33.4335H38.498L38.4828 33.4032H38.4494L38.416 33.3546C38.416 33.3546 37.8875 32.9324 37.681 32.7471C37.4745 32.5619 36.8427 31.9848 36.7698 31.9058L36.7152 31.8511V31.8208L36.6332 31.7479V31.7054L36.6028 31.6568L36.0044 31.0281Z" fill="#A3CF62"/>
<path d="M24.7187 27.6294V27.6568L24.8432 27.7418V27.7692L24.9738 27.8481V27.8785L25.0193 27.8906V27.9028L25.0345 27.9362L25.0831 27.9848L25.1135 27.9939V28.0364L25.1499 28.0425L25.1834 28.1215L25.1985 28.1245V28.1518L25.2289 28.1761V28.2156L25.2593 28.2247V28.2521L25.2897 28.2581L25.3261 28.3371L25.3565 28.3432V28.3705L25.3899 28.3796L25.4658 28.5102L25.4992 28.5133V28.5436L25.6268 28.6378L25.6298 28.6682L25.6602 28.6773V28.7046L25.7422 28.7471V28.7775L25.7726 28.7836V28.814L25.8819 28.8777L25.9001 28.9081L25.9457 28.9203L25.9639 28.9506L25.9943 28.9567V28.9689L26.0459 28.9962V29.0235L26.1036 29.0357V29.066L26.1856 29.1086L26.4104 29.3819V29.4123L26.4438 29.4184L26.6139 29.6097V29.637L26.6503 29.6431V29.6735L26.6989 29.6796V29.713L26.7263 29.719V29.7464L26.9358 29.8891L26.9996 29.9438V29.9559L27.033 29.962V29.9742L27.0664 29.9833L27.0786 30.0106L27.1302 30.0228L27.1423 30.0562L27.1909 30.0622V30.0805L27.2517 30.1048V30.1321L27.3337 30.1807V30.208L27.3671 30.2141V30.2414L27.3944 30.2475L27.4491 30.3022V30.3295L27.4764 30.3356V30.366L27.5099 30.369L27.5919 30.4571V30.4875L27.6222 30.4905L27.8743 30.7152V30.7426L27.9259 30.7517V30.7821L28.0019 30.8246V30.8367L28.0505 30.8519V30.8641L28.1143 30.8884V30.9187L28.1811 30.9309V30.9613L28.2904 30.9947L28.3056 31.025L28.3694 31.0402V31.0645L28.4483 31.0827L28.4635 31.1162L28.5486 31.1283V31.1435L28.5941 31.1526V31.1678L28.6549 31.1799V31.1921L28.7673 31.2164L28.7824 31.2468L28.9586 31.2802L28.9738 31.3136L29.1287 31.3379V31.3531L29.1773 31.3591V31.3774L29.2562 31.3895V31.4077L29.2927 31.4138L29.3079 31.4472L29.4354 31.4806V31.511L30.0034 31.678L30.2069 31.7114V31.6993L30.2373 31.7054V31.6902L30.541 31.7145V31.6872L30.8234 31.6689V31.6386L30.866 31.6416L30.8538 31.6477V31.678L30.7748 31.7236L30.6868 31.7904V31.8147L30.6382 31.8238L30.5349 31.921L30.5015 31.9149L30.4529 31.9605L30.4225 31.9544L30.3739 32.003L30.3436 31.9969L30.3132 32.0334L30.2798 32.0304L30.2646 32.0547L30.2221 32.0607V32.0759L30.1887 32.0698L30.1765 32.0941L30.1279 32.1032V32.1154L30.0368 32.1245L30.0186 32.1518H29.9548V32.167L29.9275 32.161V32.1792L29.8971 32.1701V32.1883L29.8029 32.2004V32.2126L29.7604 32.2035V32.2156L29.7513 32.2551L29.7209 32.249L29.645 32.3219L29.5721 32.3128V32.3402L29.481 32.3948L29.3443 32.5133L29.3079 32.5102L29.1834 32.5862L29.0011 32.6712L28.9556 32.6773V32.6925L28.9222 32.6834L28.907 32.7137H28.8432L28.8341 32.738H28.7976L28.7673 32.7593L28.7369 32.7502V32.7654L28.7065 32.7593V32.7745L28.6761 32.7684V32.7836L28.6458 32.7775V32.7927L28.6124 32.7866V32.7988L28.582 32.7957V32.8079L28.4878 32.82V32.8352L28.4392 32.8261V32.8383L28.4119 32.8352V32.8504L28.3663 32.8383V32.8504L28.3208 32.8686V32.8838L28.2752 32.8747V32.8868L28.2297 32.8808V32.8929L28.011 32.984L27.9502 33.0417L27.9168 33.0387L27.8561 33.0995L27.8227 33.0934L27.7953 33.1268L27.765 33.1238L27.7316 33.1602L27.7012 33.1541L27.686 33.1784L27.6222 33.1815L27.607 33.2088L27.5615 33.2149V33.2301H27.4977L27.4856 33.2604L27.3884 33.2695V33.2817L27.361 33.2786V33.2908L27.3276 33.2847V33.2999L27.2972 33.2969V33.3121L27.2031 33.3212V33.3364L27.1606 33.3212V33.3394L27.1302 33.3364V33.3485L27.0786 33.3394L27.0816 33.3546L27.0482 33.3485V33.3667L27.0026 33.3546L27.0057 33.3667L26.9601 33.3607V33.3758L26.6594 33.4913L26.6321 33.4882L26.5714 33.5459L26.541 33.5398L26.5076 33.5793L26.4772 33.5733L26.4438 33.6097L26.4134 33.6036L26.4013 33.631L26.3709 33.6249L26.3375 33.6613L26.2767 33.6644L26.2616 33.6917L26.2008 33.6947L26.1856 33.719L26.0915 33.7282L26.0763 33.7525L26.0307 33.7464L26.0125 33.7737L25.5023 33.8648L25.4415 33.8527V33.8679L25.3747 33.8557V33.8709L25.314 33.8618V33.8709L25.2532 33.8618V33.877L25.1773 33.8618V33.877L25.0983 33.8618V33.877L24.9738 33.8527V33.8679L24.3967 33.7737V33.7616L24.2114 33.7251V33.7099L24.0839 33.6856L24.0808 33.6765L23.9928 33.6583V33.6401L23.929 33.631V33.6158L23.85 33.6006V33.5854L23.6769 33.5247V33.5125L23.6283 33.5034V33.4882L23.519 33.4548V33.4427L23.4886 33.4366V33.4214L23.443 33.4123V33.3971L23.4127 33.391V33.3789L23.3671 33.3667V33.3546L23.3033 33.3303V33.3151L23.2578 33.306V33.2908L23.1606 33.2452V33.2301L23.1332 33.2209V33.2088L23.0695 33.1845L23.0543 33.1541L22.9571 33.1055L22.9419 33.0752L22.8811 33.0509V33.0326L22.8326 33.0114L22.8174 32.981L22.787 32.9749L22.7688 32.9415L22.7384 32.9354L22.708 32.8868L22.6777 32.8838L22.6442 32.8352L22.6139 32.8291L22.5835 32.7775L22.5349 32.7562L22.3952 32.5862L22.3618 32.5831L22.2464 32.4313L22.2221 32.4252L22.1401 32.325V32.2946L22.1097 32.2764V32.2612L22.0793 32.2399V32.2126L22.0338 32.1761V32.1458L21.9882 32.1124V32.079L21.9518 32.0607L21.9366 32.0152L21.9184 32.0121V31.9818L21.888 31.9605L21.8758 31.921L21.8576 31.9149L21.8363 31.8542L21.809 31.8299V31.8056L21.7756 31.7692V31.7449L21.7604 31.7388V31.7084H21.7452V31.678H21.73L21.6966 31.5839H21.6815L21.6663 31.508L21.6511 31.5019V31.4715H21.6329V31.429L21.6177 31.426L21.6025 31.3652H21.5843L21.5539 31.2164L21.5387 31.2133V31.1678H21.5205V31.1253L21.5053 31.1192L21.4871 31.0159L21.4719 31.0129V30.9552L21.4567 30.9521L21.4385 30.776L21.4719 29.5672H21.4871V29.5277H21.5023V29.4852L21.5174 29.4882L21.56 29.309L21.5812 29.3121V29.2847L21.5934 29.2908V29.2452L21.6086 29.2483L21.6237 29.1906L21.6329 29.1966V29.1541L21.6541 29.1572L21.6723 29.0995L21.6875 29.1055V29.06L21.7149 29.0509V29.0235L21.7452 29.0023V28.9719L21.7604 28.9749V28.9446L21.7726 28.9476V28.9203L21.806 28.9111L21.8181 28.8565L21.8515 28.8504V28.82L21.8819 28.8079L21.8971 28.7593L21.9275 28.7471V28.7168L21.973 28.7016V28.6682L22.0186 28.6499V28.6196L22.0945 28.5771V28.5497L22.1553 28.5193V28.489L22.1887 28.4677L22.2373 28.4616V28.4343L22.2676 28.4222L22.295 28.3857L22.3739 28.3584V28.331L22.4043 28.3067L22.4347 28.3128L22.4833 28.2612L22.5167 28.2703L22.5714 28.2065L22.6048 28.2156L22.6351 28.1761L22.6685 28.1822L22.6989 28.1458L22.7323 28.1518L22.7445 28.1275L22.8052 28.1245L22.8204 28.0972L22.869 28.0941V28.0759H22.9328L22.948 28.0486L22.9753 28.0547L23.0057 28.0304L23.0421 28.0364V28.0212L23.0695 28.0304V28.0152L23.1029 28.0212L23.115 27.9939L23.1606 28.003V27.9878L23.2244 27.9848V27.9696L23.2729 27.9787V27.9666L23.3307 27.9635V27.9484L23.3793 27.9575V27.9423L23.4127 27.9484V27.9362L23.6131 27.9301V27.9149L23.6617 27.921V27.9058L23.7073 27.918V27.9028L23.8925 27.9058L23.9108 27.8815L23.9411 27.8906L23.9685 27.8512L24.0019 27.8603L24.0292 27.8178L24.0626 27.8238L24.093 27.7843L24.1234 27.7935L24.1416 27.7692L24.2023 27.7661L24.2206 27.7418L24.2479 27.7449L24.2661 27.7175L24.2935 27.7236L24.3086 27.6993L24.342 27.7054L24.3755 27.6841L24.4028 27.6872V27.678H24.4362V27.6659L24.4666 27.672L24.6913 27.6143L24.7187 27.6294Z" fill="#A3CF62"/>
<path d="M29.7511 25.157L29.7056 25.2026L29.6722 25.2147L29.6752 25.239L29.6448 25.2633L29.6145 25.2603L29.5962 25.2846L29.5659 25.2785V25.2937L29.5355 25.2846V25.3028L29.4869 25.2937V25.3089L29.3958 25.318V25.3332L29.3624 25.3271L29.3654 25.3453L29.2743 25.3544L29.2561 25.3787L29.1923 25.3848L29.1801 25.4091L29.1498 25.403L29.1346 25.4273L29.1012 25.4213L29.086 25.4486L29.0556 25.4425L29.0404 25.4668L29.0101 25.4638L28.9918 25.4881L28.9189 25.5093V25.5124V25.5458L28.9858 25.5853V25.6126L29.1103 25.7098V25.7402L29.1437 25.7432V25.7736L29.1771 25.7827V25.807L29.2075 25.8161L29.2105 25.8434L29.2409 25.8526L29.3168 25.9801L29.3502 25.9862L29.3867 26.0621L29.4201 26.0743V26.0986L29.4474 26.1046L29.5264 26.2808L29.5598 26.2838L29.6266 26.4144L29.6874 26.4873L29.7876 26.5329V26.5633L29.8483 26.5876V26.6149L29.9273 26.6604V26.6878L29.9577 26.6939V26.7242L29.9911 26.7303L29.9941 26.7607L30.0731 26.8457L30.1065 26.8518V26.8822L30.1369 26.8882V26.9156L30.1672 26.9216L30.2796 27.1039L30.313 27.1069V27.1403L30.3434 27.1434V27.1859L30.3738 27.195L30.4102 27.2861L30.4224 27.2891L30.4558 27.3681L30.4892 27.3742L30.5196 27.4532L30.553 27.4592L30.6502 27.5352V27.5625L30.6805 27.5686V27.5989L30.7899 27.6627V27.6931L30.8233 27.6992L30.8719 27.7781L30.9022 27.7842L30.9053 27.8176L30.9356 27.8237L30.9842 27.9027L31.0146 27.9057V27.9391L31.045 27.9421L31.0966 28.0545L31.13 28.0606V28.094L31.1604 28.097L31.209 28.2033L31.2394 28.2125V28.255L31.2697 28.2611L31.288 28.3066L31.3032 28.3096L31.3214 28.3856L31.3517 28.4068V28.4372L31.3852 28.4585V28.501L31.4186 28.5192L31.4338 28.6134L31.4672 28.6286V28.6923H31.4793L31.4975 28.7683L31.5309 28.7743L31.5492 28.9232L31.5643 28.9292V28.9566H31.5795V29.0447L31.6129 29.0659L31.6281 29.2026L31.6615 29.2208L31.6949 29.3453L31.7284 29.3484L31.7587 29.4729L31.7891 29.4759L31.8104 29.5822L31.8407 29.5883L31.859 29.7371L31.8893 29.7462L31.941 30.2595H31.9258L31.9319 30.4904L31.9136 30.4873V30.5906L31.8984 30.5876V30.6756L31.8711 30.6817L31.859 30.7971L31.8255 30.791L31.7496 31.0219L31.7132 31.0158L31.5947 31.2314L31.5613 31.2375L31.5431 31.2345L31.5461 31.277L31.5127 31.274V31.2891L31.452 31.3226L31.4034 31.3529L31.4095 31.3985L31.294 31.4319V31.4592L31.3183 31.4623L31.3305 31.4349L31.3669 31.441L31.376 31.4167L31.4125 31.4228L31.4246 31.3985H31.455V31.3863L31.5036 31.3833L31.5158 31.359H31.5492L31.5978 31.3134L31.6281 31.3226L31.6889 31.2618H31.7223L31.8286 31.1677L31.859 31.1768V31.1616L31.9045 31.1403L31.9227 31.1008L32.029 31.034V31.0036L32.1019 30.9611V30.9338L32.1353 30.9277V30.9125L32.1688 30.9065L32.1657 30.8761L32.2022 30.867V30.8366L32.2295 30.8275V30.8002L32.2751 30.7789L32.3236 30.7121L32.3814 30.6787L32.3965 30.6544L32.4269 30.6574L32.4391 30.6088L32.4755 30.6179L32.4877 30.5906L32.518 30.5967L32.5332 30.5693L32.5666 30.5784L32.5818 30.5511L32.6304 30.5481L32.6912 30.4873L32.7246 30.4904L32.7853 30.4296L32.8126 30.4357V30.4205L32.843 30.4114V30.3841L32.8764 30.3901L32.9341 30.3294L32.9493 30.3324V30.3051L33.0131 30.2838V30.2595L33.0921 30.214V30.1836L33.1528 30.1532V30.1259L33.1984 30.1289V30.1016L33.3199 30.0226L33.3867 30.0196L33.3988 29.968H33.4626V29.9528L33.5082 29.9497L33.5264 29.9224L33.5537 29.9285V29.9133L33.6023 29.9072L33.6145 29.8829L33.6479 29.889L33.6752 29.8495L33.7086 29.8586L33.7238 29.8283L33.742 29.8343L33.7572 29.807L33.7876 29.8131V29.8009L33.8483 29.7827V29.7523L34.1399 29.564V29.5367L34.1824 29.5185V29.485L34.228 29.4668L34.2887 29.4122L34.2462 29.3484L34.2249 29.3453L34.2128 29.2846L34.1642 29.2481L34.149 29.1722L34.1338 29.1692L34.067 29.069L33.8635 28.9292V28.8989L33.8149 28.8776L33.7997 28.8442L33.7633 28.8412L33.7177 28.7743L33.6843 28.7683L33.6084 28.6772L33.5719 28.6286L33.5446 28.6225L33.493 28.5405L33.4626 28.5374L33.3836 28.422L33.3654 28.416V28.3856L33.2682 28.2975V28.2702L33.2409 28.2459V28.2155L33.2075 28.1973V28.1699L33.171 28.1335L33.1437 28.1274L33.0283 27.8905L33.0009 27.8814L32.8643 27.5838L32.8339 27.5595V27.5321L32.8187 27.5291L32.8035 27.438L32.7853 27.4349V27.3924L32.7701 27.3894V27.3469L32.7549 27.3438V27.3013L32.7397 27.2983L32.7367 27.2375H32.7246L32.7033 27.1434L32.6881 27.1403V27.113L32.6729 27.1069V27.0522L32.6577 27.0492L32.6547 26.9611L32.6395 26.9581L32.6365 26.8822H32.6243L32.6213 26.7637L32.6061 26.7607L32.5879 26.4114L32.5697 26.4084V26.3658L32.5393 26.3446L32.518 26.2383L32.4877 26.2322L32.4725 26.1715L32.4573 26.1684V26.1107L32.4391 26.1077V26.0621L32.4057 26.0439V25.968L32.3722 25.9649L32.3571 25.8161L32.3419 25.8131V25.7827H32.3267L32.3236 25.6794L32.2902 25.6551V25.5002L32.2568 25.482L32.2508 25.0234L32.2842 25.0204V24.8533L32.3145 24.8624L32.3267 24.7227H32.3419V24.665L32.3571 24.668V24.5921L32.3874 24.586V24.5283L32.4208 24.5223L32.436 24.422L32.4694 24.4281L32.5089 24.2732L32.5423 24.2793V24.2368L32.5727 24.2428L32.7003 24.0485L32.7306 24.0545L32.7792 23.9604L32.8096 23.9664V23.9361L32.84 23.9391L32.9189 23.8389L32.9463 23.845V23.8146L33.0009 23.8267L33.0465 23.7903L33.0404 23.763L33.0738 23.769V23.7387L33.1042 23.7447L33.1376 23.7083L33.165 23.7113L33.1832 23.687L33.2287 23.6779V23.6506L33.3077 23.6081L33.4505 23.5898V23.5625L33.6084 23.5503V23.5169L33.7481 23.4987L33.7997 23.5109V23.4957L33.8301 23.4987V23.4835L33.8878 23.4957L33.9091 23.4714L34.0792 23.4896L34.0913 23.4623L34.2371 23.4896L34.2553 23.4623L34.5044 23.5109L34.5408 23.4987L34.963 23.5959V23.6263L35.3153 23.7326V23.763L35.3943 23.7751V23.8055L35.5856 23.8844V23.9118L35.7405 23.9847V24.0181L35.8043 24.0424L35.8104 24.0576L35.8559 24.0667L35.8863 24.1153L35.9349 24.1244V24.1365L35.9713 24.1396V24.1578L36.0928 24.1791V24.1973L36.2022 24.2155V24.2307L36.2842 24.2459V24.2611L36.3783 24.2793V24.2945L36.4421 24.3066L36.4573 24.3339L36.5211 24.3491V24.3643L36.5666 24.3734V24.3856L36.6183 24.3947V24.4129L36.682 24.422V24.4372L36.9038 24.5344V24.5648L37.2166 24.7409V24.7683L37.2743 24.7926L37.253 24.7683V24.744L37.2227 24.7227V24.6954L37.1923 24.6589V24.6316L37.1589 24.6103L37.1437 24.5496L37.1133 24.5283V24.501L37.0981 24.4949L37.0829 24.4524L37.0495 24.4311V24.4038L36.9858 24.3491V24.3188L36.9189 24.2641V24.2368L36.8096 24.1305L36.7975 24.0849L36.7671 24.0788V24.0485L36.7337 24.0424L36.512 23.8328L36.4846 23.7842L36.4542 23.7751L36.433 23.7447L36.4057 23.7387L36.3722 23.6901L36.3115 23.6627L36.2963 23.6324L36.2447 23.6081V23.5959L36.1505 23.5503V23.5321L36.1232 23.5291V23.5139L36.029 23.4683V23.4562L35.9501 23.4228V23.4137L35.9197 23.4046V23.3894L35.8711 23.3833V23.3681L35.8407 23.362V23.3469L35.7952 23.3377V23.3226H35.7618V23.3043L35.6524 23.2679V23.2557L35.6038 23.2466V23.2345L35.5431 23.2223V23.2071L35.4641 23.195V23.1768L35.3882 23.1616V23.1494L35.1391 23.0887V23.0765L34.4558 22.9763V22.9885L34.3707 22.9763V22.9885L34.2978 22.9763V22.9885L34.2523 22.9824V22.9976L34.1885 22.9824V23.0006L34.1247 22.9854V23.0037L34.0913 22.9945V23.0097L34.0002 23.0067V23.0219L33.9729 23.0158V23.028L33.9243 23.0249V23.0371H33.8635V23.0522L33.8149 23.0431V23.0583L33.7208 23.0705V23.0857L33.6934 23.0765V23.0948L33.6296 23.0978L33.6145 23.1191L33.5537 23.1251L33.5385 23.1494L33.5021 23.1464V23.1586L33.4565 23.1616L33.4444 23.192L33.411 23.1828L33.3836 23.2223L33.3502 23.2163L33.3199 23.2527L33.2895 23.2466L33.2409 23.2983L33.2105 23.2922L31.5461 24.2246L31.4793 24.2307V24.2459L31.4338 24.2519L31.4186 24.2762L31.3852 24.2671V24.2854L31.3274 24.3157L30.8142 24.6255L30.8202 24.6498L30.7868 24.6589L30.7413 24.7106L30.7079 24.7015L30.6805 24.7227L29.7511 25.157Z" fill="#A3CF62"/>
<path d="M10.3007 23.4988L10.3341 23.435H10.3462L10.3614 23.3834L10.3797 23.3864L10.3766 23.3561L10.3918 23.3591V23.3135L10.407 23.3166L10.4374 23.2376L10.4525 23.2406V23.2103L10.4708 23.2163V23.186L10.486 23.192L10.4829 23.1617H10.4981V23.1343L10.5194 23.1404V23.11L10.5437 23.0857V23.0584L10.574 23.0493L10.5892 22.9946L10.6226 22.9855L10.6348 22.9309L10.6712 22.9217L10.6651 22.8974H10.6803V22.8671L10.7137 22.861V22.8306L10.7411 22.8245V22.7942L10.7775 22.7851L10.7715 22.7547L10.8049 22.7456V22.7182L10.8504 22.7V22.6697L10.899 22.6514V22.618L10.978 22.5785V22.5512L11.0084 22.5421V22.5269L11.0357 22.5178V22.4905L11.4214 22.0167H11.4366L11.4761 21.9681L11.4913 21.9741V21.9286L11.5065 21.9316L11.5034 21.9073H11.5186V21.8618L11.5399 21.8678L11.5672 21.7858H11.5824V21.7615L11.5976 21.7646V21.7372H11.6128V21.7099H11.6249V21.6826L11.6431 21.6856V21.6552L11.6583 21.6613V21.6309L11.6705 21.634V21.6036L11.7039 21.5823V21.552L11.7342 21.5459L11.7494 21.4912L11.7768 21.4821L11.798 21.4274L11.8223 21.4183V21.391H11.8405V21.3667L11.8861 21.3454L11.8983 21.2847L11.9499 21.2725L11.9468 21.2391L11.9924 21.2209L12.0744 21.1359V21.1055L12.1048 21.1116L12.1321 21.063H12.1473V21.0356L12.1625 21.0387L12.2111 20.9901L12.2415 20.984V20.9506L12.2536 20.9536L12.3022 20.905L12.3295 20.9141L12.7396 20.4677L12.7365 20.4434L12.7547 20.4464L12.7669 20.3887L12.7821 20.3948V20.3644L12.8003 20.3674V20.3371L12.8125 20.3401V20.3128L12.8307 20.3158V20.2854L12.8459 20.2915V20.2642H12.861V20.2308L12.8732 20.2399V20.2095L12.8914 20.2126L12.8884 20.1852L12.9218 20.1579V20.1336L12.9522 20.1245L12.9674 20.0698L13.0129 20.0485L13.0251 19.9939L13.0585 19.9878V19.9574L13.0737 19.9605V19.9301L13.104 19.924L13.1192 19.8815L13.1678 19.8633V19.8359L13.2134 19.8147L13.2286 19.76L13.3075 19.7144V19.6871L13.3804 19.6446V19.6173L13.6112 19.353L13.6234 19.3591V19.3318L13.6386 19.3348L13.6568 19.2376L13.675 19.2406L13.6689 19.2103L13.6902 19.2133L13.7024 19.1313L13.7175 19.1343V19.104L13.7327 19.11V19.0675H13.7479L13.7631 19.0159H13.7752V18.9734L13.7904 18.9764L13.8238 18.8974H13.839V18.8701L13.8542 18.8731V18.8458H13.8694V18.8154L13.8846 18.8215V18.7942H13.8967V18.7668H13.915V18.7395L13.9271 18.7456V18.7152L13.9605 18.6909V18.6636L13.9909 18.6545L14.0243 18.5725L14.0516 18.5664V18.536L14.1002 18.5178L14.1124 18.4631L14.1458 18.454V18.4267L14.1913 18.4085V18.3781H14.2035L14.2187 18.3386L14.2521 18.3295V18.2991L14.3159 18.2718V18.2414L14.3888 18.2019V18.1715L14.4829 18.1169V18.0865L14.6621 17.8071H14.6834L14.6773 17.7797L14.6955 17.7858L14.7259 17.6583L14.7411 17.6643V17.634L14.7563 17.637V17.5945L14.7715 17.5975L14.7866 17.5428L14.8049 17.5459V17.5003L14.814 17.5034L14.8443 17.4244L14.8626 17.4274V17.4001L14.8778 17.4031V17.3728H14.896L14.8929 17.3454L14.9142 17.3515L14.9051 17.3211L14.9263 17.3242L14.9233 17.2938L14.9415 17.2968L14.9355 17.2695L14.9537 17.2725V17.2391L14.9841 17.2209V17.1936L15.0175 17.1814L15.0327 17.1298L15.06 17.1176L15.0752 17.066L15.1086 17.0569V17.0296L15.139 17.0204V16.9931L15.1693 16.984V16.9536L15.1967 16.9445V16.9141L15.2331 16.9081L15.221 16.8625L15.2635 16.8413V16.8139L15.3273 16.7835L15.3424 16.741L15.4791 16.5527V16.4829L15.4973 16.4859V16.4403L15.5125 16.4464L15.5065 16.4009L15.5247 16.4039V16.3462L15.5399 16.3523V16.3067L15.5793 16.3128V16.2703L15.5976 16.2763L15.5945 16.2308H15.6097V16.2034L15.6249 16.2095L15.6401 16.1245L15.6583 16.1275L15.6522 16.0971L15.6705 16.1002V16.0577L15.6857 16.0607L15.7008 16.006L15.7191 16.0121L15.716 15.9787L15.7312 15.9848V15.9422L15.7494 15.9453L15.7768 15.8663H15.792V15.839H15.8102L15.8041 15.8147H15.8254L15.8527 15.7327L15.8861 15.7236V15.681L15.9134 15.6719L15.9317 15.6203L15.959 15.6112V15.5808L15.9894 15.5747V15.5444L16.0228 15.5353V15.5079L16.0501 15.4988V15.4715L16.0866 15.4624V15.435H16.1017L16.1109 15.3955L16.1473 15.3895V15.3591L16.1898 15.3378V15.3105L16.2688 15.268V15.2406L16.4966 14.9066V14.8671H16.5118V14.8245L16.5239 14.8306V14.7699H16.5421L16.5391 14.7456L16.5543 14.7486V14.7061L16.5725 14.7091V14.6788L16.5847 14.6818V14.6362L16.5998 14.6423V14.6119L16.6181 14.615V14.5725L16.6302 14.5755L16.6454 14.5208L16.6606 14.5239V14.4965H16.6758V14.454L16.7092 14.4449V14.4054L16.7244 14.4085V14.3781H16.7365V14.3507L16.7699 14.3416L16.7669 14.3143L16.8003 14.293V14.2627H16.8125V14.2353L16.8307 14.2414V14.211L16.861 14.2019L16.8762 14.1473L16.9066 14.1412V14.1108L16.937 14.1017V14.0744L16.9704 14.0652L16.9674 14.0349L16.9977 14.0288V13.9984L17.0281 13.9893V13.962L17.0767 13.9407V13.9164L17.1192 13.8921V13.8618L17.3197 13.5823L17.3349 13.5884V13.5459L17.3531 13.5489V13.5034L17.3652 13.5094V13.4639L17.3804 13.4669V13.4122L17.3956 13.4153V13.3849H17.4108L17.4442 13.2634L17.4563 13.2665V13.2361L17.4746 13.2391L17.4715 13.1966L17.4867 13.2027L17.5019 13.148H17.5171L17.5323 13.0842H17.5475L17.5748 13.0022L17.59 13.0053V12.9749L17.6112 12.981L17.6082 12.9536L17.6264 12.9567L17.6234 12.9263L17.6386 12.9293V12.902L17.672 12.8777V12.8473L17.6993 12.8413L17.7145 12.7835L17.7449 12.7775L17.7601 12.7228L17.7904 12.7107L17.8087 12.656L17.8542 12.6408L17.8512 12.6104L17.8815 12.6013V12.5709L17.915 12.5649L17.9271 12.5223L17.9727 12.5041V12.4737L18.0091 12.4677L18.003 12.4525L18.0364 12.4464V12.416L18.0972 12.3826V12.3553L18.5103 11.7995V11.7722L18.5254 11.7782V11.7479L18.5588 11.7387V11.7114L18.5892 11.6871V11.6567L18.6014 11.6598V11.6324L18.6317 11.6233L18.6469 11.5687L18.6621 11.5717L18.6803 11.5353L18.7077 11.5231L18.7259 11.4684L18.7684 11.4472V11.4198L18.7988 11.4107V11.3773L18.8474 11.3621V11.3318L18.9051 11.3044V11.271L18.9689 11.2406V11.2163L19.1116 11.1252L19.1055 11.0949L19.142 11.0888L19.1693 11.0493L19.2027 11.0554L19.3273 10.9491L19.3576 10.9551L19.4032 10.9066L19.4336 10.9126L19.4943 10.8519L19.5216 10.858L19.555 10.8215L19.5885 10.8245L19.6067 10.8002L19.6492 10.7942V10.779L19.6796 10.7881L19.6948 10.7638L19.7282 10.7699L19.7434 10.7395L19.792 10.7334V10.7182L19.8831 10.7091L19.8952 10.6848L19.9286 10.6909L19.959 10.6636L19.9894 10.6696V10.6575L20.0197 10.6636V10.6514L20.0562 10.6545L20.0683 10.6271L20.1109 10.6362V10.6241L20.1746 10.618V10.6059L20.2202 10.615V10.5998L20.284 10.5968V10.5846L20.3326 10.5907V10.5785L20.3629 10.5846V10.5694L20.4115 10.5785V10.5664L20.4358 10.5694V10.5512L20.7031 10.5056L20.7304 10.5117L20.7487 10.4813H20.8125L20.8246 10.454L20.8884 10.451V10.4358L20.9218 10.4419V10.4297L21.0099 10.4176V10.4054L21.0585 10.4084V10.3963L21.1222 10.3933V10.3811L21.1678 10.3902V10.372L21.2012 10.3811V10.3629L21.2893 10.369L21.2923 10.3538L21.3379 10.3629V10.3477L21.3834 10.3568V10.3447L21.432 10.3507V10.3356L21.4928 10.3477V10.3325L21.5566 10.3447V10.3325L21.6325 10.3447V10.3325L22.8626 10.618V10.6332L22.9112 10.6423V10.6545L22.9567 10.6636V10.6788L23.0053 10.6879V10.7031L23.0539 10.7091V10.7243L23.0843 10.7304V10.7425L23.1329 10.7517V10.7699L23.1936 10.7942V10.8063L23.2422 10.8154V10.8337L23.3364 10.8792V10.8914L23.3971 10.9157L23.4123 10.946L23.4761 10.9734L23.4913 11.0037L23.5247 11.0098L23.5399 11.0432L23.5702 11.0493L23.5885 11.0797L23.6158 11.0857L23.634 11.1161L23.6644 11.1222L23.6826 11.1556L23.713 11.1617L23.7585 11.2255L23.792 11.2315L23.8527 11.3166L23.8861 11.3226V11.3318L23.9165 11.3561V11.3864L24.1686 11.675L24.2141 11.7144V11.7387L24.2658 11.7782V11.8056L24.2931 11.8238L24.3083 11.8754H24.3265V11.9058L24.3569 11.924L24.3751 11.9696L24.3872 11.9756V12.003L24.4237 12.0394V12.0637L24.4389 12.0668V12.0971L24.4541 12.1032V12.1305H24.4692V12.1579L24.4844 12.164V12.1943H24.4966L24.533 12.2854L24.5482 12.2915V12.331L24.5664 12.3371V12.3644L24.5786 12.3674V12.41L24.5938 12.413V12.4464H24.615V12.4889L24.6272 12.492V12.5345L24.6454 12.5375L24.6636 12.6408H24.6758L24.8398 13.1298L24.8489 13.1359L24.8732 13.1936L24.8853 13.1966L24.9036 13.2877H24.9188V13.3181H24.9339L24.9856 13.5155L24.9947 13.5185V13.5641H25.0159V13.6097H25.0311V13.6643L25.0463 13.6704L25.0797 13.8921V15.0797L25.0494 15.2771L25.0342 15.271V15.3166L25.019 15.3135V15.3561L24.8853 16.1032L24.8732 16.1002L24.8793 16.2763H24.858L24.8641 16.4009L24.8459 16.3978V16.4829H24.8307V16.5649H24.8125V16.6347L24.8003 16.6317V16.6864H24.7882L24.6211 17.2179L24.609 17.2118L24.5907 17.2695L24.5756 17.2665V17.309L24.5604 17.3059L24.5452 17.3606L24.53 17.3545V17.3849L24.5118 17.3819L24.5178 17.4244L24.4844 17.4335V17.4639L24.4541 17.4851L24.284 17.8557L24.2718 17.8921L24.2566 17.8557L24.2111 17.8192L24.1959 17.7555L24.1473 17.722V17.6917L24.1169 17.6704V17.64L24.0683 17.6036L24.0349 17.555L24.0197 17.5489V17.5216L23.956 17.4669L23.877 17.3515L23.8466 17.3454L23.8284 17.2968H23.8132V17.2543L23.795 17.2482V17.2027H23.7798V17.1571L23.7616 17.1541V17.1116L23.7464 17.1085V17.066H23.7312V17.0204L23.716 17.0174L23.6857 16.9233H23.6644V16.8929L23.6522 16.8898V16.8625L23.634 16.8564V16.8291L23.6158 16.8261V16.7957L23.6036 16.7927V16.7653L23.5702 16.7319V16.7015L23.5399 16.6803L23.5095 16.5892L23.4579 16.5497V16.5193L23.3941 16.4677L23.3789 16.4191L23.3455 16.3978V16.3705L23.2969 16.331V16.3037L23.2513 16.2672V16.2368L23.139 16.1275L23.1238 16.082L23.0934 16.0759V16.0485L23.0296 16.006L22.9506 15.9058L22.9142 15.8997V15.8876L22.8352 15.8238V15.7995L22.7927 15.7722V15.76L22.7441 15.7387L22.7289 15.7053L22.6317 15.6598L22.6166 15.6264L22.568 15.6051V15.5899L22.5406 15.5869L22.5011 15.5474L22.4738 15.5444V15.5292L22.4434 15.5231L22.4252 15.4897L22.3948 15.4867V15.4715L22.3614 15.4654L22.328 15.432L22.2976 15.4259L22.2825 15.3925L22.1397 15.3226V15.3075L22.1093 15.3014V15.2862L22.0152 15.2558L21.6507 15.0857L21.4806 15.0372V15.028L20.9765 14.9187L20.0319 14.9308L19.9803 14.9217V14.9369L19.8922 14.9521V14.9612L19.8284 14.9673L19.8132 14.9916L19.7828 14.9855V15.0007L19.7525 14.9946V15.0098L19.7191 15.0037L19.6856 15.028L19.6583 15.0189L19.6401 15.0463L19.549 15.0614L19.5156 15.0949L19.4487 15.1009L19.4396 15.1252L19.388 15.1313V15.1435L19.3424 15.1526L19.3455 15.1799L19.2635 15.2103V15.2224L19.2361 15.2163L19.1572 15.2923L19.0964 15.3075V15.3378L19.0478 15.3409V15.3712L19.0175 15.3773V15.3955L18.9841 15.3895L18.9051 15.4593V15.4897L18.896 15.4867L18.8656 15.5413L18.8322 15.5322L18.817 15.5717H18.7988L18.7836 15.6112L18.7502 15.6203L18.738 15.675L18.6955 15.6962L18.6591 15.7722L18.6257 15.7843L18.6317 15.8147L18.6014 15.839V15.8663H18.5862V15.8936H18.568V15.9179L18.5528 15.9149V15.9453L18.5376 15.9422V15.9696L18.5224 15.9665L18.489 16.0485H18.4738L18.3219 16.495L18.2976 16.7805L18.2794 16.7775L18.2703 17.1085H18.2825L18.3007 17.4031L18.3189 17.4092L18.3371 17.5854L18.3493 17.5884L18.3523 17.6431L18.3675 17.6461V17.7038L18.3827 17.7099L18.3888 17.7646L18.4009 17.7676L18.407 17.8101L18.4191 17.8162V17.8587L18.4343 17.8648V17.9073H18.4495V17.9529H18.4677V17.9984L18.4829 18.0015V18.044L18.4981 18.0501V18.0926H18.5133L18.5497 18.1867L18.5649 18.1898V18.2171H18.5771L18.5801 18.2475L18.5983 18.2536V18.2839H18.6135V18.3173H18.6257V18.3447L18.6591 18.3811V18.4085L18.6955 18.4297L18.7259 18.5208L18.7684 18.5603L18.7866 18.6211L18.82 18.6423L18.8352 18.6879L18.8504 18.6909L18.8686 18.7395L18.896 18.7456V18.7699L18.9446 18.8094V18.8367L18.981 18.858V18.8883L19.0266 18.9278V18.943L19.0569 18.946L19.0904 18.9825L19.1055 19.025L19.1693 19.0827V19.1252L19.1845 19.1313V19.1708L19.2027 19.1769L19.2058 19.2163L19.221 19.2224V19.2649L19.2361 19.268V19.2984H19.2513L19.2665 19.3895L19.2847 19.3925L19.3181 19.4867L19.3364 19.4897V19.517L19.3516 19.5231V19.5504H19.3607V19.5808L19.3819 19.5869V19.6112L19.4123 19.6507V19.678L19.4427 19.6962L19.4761 19.7904L19.5216 19.8299L19.5429 19.8876L19.5733 19.9088L19.5885 19.9574L19.6522 20.0091V20.0425L19.7312 20.1154V20.1397L19.8436 20.249L19.8588 20.2946L19.8922 20.3006L19.9408 20.413L19.9711 20.5466L19.9894 20.5497V20.5801L20.0046 20.5831V20.6256L20.0197 20.6286L20.0562 20.7198L20.0683 20.7258V20.7532L20.0835 20.7562V20.7866L20.1017 20.7896V20.817L20.1139 20.82V20.8625L20.1473 20.8838L20.1655 20.9445L20.1989 20.9658L20.2293 21.0569L20.2597 21.0782V21.1085L20.2931 21.1298L20.3113 21.1905L20.3386 21.2088V21.2391L20.4024 21.2908V21.3242L20.4692 21.3758V21.4092L20.5178 21.4457L20.5361 21.476L20.5664 21.4821V21.4973L20.5938 21.5185V21.5459L20.6454 21.5671L20.6636 21.6157L20.691 21.6218L20.7092 21.6522L20.7244 21.6552V21.6856L20.7547 21.7069L20.7699 21.7919L20.7882 21.801V21.8283L20.8064 21.8314V21.8739L20.8216 21.8769L20.855 21.9681L20.8671 21.9741V22.0015L20.8853 22.0045V22.0349L20.9005 22.0379V22.0652H20.9188V22.0987H20.9339V22.1321L20.9643 22.1655V22.1928L21.0008 22.2171L21.0281 22.3082L21.0767 22.3447L21.0919 22.3902H21.1101V22.4206L21.1557 22.4601V22.4905L21.2225 22.5451V22.5725L21.2832 22.6271V22.6575L21.3956 22.7699L21.4108 22.8124L21.4442 22.8154V22.8458L21.4897 22.8671V22.8823L21.5718 22.9582V22.9855L21.6021 23.0068V23.0341L21.6173 23.0372V23.0675L21.6325 23.0706V23.1131L21.6507 23.1161L21.6963 23.2346H21.6902L21.6781 23.3166L21.6629 23.3135V23.3439L21.6477 23.3378V23.3834L21.6295 23.3773V23.4229H21.6173V23.4502L21.6021 23.4441V23.4897L21.5839 23.4836L21.5718 23.5383L21.5566 23.5353V23.5808L21.5414 23.5778L21.508 23.6567L21.4928 23.6537V23.6871L21.4806 23.678V23.7236L21.4533 23.7327V23.76L21.4351 23.757V23.8025L21.4047 23.8086V23.839L21.3895 23.8359V23.8633L21.3592 23.8876V23.9149L21.3288 23.924L21.2984 24.003L21.265 24.0151V24.0425L21.2225 24.0607L21.2073 24.1154L21.1617 24.1366V24.167L21.1283 24.1731L21.1131 24.2156L21.098 24.2095V24.2399L21.0494 24.2611V24.2915L20.9765 24.3614L20.8003 24.5952L20.773 24.6408L20.7608 24.6378V24.6772L20.7456 24.6742V24.7319H20.7274V24.7744L20.7153 24.7684L20.691 24.8109L20.6758 24.8048V24.8504L20.6636 24.8473V24.8898L20.6454 24.8868V24.9141L20.6302 24.9111V24.9567L20.615 24.9506V24.981L20.5998 24.9779L20.5573 25.0539H20.5482L20.527 25.1085L20.5178 25.1025V25.1328L20.4996 25.1298V25.1753L20.4844 25.1723L20.4541 25.1845H20.4632L20.4662 25.2148L20.445 25.2118L20.4207 25.2938L20.3872 25.2999L20.3569 25.3819L20.3235 25.391L20.2961 25.4669L20.2658 25.4821V25.5034L20.2323 25.5125V25.5459L20.202 25.552V25.5823H20.1838L20.1686 25.6218L20.1382 25.6279V25.6552L20.0957 25.6765V25.7069L20.0653 25.7129V25.7433L20.0319 25.7524L20.0623 25.7706L20.0258 25.7767V25.8071L19.9651 25.9073V25.9377L19.8588 25.9984V26.0318L19.798 26.0592L19.4761 26.4753L19.4609 26.4722L19.4427 26.5269L19.4336 26.5239V26.5542L19.4123 26.5512V26.5907H19.4032L19.3698 26.6697H19.3516V26.6939L19.3394 26.6909V26.7243L19.3212 26.7182L19.3273 26.7486L19.309 26.7456V26.7729L19.2787 26.7942V26.8245L19.2483 26.8337V26.8762L19.2331 26.8701L19.2149 26.9157L19.1845 26.9187L19.1693 26.9764L19.142 26.9855V27.0129L19.1238 27.0098V27.0402L19.0964 27.0493V27.0766L19.0478 27.0979L19.0327 27.1526L18.9841 27.1708V27.2012L18.9415 27.2224V27.2498L18.9112 27.2589V27.2862L18.8474 27.3196V27.3469L18.7684 27.3895V27.4198L18.5376 27.7023H18.5224V27.76L18.5042 27.7539V27.7843L18.489 27.7813L18.4343 27.9028L18.4191 27.8967L18.407 27.9665H18.3888V27.9939L18.3766 27.9878V28.0303H18.3614L18.328 28.1093L18.3128 28.1062V28.1336L18.2976 28.1305V28.1609H18.2825V28.2004L18.2521 28.2126V28.252L18.2248 28.2611V28.2915L18.2065 28.2854V28.3158L18.1913 28.3128V28.3432L18.1762 28.3401V28.3674L18.1458 28.3917V28.4221L18.1154 28.4312L18.1002 28.4829L18.0699 28.4889L18.0547 28.5466L18.0091 28.5679L17.9909 28.6195L17.9514 28.6378L17.9332 28.6803L17.9028 28.6924L17.8846 28.7471L17.836 28.7623V28.7927L17.7631 28.8382V28.8656L17.6841 28.905V28.9384L17.426 29.2331L17.4108 29.2725L17.3956 29.2695V29.3272L17.3804 29.3211L17.3652 29.3758L17.3531 29.3728L17.3349 29.4578L17.3197 29.4548L17.3075 29.5277L17.2893 29.5216L17.2741 29.5732L17.2589 29.5702V29.6006L17.2407 29.5975V29.6431L17.2255 29.637L17.1982 29.722L17.183 29.719V29.7463H17.1678L17.1344 29.8223L17.104 29.8283V29.8618L17.0767 29.883V29.9103L17.0615 29.9073V29.9377H17.0463V29.962L17.019 29.9741L17.0008 30.0258L16.9704 30.0349V30.0622L16.937 30.0713V30.1017L16.9066 30.1078V30.1351L16.8762 30.1473V30.1746L16.8459 30.1837V30.2141L16.8003 30.2323V30.2596L16.7699 30.2687V30.3021L16.7092 30.3325V30.3599L16.6302 30.4024V30.4297L16.5725 30.4631V30.4783L16.5391 30.4874L16.2718 30.8215L16.2566 30.8458L16.2232 30.9278H16.2111L16.1989 30.9825L16.1838 30.9794V31.0189L16.1655 31.0159V31.0463L16.1503 31.0432V31.0857H16.1321L16.0805 31.1617L16.0653 31.1556V31.186L16.0501 31.1829V31.2255L16.0228 31.2346V31.2619L15.9894 31.2832V31.3135H15.9742V31.3378H15.959V31.3652L15.9286 31.3895V31.4168L15.8983 31.4259L15.88 31.4806L15.8527 31.4897V31.517L15.8223 31.5261V31.5535L15.7889 31.5626L15.7737 31.6203L15.7251 31.6385L15.716 31.6932L15.6674 31.7114L15.5885 31.7995V31.8299L15.5642 31.8208L15.5308 31.8754L15.5156 31.8724V31.8967L15.4852 31.9058V31.921L15.4518 31.9301V31.9605L15.2847 32.0728V32.1002L15.2513 32.1062L15.1784 32.1791L15.145 32.1761L15.1268 32.2004L14.6348 32.656L14.6196 32.6499L14.6257 32.6772H14.6074V32.7046L14.5771 32.7289V32.7592L14.5437 32.7653L14.5285 32.82L14.5011 32.8291L14.4829 32.8838L14.4374 32.902L14.4252 32.9567L14.3766 32.9779L14.3614 33.0326L14.3189 33.0508V33.0812L14.2703 33.1025V33.1298L14.2065 33.1602L14.1974 33.2027L14.1792 33.1996V33.227L14.1488 33.2209L13.839 33.5094L13.8087 33.5034L13.7904 33.5246L13.6689 33.5914V33.6218L13.6538 33.6157L13.59 33.6491V33.6643L13.5657 33.6583V33.6856L13.4989 33.7038V33.719L13.4715 33.7099L13.4533 33.7372L13.4381 33.7342L13.4199 33.7615L13.1131 34.0622L13.0858 34.0713L13.0676 34.126L13.0372 34.1321V34.1624L13.0038 34.1715V34.1989L12.9765 34.208V34.2353L12.9461 34.2475V34.2718L12.9157 34.2839V34.3113L12.8671 34.3295V34.3599L12.8398 34.369V34.3963L12.8094 34.4024V34.4176L12.779 34.4297V34.457L12.7153 34.4905V34.5178L12.609 34.5846V34.6119L12.4996 34.6788L12.4844 34.7182L12.4571 34.7152L12.4419 34.7517L12.3933 34.7608L12.2536 34.8458L11.8527 35.2437L11.795 35.3226V35.35L11.7616 35.3561L11.7464 35.4138L11.716 35.4229L11.7191 35.4502L11.6856 35.4593L11.6583 35.4988V35.5231L11.6249 35.5322L11.6006 35.5353L11.5702 35.5413V35.5687L11.5399 35.5808V35.6081L11.4913 35.6294L11.4153 35.7144V35.7448L11.385 35.7357L11.3667 35.7782L11.3242 35.7965V35.8268L11.2453 35.8693L10.9537 36.088V36.1154L10.9263 36.1397L10.8899 36.1336L10.8626 36.17L10.7046 36.2429L10.7107 36.2672L10.6621 36.2763L10.568 36.3158L10.5376 36.3523L10.5072 36.3462L10.4586 36.3674L10.4434 36.3948L10.4343 36.416L10.4222 36.4403L10.3159 36.4646V36.495L10.2551 36.498V36.5102L10.2217 36.5041L10.2065 36.5284L10.1731 36.5223V36.5406L10.1458 36.5315L10.1124 36.5406L9.17084 37.1541L9.14351 37.148L9.09188 37.1996L9.06454 37.1936V37.2057L9.01898 37.23L9.00076 37.2543L8.97039 37.2452L8.95824 37.2756L8.92179 37.2665L8.89142 37.3029L8.86105 37.2968L8.83068 37.3363L8.76689 37.3394L8.73956 37.3758L8.70919 37.3728L8.694 37.394L8.62718 37.3971L8.612 37.4244L8.55429 37.4274L8.5391 37.4517L8.5057 37.4457L8.47532 37.473L8.44495 37.4639V37.4791L8.41458 37.473L8.39939 37.5003L8.33257 37.5034L8.33865 37.5155L8.30828 37.5125V37.5216L8.21412 37.5368V37.555L8.16553 37.5398V37.558L8.13516 37.555V37.5641L8.04404 37.5763V37.5914L7.94989 37.5854V37.6006L7.91648 37.5945V37.6127L7.77677 37.6157V37.6249L7.74639 37.6218V37.634L7.68565 37.6249V37.637L7.64009 37.6309V37.6461L7.5915 37.634V37.6522L7.54594 37.6431V37.6552L7.48519 37.6461L7.22399 37.6674L7.0691 37.6522V37.6674L6.13364 37.5368V37.5216L5.80258 37.4457L5.17692 37.2179V37.1996L4.97342 37.1207V37.1085L4.94609 37.1025V37.0842L4.89749 37.0782V37.063L4.80334 37.0326V37.0174L4.76993 37.0113V36.9992L4.72134 36.987V36.9749L4.66363 36.9476V36.9354L4.63326 36.9293V36.9141L4.58466 36.9081V36.8929L4.52088 36.8656V36.8504L4.49355 36.8473V36.8352L4.44191 36.823L4.42976 36.7896L4.39332 36.7866V36.7714L4.36598 36.7653V36.7501L4.33257 36.7471V36.7319L4.3022 36.7228L4.26879 36.6924L4.23842 36.6833L4.22323 36.6529L4.12908 36.6044L4.1139 36.577L4.05011 36.5527L4.01974 36.5011L3.98937 36.495L3.96811 36.4646L3.94077 36.4586L3.93774 36.4434L3.89218 36.4221L3.87699 36.3887L3.84662 36.3826L3.81625 36.334L3.78284 36.328L3.76765 36.2976L3.73424 36.2915L3.70387 36.2429L3.6735 36.2399L3.60972 36.1548L3.57935 36.1488L3.50038 36.0485L3.47001 36.0425L3.26651 35.8056L3.13895 35.678V35.6507L3.02658 35.5413V35.514L2.96887 35.4593V35.432L2.90509 35.3743L2.89901 35.35L2.86864 35.3287V35.2984L2.82308 35.2619V35.2346L2.78967 35.2133L2.77449 35.1678L2.7593 35.1647V35.1374L2.72589 35.1161V35.0888L2.69552 35.0645V35.0372L2.66819 35.0159L2.63478 34.9248L2.60137 34.9066L2.57099 34.8154L2.53759 34.7942L2.51936 34.7365L2.50418 34.7304V34.7031L2.48899 34.7V34.6696H2.47077V34.6393L2.46166 34.6362L2.45558 34.6059L2.44039 34.6028V34.5603L2.40699 34.5421V34.4996L2.3918 34.4935L2.37661 34.4358H2.36143V34.3902H2.34624L2.33106 34.3264L2.31587 34.3234L2.29765 34.2353L2.27942 34.2293V34.2019L2.26424 34.1989V34.1412L2.24905 34.1381V34.1108L2.2369 34.1078V34.0531L2.21564 34.047V34.0045L2.20046 34.0015V33.9559H2.18527L2.16705 33.8526L2.1549 33.8496L2.13667 33.719L2.11845 33.716V33.6583L2.1063 33.6552V33.5945H2.08808V33.5094L2.07289 33.5064L2.05467 33.2999L2.03948 33.2968L2 32.7471L2.01822 32.7501L2.03948 32.2247L2.05467 32.2277V32.1397L2.07289 32.1427V32.0577L2.08808 32.0607L2.10023 31.9331L2.11541 31.9392L2.11238 31.8663L2.1306 31.8693L2.12756 31.8147H2.14579L2.16097 31.7144L2.17312 31.7236V31.678H2.18831V31.6355L2.20653 31.6385V31.5838H2.22172L2.21564 31.5535L2.2369 31.5565L2.26424 31.432L2.27942 31.435L2.29765 31.3834L2.30979 31.3864L2.32194 31.2984L2.3432 31.3075L2.37358 31.2255L2.3918 31.2315V31.1981L2.40091 31.2042L2.4161 31.1343L2.44647 31.1252L2.46166 31.0584L2.4981 31.0463L2.49203 31.0189L2.52544 30.9977V30.9643L2.53759 30.9703V30.943H2.55277V30.9157L2.58314 30.9096L2.61959 30.8245L2.6287 30.8276L2.64389 30.7881L2.6773 30.782V30.7517L2.70767 30.7425V30.7152L2.75626 30.6939L2.77145 30.6362L2.81701 30.6241V30.5907L2.85953 30.5725V30.5421L2.93546 30.4996V30.4722L3.01443 30.4267V30.3993L3.07213 30.369V30.3356L3.17236 30.3021V30.2718L3.27866 30.208L3.29385 30.1807L3.32422 30.1837L3.35763 30.1624L3.35459 30.1321L3.50645 30.0592V30.0318L3.63098 29.9832L3.64617 29.9589L3.67654 29.962L3.70995 29.9255L3.74032 29.9346L3.77069 29.8952L3.8041 29.8982L3.81625 29.8769L3.86181 29.8678V29.8557L3.89218 29.8618L3.9104 29.8344L3.94077 29.8435L3.95596 29.8162L3.98937 29.8223L4.38724 29.5489L4.61807 29.309H4.63629L4.7426 29.2027H4.75778V29.1753L4.81853 29.1298L4.86409 29.1237L4.97342 29.0296L5.42293 28.7107V28.6833L5.44723 28.6469L5.48064 28.6226V28.5922L5.49582 28.5952V28.5679L5.5262 28.5588V28.5315L5.55961 28.5072L5.55353 28.4798L5.5839 28.4707V28.4403L5.61731 28.4343V28.4039L5.64768 28.3674L5.68109 28.3583L5.75702 28.2733L5.84814 28.1761V28.1457L5.88155 28.1518L5.96355 28.1093L5.9757 28.1123V28.085L6.03341 28.0516V28.0364L6.06378 28.0303V28.003L6.16097 27.9453L6.34017 27.7509L6.37054 27.7539L6.46773 27.6719L6.4981 27.678L6.5224 27.596L6.55581 27.6051L6.61959 27.5413L6.64996 27.5474L6.66515 27.5231L6.69856 27.5261L6.72589 27.4897L6.85649 27.3986L6.88686 27.3773L6.90509 27.3682L7.02961 27.2346L7.04176 27.1769L7.05695 27.1799L7.07517 27.1404L7.10554 27.1343V27.104L7.13288 27.0979V27.0675L7.1997 27.0341L7.21185 26.9794L7.24222 26.9703L7.2574 26.9339L7.33637 26.8883V26.861L7.4123 26.8185V26.7881L7.56416 26.6879L7.57935 26.6484L8.16857 26.0409L8.20197 26.0349L8.23235 25.9559L8.26576 25.9438L8.29309 25.8618L8.30828 25.8648L8.32346 25.8253L8.35383 25.8162L8.36902 25.7615L8.41458 25.7433L8.42977 25.6886L8.47532 25.6674V25.64L8.52392 25.6218V25.5884L8.55429 25.5823V25.552L8.63326 25.5094L8.62718 25.4821L8.70919 25.4365V25.4122L9.37434 24.4646L9.39256 24.4343L9.42597 24.4282L9.44115 24.3705L9.47456 24.3644L9.48975 24.3067L9.52012 24.3006V24.2703L9.55049 24.2611L9.54746 24.2308L9.57783 24.2247V24.1943L9.61124 24.1883V24.1609L9.65376 24.1366V24.1123L9.70235 24.088L9.69932 24.0607L9.78132 24.0212V23.9878L9.85725 23.9483V23.921L9.92103 23.8876L9.918 23.8572L9.95141 23.8359L9.98178 23.842" fill="#00B9AD"/>
<path d="M21.7141 23.1709L21.7596 23.0069L21.79 23.0129L21.8356 22.8216L21.8659 22.8064L21.8811 22.77H21.8963L21.9145 22.7305L21.9449 22.7335L22.0087 22.6333L22.0391 22.6394L22.0968 22.5179L22.1302 22.524L22.1909 22.3903L22.2243 22.3964L22.2881 22.2931V22.2476L22.3185 22.2415L22.3154 22.199L22.3428 22.1899L22.361 22.117L22.3762 22.123V22.0927L22.4096 22.0866L22.4248 21.9985L22.4552 22.0076L22.4703 21.9074L22.4977 21.8983L22.5159 21.7859L22.5463 21.7768L22.5615 21.6614L22.5949 21.6553V21.5824L22.604 21.5855V21.5308L22.6404 21.5186L22.6526 21.3486L22.6829 21.3364L22.6799 21.221L22.6951 21.224V21.1815L22.7103 21.1845L22.7285 21.1177L22.7437 21.1208L22.7741 21.1086L22.7893 21.0418L22.8348 21.0357L22.8318 20.9932L22.8621 20.9962L22.8834 20.9264L22.932 20.9233L22.9259 20.8778L22.9563 20.8839L22.9897 20.7897L23.0201 20.7958L23.0383 20.7107L23.0687 20.7168L23.175 20.4769L23.2053 20.483L23.2205 20.3979L23.2509 20.404L23.2691 20.3068L23.2965 20.3129L23.3117 20.1853L23.342 20.1914L23.3876 19.994L23.4058 19.997L23.421 19.8543L23.4483 19.8482L23.4605 19.6477L23.4969 19.6386V19.5809H23.5121L23.5546 19.4898L23.588 19.4959L23.6336 19.4625L23.7126 19.3015L23.7399 19.3076L23.8037 19.1709L23.834 19.18L24.2593 17.9712L24.2775 17.9742L24.2896 17.9438H24.3048V17.9742H24.32V18.0076H24.3352V18.035L24.3504 18.038V18.0684L24.3686 18.0714V18.0987L24.3838 18.1018V18.1322L24.399 18.1352V18.1625L24.4142 18.1656L24.4476 18.2567L24.4628 18.2628L24.7482 18.7548V18.7882L24.809 18.8429V18.8702L24.8576 18.9066V18.934L24.9062 18.9735V19.0038L24.9366 19.0221V19.0524L24.97 19.0707L24.9851 19.1192H25.0003V19.1496L25.0337 19.18V19.2104L25.0489 19.2134V19.2468L25.0823 19.262L25.0975 19.3227L25.1097 19.3288L25.1431 19.4199L25.1613 19.423V19.4685H25.1765L25.1917 19.5262L25.2069 19.5323L25.4802 19.9089V19.9393L25.5561 20.0091V20.0395L25.6199 20.0942V20.1215L25.6655 20.158V20.1853L25.6989 20.2096V20.24L25.7445 20.2764V20.3068L25.7779 20.322L25.793 20.3858L25.8234 20.404L25.8568 20.4951L25.8872 20.5194L25.9024 20.5771L25.9176 20.5801L25.9388 20.6409H25.954V20.6864H25.9692L25.9874 20.7502L25.9996 20.7533L26.0148 20.8262L26.033 20.8292L26.3003 21.2088V21.2392L26.3792 21.3091V21.3364L26.4278 21.3759V21.4032L26.4703 21.4427V21.47L26.5038 21.4883L26.525 21.5369L26.5402 21.5399V21.5672L26.5706 21.5855L26.5858 21.6492L26.6131 21.6675L26.6495 21.7616H26.6647V21.789L26.6799 21.792V21.8254H26.6981V21.8558L26.7133 21.8588L26.7437 21.9499L26.7589 21.953V21.9955L26.7741 21.9985V22.0259L26.7892 22.0289L26.7953 22.0714L26.8105 22.0744V22.1048L26.8257 22.1079V22.1473L26.8409 22.1534V22.1929L26.8561 22.199V22.2415L26.8713 22.2445L26.9654 22.3903L27.0444 22.5057L27.0596 22.5088L27.0778 22.5543L27.1233 22.5938V22.6181L27.1598 22.6424V22.6697L27.2023 22.7062V22.7335L27.2327 22.7548L27.2509 22.8034H27.2661L27.2843 22.8641L27.3177 22.8884V22.9158L27.3481 22.9492V22.9795H27.3663V23.0099L27.3754 23.0129L27.3785 23.0433L27.4119 23.0615V23.1041L27.4271 23.1071V23.1344L27.4422 23.1405L27.4574 23.1982L27.4726 23.2013V23.2468H27.4878V23.2772H27.503L27.5243 23.3561H27.5394V23.3987L27.5546 23.4017L27.7429 23.7388L27.8037 23.7905V23.8239L27.8553 23.8603V23.8877L27.8857 23.9089V23.9363L27.995 24.1155L28.0254 24.1337V24.164L28.0618 24.2005V24.2248L28.077 24.2309V24.2582L28.0952 24.2612V24.2946H28.1104V24.3189L28.1226 24.322L28.156 24.4161L28.1712 24.4222L28.4384 24.7988L28.4719 24.8505H28.487V24.8778L28.5539 24.9294V24.9628L28.5964 25.0023V25.0296L28.648 25.0661V25.0934L28.6784 25.1177V25.1451L28.7088 25.1633L28.727 25.2088L28.7422 25.2119L28.7574 25.2757L28.7877 25.2939L28.8029 25.3546L28.8819 25.5095H28.9062L28.9031 25.5247L28.8545 25.546V25.5581L28.8272 25.5551V25.5703L28.7908 25.5612L28.7665 25.6006L28.7452 25.5976V25.628L28.7361 25.6249L28.7118 25.6492L28.6845 25.6462L28.6693 25.6857L28.6237 25.7221L28.6025 25.7161V25.7343L28.5751 25.7252V25.7404L28.5296 25.7616V25.789L28.4992 25.8011V25.8284L28.4354 25.8618L28.3564 25.9196V25.9469L28.3413 25.9438V25.9742L28.2957 25.9955V26.0076L28.2623 26.0046L28.2471 26.0319L28.1833 26.035L28.0254 26.0775L27.9798 26.1109V26.1261L27.9495 26.12V26.1322L27.9161 26.1261L27.8857 26.1656L27.8553 26.1625L27.8371 26.1838H27.8037L27.7126 26.2628L27.6822 26.2597L27.6336 26.3083L27.588 26.3144L27.5698 26.3539L27.5243 26.3599V26.3903L27.4757 26.4268L27.4635 26.4207V26.4359L27.4149 26.445L27.4028 26.4662L27.3511 26.4602L27.339 26.4875L27.3086 26.4814V26.4966L27.2752 26.4905V26.5027L27.2114 26.4905V26.5057L27.1142 26.5179V26.5331L27.0687 26.524L27.0717 26.5422L27.0413 26.5331L27.0231 26.5604L26.9593 26.5634L26.7953 26.6697L26.5797 26.773L26.2213 26.9492L26.1727 26.9826L25.9874 27.1527L25.9419 27.1861L25.7991 27.2043L25.7687 27.2407L25.626 27.259L25.6108 27.2863H25.547L25.5197 27.3258L25.4863 27.3227L25.4711 27.347L25.4043 27.3501L25.3739 27.3865L25.3132 27.4199L25.2828 27.4139V27.4412L25.2524 27.4351L25.219 27.4776L25.1826 27.4685L25.1886 27.4837L25.1552 27.4776V27.4898L25.1218 27.5019L25.1249 27.5293L25.0945 27.5384V27.5536L25.0307 27.5566L25.0155 27.5779L24.6936 27.6082L24.5113 27.3774L24.4628 27.341L24.4476 27.2984L24.3807 27.2407V27.2134L24.3352 27.1709V27.1496L24.2836 27.1071V27.0798L24.2532 27.0585V27.0281L24.2198 27.0099L24.2046 26.9522L24.1742 26.9279L24.159 26.8702L24.1438 26.8672L24.1287 26.8064L24.1135 26.8003V26.776L24.0952 26.77L24.0679 26.7396L24.0588 26.7366L23.913 26.5422L23.7976 26.4025V26.3842L23.7308 26.3326V26.3083L23.5789 26.1443V26.117L23.5394 26.0653V26.038L23.5091 26.0167V25.9894L23.4696 25.9681V25.9438L23.4423 25.9196V25.8922L23.4119 25.874V25.8436L23.3785 25.8224V25.792H23.3633L23.3451 25.7312L23.3147 25.71L23.2965 25.6492H23.2843L23.2236 25.552L23.2084 25.549V25.5035H23.1962L23.178 25.4397L23.1598 25.4366L22.8621 25.0236V24.9962L22.7862 24.9264V24.896L22.7376 24.8596V24.8292L22.689 24.7927V24.7654L22.6587 24.7472V24.7138L22.6283 24.6956L22.607 24.65L22.5949 24.647L22.5615 24.5528L22.5311 24.5346L22.2152 23.9757L22.197 23.9271L22.0725 23.8057V23.7753L22.0087 23.7237V23.6933L21.9449 23.6386V23.6082L21.9145 23.587L21.8963 23.5414H21.8811V23.5141L21.8508 23.4928V23.4625L21.8173 23.4442V23.4139L21.79 23.3926V23.3683L21.708 23.2529V23.2407L21.7171 23.2438L21.7141 23.1709Z" fill="#B2C23E"/>
<path d="M24.2897 17.8982V17.9164L24.2715 17.8982H24.2897Z" fill="#81BB45"/>
<path d="M21.7084 23.2407H21.6963V23.2346L21.7084 23.2377V23.2407Z" fill="#81BB45"/>
<path d="M21.6327 23.1131V23.0706L21.6175 23.0675V23.0371L21.6023 23.0341V23.0068L21.572 22.9855V22.9582L21.4899 22.8823V22.8671L21.4444 22.8458V22.8154L21.411 22.8124L21.3958 22.7699L21.2834 22.6575V22.6271L21.2227 22.5725V22.5451L21.1559 22.4905V22.4601L21.1103 22.4206V22.3902H21.0921L21.0769 22.3447L21.0283 22.3082L21.001 22.2171L20.9645 22.1928V22.1655L20.9341 22.1321V22.0987H20.919V22.0652H20.9007V22.0379L20.8855 22.0349V22.0045L20.8673 22.0015V21.9741L20.8552 21.9681L20.8218 21.8769L20.8066 21.8739V21.8314L20.7884 21.8283V21.801L20.7701 21.7919L20.594 21.5459V21.5185L20.5666 21.4973V21.4821L20.5363 21.476L20.518 21.4457L20.4694 21.4092V21.3758L20.4026 21.3242V21.2908L20.3388 21.2391V21.2088L20.3115 21.1905L20.2933 21.1298L20.2599 21.1085V21.0782L20.2295 21.0569L20.1991 20.9658L20.1657 20.9445L20.1475 20.8838L20.1141 20.8625V20.82L20.1019 20.817V20.7896L20.0837 20.7866V20.7562L20.0685 20.7532V20.7258L20.0564 20.7198L20.0199 20.6286L20.0048 20.6256V20.5831L19.9896 20.5801V20.5497L19.9713 20.5466L19.7314 20.1397V20.1154L19.6524 20.0425V20.0091L19.5887 19.9574L19.5735 19.9088L19.5431 19.8876L19.5218 19.8299L19.4763 19.7904L19.4429 19.6962L19.4125 19.678V19.6507L19.3821 19.6112V19.5869L19.3609 19.5808V19.5504H19.3518V19.5231L19.3366 19.517V19.4897L19.3183 19.4867L19.2849 19.3925L19.2667 19.3895L19.2515 19.2984H19.2363L19.2212 19.2649L19.206 19.2163L19.1057 19.025L19.0571 18.946L19.0268 18.943V18.9278L18.9812 18.8883V18.858L18.9448 18.8367V18.8094L18.8962 18.7699V18.7456L18.8688 18.7395L18.8506 18.6909L18.8354 18.6879L18.8202 18.6423L18.7868 18.6211L18.7686 18.5603L18.7261 18.5208L18.6957 18.4297L18.6593 18.4084V18.3811L18.6259 18.3447V18.3173H18.6137V18.2839H18.5985V18.2536L18.5803 18.2475L18.5773 18.2171H18.5651V18.1898L18.5499 18.1867L18.5135 18.0926H18.4983V18.0501L18.4831 18.044V18.0015L18.4679 17.9984V17.9529H18.4497V17.9073H18.4345V17.8648L18.4193 17.8587V17.8162L18.4072 17.8101L18.4011 17.7676L18.389 17.7646L18.3829 17.7099L18.3677 17.7038V17.6461L18.3525 17.6431L18.3495 17.5884L18.3373 17.5854L18.3191 17.4092L18.3009 17.4031L18.2827 17.1085H18.2705L18.2796 16.7775L18.2978 16.7805L18.3221 16.495L18.474 16.0485H18.4892L18.5226 15.9665L18.5378 15.9696V15.9422L18.553 15.9453V15.9149L18.5682 15.9179V15.8936H18.5864V15.8663H18.6016V15.839L18.6319 15.8147L18.6259 15.7843L18.6593 15.7722L18.6957 15.6962L18.7382 15.675L18.7504 15.6203L18.7838 15.6112L18.799 15.5717H18.8172L18.8324 15.5322L18.8658 15.5413L18.8962 15.4867L18.9053 15.4897V15.4593L18.9843 15.3895L19.0177 15.3955V15.3773L19.048 15.3712V15.3409L19.0966 15.3378V15.3075L19.1574 15.2923L19.2363 15.2163L19.2637 15.2224V15.2103L19.3457 15.1799L19.3426 15.1526L19.3882 15.1435V15.1313L19.4398 15.1252L19.4489 15.1009L19.5158 15.0949L19.5492 15.0614L19.6403 15.0463L19.6585 15.0189L19.6858 15.028L19.7193 15.0037L19.7527 15.0098V14.9946L19.783 15.0007V14.9855L19.8134 14.9916L19.8286 14.9673L19.8924 14.9612V14.9521L19.9805 14.9369V14.9217L20.0321 14.9308L20.9767 14.9187L21.4808 15.028V15.0372L21.6509 15.0857L22.0154 15.2558L22.1095 15.2862V15.3014L22.1399 15.3075V15.3226L22.2827 15.3925L22.2978 15.4259L22.3282 15.432L22.3616 15.4654L22.395 15.4715V15.4867L22.4254 15.4897L22.4436 15.5231L22.474 15.5292V15.5444L22.5013 15.5474L22.5408 15.5869L22.5682 15.5899V15.6051L22.6168 15.6264L22.6319 15.6598L22.7291 15.7053L22.7443 15.7387L22.7929 15.76V15.7722L22.8354 15.7995V15.8238L22.9144 15.8876V15.8997L22.9508 15.9058L23.0298 16.006L23.0936 16.0485V16.0759L23.124 16.082L23.1392 16.1275L23.2515 16.2368V16.2672L23.2971 16.3037V16.331L23.3457 16.3705V16.3978L23.3791 16.4191L23.3943 16.4677L23.4581 16.5193V16.5497L23.5097 16.5892L23.5401 16.6803L23.5704 16.7015V16.7319L23.6038 16.7653V16.7927L23.616 16.7957V16.8261L23.6342 16.8291V16.8564L23.6524 16.8625V16.8898L23.6646 16.8929V16.9233H23.6859L23.7314 17.0204L24.0199 17.5216V17.5489L24.0351 17.555L24.0685 17.6036L24.1171 17.64V17.6704L24.1475 17.6917V17.722L24.1961 17.7555L24.2113 17.8192L24.2568 17.8557L24.272 17.8921V17.8982L24.2903 17.9164V17.9438L24.2781 17.9741L24.2599 17.9711L23.8347 19.1799L23.8043 19.1708L23.7405 19.3075L23.7132 19.3014L23.6342 19.4624L23.449 19.8481L23.4216 19.8542L23.4064 19.9969L23.3882 19.9939L23.3426 20.1913L23.3123 20.1852L23.2971 20.3128L23.2698 20.3067L23.2515 20.4039L23.2212 20.3978L23.206 20.4829L23.1756 20.4768L23.0693 20.7167L23.0389 20.7106L23.0207 20.7957L22.9903 20.7896L22.9569 20.8838L22.9326 20.9233L22.8628 20.9961L22.8354 21.0356L22.6836 21.3363L22.6411 21.5185L22.6046 21.5307V21.5854L22.5955 21.5823V21.6552L22.5621 21.6613L22.5469 21.7767L22.5165 21.7858L22.4983 21.8982L22.471 21.9073L22.4558 22.0075L22.4254 21.9984L22.4102 22.0865L22.3768 22.0926V22.123L22.3616 22.1169L22.3434 22.1898L22.3161 22.1989L22.3191 22.2414L22.2887 22.2475V22.293L22.225 22.3963L22.1915 22.3902L22.1308 22.5239L22.0974 22.5178L22.0397 22.6393L21.7906 23.0129L21.7147 23.1708L21.7177 23.2437L21.7086 23.2406V23.2376L21.6965 23.2346L21.6509 23.1161L21.6327 23.1131Z" fill="#009194"/>
<path d="M34.3093 29.4213L34.3185 29.4365L34.2942 29.4304L34.2881 29.4122L34.3093 29.4092V29.4213Z" fill="#81BB45"/>
<path d="M37.3169 24.8292L37.3321 24.8322V24.8656L37.2744 24.7927L37.3169 24.8292Z" fill="#81BB45"/>
<path d="M34.2252 29.3455L34.213 29.2847L34.1644 29.2483L34.1492 29.1723L34.134 29.1693L34.0672 29.0691L33.8637 28.9294V28.899L33.8151 28.8777L33.8 28.8443L33.7635 28.8413L33.7179 28.7745L33.6845 28.7684L33.6086 28.6773L33.5722 28.6287L33.5448 28.6226L33.4932 28.5406L33.4628 28.5376L33.3839 28.4222L33.3656 28.4161V28.3857L33.2684 28.2976V28.2703L33.2411 28.246V28.2156L33.2077 28.1974V28.1701L33.1439 28.1397L33.0285 27.8906L33.0012 27.8815L32.8645 27.5839L32.8341 27.5596V27.5323L32.8189 27.5292L32.8037 27.4381L32.7855 27.4351V27.3925L32.7703 27.3895V27.347L32.7552 27.3439V27.3014L32.74 27.2984L32.7369 27.2376H32.7248L32.7035 27.1435L32.6883 27.1405V27.1131L32.6731 27.107V27.0524L32.658 27.0493L32.6549 26.9613L32.6397 26.9582L32.6367 26.8823H32.6246L32.6215 26.7638L32.6063 26.7608L32.3725 25.9651L32.3573 25.8162L32.3421 25.8132V25.7828H32.3269L32.3239 25.6796L32.2905 25.6553V25.5004L32.2571 25.4821L32.251 25.0235L32.2844 25.0205V24.8534L32.3148 24.8626L32.3269 24.7228H32.3421V24.6651L32.3573 24.6682V24.5922L32.3877 24.5862V24.5285L32.4211 24.5224L32.4362 24.4222L32.4697 24.4282L32.5091 24.2733L32.5425 24.2794V24.2369L32.5729 24.243L32.7005 24.0486L32.7309 24.0547L32.7794 23.9605L32.8098 23.9666V23.9362L32.8402 23.9392L32.9192 23.839L32.9465 23.8451V23.8147L33.0012 23.8269L33.0467 23.7904L33.0406 23.7631L33.0741 23.7692V23.7388L33.1044 23.7449L33.1378 23.7084L33.1652 23.7115L33.1834 23.6872L33.229 23.678V23.6507L33.3079 23.6082L33.4507 23.59V23.5626L33.6086 23.5505V23.5171L33.7483 23.4988L33.8 23.511V23.4958L33.8303 23.4988V23.4837L33.888 23.4958L33.9093 23.4715L34.0794 23.4897L34.0915 23.4624L34.2373 23.4897L34.2555 23.4624L34.5046 23.511L34.541 23.4988L34.9632 23.596V23.6264L35.3155 23.7327V23.7631L35.3945 23.7752V23.8056L35.6526 23.8846L36.2722 24.2187L36.3785 24.2794V24.2946L36.4423 24.3067L36.4575 24.3341L36.5213 24.3493V24.3645L36.5668 24.3736V24.3857L36.6185 24.3948V24.413L36.6823 24.4222V24.4373L36.904 24.5345V24.5649L37.2168 24.7411V24.7684L37.2745 24.7927L37.3322 24.8656V24.8747L37.3656 24.8838L37.3808 24.9597H37.399V25.0205L37.4112 25.0235V25.0478L37.4325 25.0539V25.0995H37.4476V25.1632H37.4628V25.1906L37.478 25.1936V25.2665L37.5114 25.2847L37.5145 25.391L37.5448 25.4123V25.5459L37.5752 25.5581L37.5782 25.8071L37.6147 26.0076L37.5995 25.9985V26.0592L37.5843 26.0562V26.3083L37.5539 26.3143V26.4449L37.5266 26.451V26.5543L37.4932 26.5634V26.6393L37.478 26.6363V26.6636L37.4628 26.6606V26.7183L37.4507 26.7152V26.7456L37.4355 26.7426L37.4173 26.8428L37.4021 26.8367L37.3899 26.9066L37.3565 26.9036V26.9613L37.3261 26.9552V27.0129L37.2927 27.0068L37.2654 27.104L37.232 27.0979L37.2047 27.1769L37.1561 27.1982V27.2437L37.0923 27.3197L37.0589 27.3136L37.0619 27.3409L37.0315 27.3379V27.3682L37.0042 27.3591L36.8888 27.4988L36.8584 27.4958V27.5231L36.7157 27.5839V27.6112L36.6215 27.6386V27.6689L36.3573 27.8663L36.3239 27.8603L36.3269 27.9058L36.2965 27.9119V27.9423L36.2449 27.9635V27.9878L36.1963 28.0121V28.0395L36.1386 28.0729L36.1082 28.1093V28.1397L36.0779 28.1336L36.0141 28.1944L35.9989 28.1913V28.2217L35.9503 28.2399L35.9351 28.2673L35.9047 28.2612L35.4036 28.6317L35.3884 28.6287L35.3732 28.6712L35.3429 28.6803V28.7077L35.3125 28.7168V28.7471L35.2791 28.7562V28.7836L35.2305 28.8048V28.8383L35.1849 28.8534L35.1697 28.896L35.106 28.9294L35.0118 28.9992L35.0148 29.0266L34.9632 29.0357L34.8721 29.1207L34.8417 29.1116L34.8235 29.1389L34.7931 29.1298L34.7506 29.1815L34.699 29.1875L34.6807 29.2149L34.6564 29.2088L34.6352 29.2331L34.6078 29.2301L34.5927 29.2543L34.5623 29.2483V29.2635L34.5167 29.2695L34.4985 29.2969L34.4651 29.2908L34.4347 29.3272L34.4044 29.3212L34.3193 29.4062L34.3254 29.4366H34.3193L34.3102 29.4214V29.4092L34.2889 29.4123L34.2464 29.3485L34.2252 29.3455Z" fill="#59B35A"/>
<path d="M24.6906 27.6142L24.6846 27.6082H24.6937L24.6998 27.6142H24.6906Z" fill="#81BB45"/>
<path d="M25.0316 27.5566L25.0954 27.5536V27.5384L25.1257 27.5293L25.1227 27.5019L25.1561 27.4898V27.4776L25.1895 27.4837L25.1834 27.4685L25.2199 27.4776L25.2533 27.4351L25.2837 27.4412V27.4138L25.314 27.4199L25.3748 27.3865L25.4051 27.3501L25.472 27.347L25.4872 27.3227L25.5206 27.3258L25.5479 27.2863H25.6117L25.6269 27.259L25.7696 27.2407L25.8 27.2043L25.9427 27.1861L25.9883 27.1526L26.1736 26.9826L26.2222 26.9492L26.5046 26.7821L26.5563 26.7912V26.7639L26.7719 26.6606L26.9602 26.5634L27.024 26.5604L27.0422 26.5331L27.0726 26.5422L27.0695 26.5239L27.1151 26.5331V26.5179L27.2123 26.5057V26.4905L27.2761 26.5027V26.4905L27.3095 26.4966V26.4814L27.3399 26.4875L27.352 26.4602L27.4036 26.4662L27.4158 26.445L27.4644 26.4359V26.4207L27.4765 26.4268L27.5251 26.3903V26.3599L27.5707 26.3539L27.5889 26.3144L27.6345 26.3083L27.6831 26.2597L27.7134 26.2627L27.8045 26.1838H27.838L27.8562 26.1625L27.8865 26.1656L27.9169 26.1261L27.9503 26.1321V26.12L27.9807 26.1261V26.1109L28.0263 26.0775L28.1842 26.035L28.4363 25.8618L28.5001 25.8284V25.8011L28.5304 25.7889V25.7616L28.576 25.7403V25.7252L28.6033 25.7343V25.7161L28.6246 25.7221L28.6701 25.6857L28.6853 25.6462L28.7127 25.6492L28.737 25.6249L28.7461 25.628V25.5976L28.7673 25.6006L28.7916 25.5612L28.8281 25.5703V25.5551L28.8554 25.5581V25.546L28.904 25.5247L28.907 25.5095H28.9192V25.5126V25.546L28.986 25.5855V25.6128L29.1105 25.71V25.7403L29.144 25.7434V25.7738L29.1774 25.7829V25.8072L29.2077 25.8163L29.2108 25.8436L29.2411 25.8527L29.3171 25.9803L29.3505 25.9864L29.3869 26.0623L29.4203 26.0744V26.0987L29.4477 26.1048L29.56 26.284L29.7878 26.5331V26.5634L29.8486 26.5877V26.6151L29.9275 26.6606V26.688L29.9579 26.694V26.7244L29.9913 26.7305L29.9944 26.7608L30.0733 26.8459L30.1067 26.852V26.8823L30.1371 26.8884V26.9157L30.1675 26.9218L30.2799 27.1041L30.3133 27.1071V27.1405L30.3436 27.1435V27.1861L30.374 27.1952L30.7901 27.6629V27.6933L30.8235 27.6993L30.8721 27.7783L30.9025 27.7844L30.9055 27.8178L30.9359 27.8239L30.9845 27.9028L31.0149 27.9059V27.9393L31.0452 27.9423L31.0969 28.0547L31.1303 28.0608V28.0942L31.1607 28.0972L31.2092 28.2035L31.2396 28.2126V28.2552L31.27 28.2612L31.2882 28.3068L31.3034 28.3098L31.3216 28.3858L31.352 28.407V28.4374L31.3854 28.4586V28.5012L31.4188 28.5194L31.434 28.6135L31.4674 28.6287V28.6925H31.4796L31.4978 28.7684L31.5312 28.7745L31.5494 28.9233L31.5646 28.9294V28.9567H31.5798V29.0448L31.6132 29.0661L31.6952 29.3455L31.7286 29.3485L31.759 29.4731L31.7894 29.4761L31.8106 29.5824L31.841 29.5885L31.8592 29.7373L31.8896 29.7464L31.9412 30.2597H31.926L31.9321 30.4905L31.9139 30.4875V30.5908L31.8987 30.5877V30.6758L31.8714 30.6819L31.8592 30.7973L31.8258 30.7912L31.7499 31.022L31.7134 31.016L31.595 31.2316L31.5616 31.2377L31.5433 31.2347L31.5464 31.2772L31.513 31.2741V31.2893L31.4522 31.3227L31.4036 31.3531L31.4097 31.3987L31.2943 31.4321V31.4594L31.2882 31.4564L31.2821 31.4624H31.2791L31.2518 31.4776H31.2396L31.2123 31.4989L31.1819 31.4959V31.508L31.1485 31.5019V31.5171L31.1181 31.511L31.1029 31.5384L31.0088 31.5505L30.9906 31.5748L30.9632 31.5687L30.9481 31.5961L30.866 31.6416L30.8235 31.6386V31.669L30.5411 31.6872V31.7145L30.2373 31.6902V31.7054L30.207 31.6993V31.7115L30.0035 31.6781L29.4355 31.511V31.4807L29.308 31.4473L29.2928 31.4138L29.2563 31.4078V31.3896L29.1774 31.3774V31.3592L29.1288 31.3531V31.3379L28.9739 31.3136L28.9587 31.2802L28.7825 31.2468L28.7673 31.2164L28.655 31.1921V31.18L28.5942 31.1678V31.1526L28.5487 31.1435V31.1284L28.4636 31.1162L28.4484 31.0828L28.3695 31.0646V31.0403L28.3057 31.0251L28.2905 30.9947L28.1812 30.9613V30.9309L28.1143 30.9188V30.8884L28.0506 30.8641V30.852L28.002 30.8368V30.8246L27.926 30.7821V30.7517L27.8744 30.7426V30.7153L27.6223 30.4905L27.5919 30.4875V30.4571L27.5099 30.3691L27.4765 30.366V30.3356L27.4492 30.3296V30.3022L27.1424 30.0562L27.0787 30.0107L27.0665 29.9833L27.0331 29.9742V29.9621L26.9997 29.956V29.9438L26.9359 29.8892L26.7263 29.7464V29.7191L26.699 29.713V29.6796L26.6504 29.6735V29.6432L26.614 29.6371V29.6097L26.4439 29.4184L26.4105 29.4123V29.382L26.1037 29.0661V29.0357L26.046 29.0236V28.9962L25.9944 28.9689V28.9567L25.964 28.9507L25.9458 28.9203L25.9002 28.9082L25.882 28.8778L25.7727 28.814V28.7836L25.7423 28.7776V28.7472L25.6603 28.7047V28.6773L25.6299 28.6682L25.6269 28.6378L25.4993 28.5437V28.5133L25.4659 28.5103L25.39 28.3797L25.3566 28.3706V28.3432L25.3262 28.3372L25.2897 28.2582L25.2594 28.2521V28.2248L25.229 28.2157V28.1762L25.1986 28.1519V28.1246L25.1834 28.1215L25.15 28.0426L25.1136 28.0365V27.994L25.0832 27.9848L25.0346 27.9362L25.0194 27.9028V27.8907L24.9739 27.8785V27.8482L24.8433 27.7692V27.7419L24.7187 27.6568V27.6295L24.6914 27.6143H24.7005L24.6944 27.6082L25.0164 27.5779L25.0316 27.5566Z" fill="#5CA038"/>
</g>
<defs>
<clipPath id="clip0_969_26839">
<rect width="44" height="27.3349" fill="white" transform="translate(2 10.3325)"/>
</clipPath>
</defs>
</svg>
