<svg width="48" height="48" viewBox="0 0 48 48" fill="none" xmlns="http://www.w3.org/2000/svg">
<g clip-path="url(#clip0_969_26781)">
<path d="M43.3404 19.6677H44.4741C44.51 19.6677 44.5443 19.6534 44.5696 19.6281C44.5949 19.6028 44.6092 19.5685 44.6092 19.5327V17.3952C44.6092 17.3776 44.6057 17.3601 44.5988 17.3439C44.592 17.3277 44.582 17.3129 44.5695 17.3006C44.5569 17.2883 44.542 17.2786 44.5256 17.2721C44.5093 17.2656 44.4918 17.2624 44.4741 17.2627H42.8819C41.0399 17.2627 40.0642 17.8512 39.5063 19.1021L36.0441 27.5831C35.9744 27.8169 35.8259 28.0192 35.6239 28.1558C35.4218 28.2923 35.1787 28.3547 34.9358 28.3321V17.3952C34.9358 17.3776 34.9323 17.3601 34.9255 17.3439C34.9187 17.3277 34.9087 17.3129 34.8961 17.3006C34.8836 17.2883 34.8687 17.2786 34.8523 17.2721C34.8359 17.2656 34.8184 17.2624 34.8008 17.2627H32.2532C32.2356 17.2624 32.2181 17.2656 32.2017 17.2721C32.1853 17.2786 32.1704 17.2883 32.1579 17.3006C32.1453 17.3129 32.1353 17.3277 32.1285 17.3439C32.1217 17.3601 32.1182 17.3776 32.1182 17.3952V30.5027C32.1188 30.5651 32.1441 30.6247 32.1885 30.6686C32.2328 30.7125 32.2927 30.7371 32.3551 30.7371H35.211C37.0504 30.7371 37.8936 30.1486 38.449 28.8977L41.8679 20.5211C42.1431 19.9275 42.5379 19.6677 43.3404 19.6677Z" fill="#D71920"/>
<path d="M12.2389 24.0012C13.258 23.5757 14.1038 22.6203 14.1038 21.0408C14.1038 18.6894 12.0861 17.2627 9.65309 17.2627H2.1325C2.09737 17.2627 2.06367 17.2767 2.03883 17.3015C2.01398 17.3263 2.00002 17.36 2.00002 17.3952V19.5326C1.99969 19.5502 2.00286 19.5677 2.00937 19.5841C2.01587 19.6005 2.02558 19.6154 2.03791 19.628C2.05025 19.6405 2.06497 19.6505 2.08121 19.6573C2.09745 19.6641 2.11489 19.6677 2.1325 19.6677H9.13337C10.262 19.6677 11.0263 20.3581 11.0263 21.1962C11.0263 22.0344 10.262 22.7375 9.13337 22.7375H4.9731V21.1555C4.97345 21.1376 4.97019 21.1199 4.96353 21.1034C4.95687 21.0868 4.94693 21.0718 4.93433 21.0592C4.92172 21.0466 4.90669 21.0367 4.89016 21.03C4.87362 21.0233 4.8559 21.0201 4.83808 21.0204H2.1325C2.11489 21.0204 2.09745 21.0239 2.08121 21.0308C2.06497 21.0376 2.05025 21.0476 2.03791 21.0601C2.02558 21.0727 2.01587 21.0876 2.00937 21.104C2.00286 21.1204 1.99969 21.1379 2.00002 21.1555V30.5995C2.00002 30.6346 2.01398 30.6683 2.03883 30.6932C2.06367 30.718 2.09737 30.732 2.1325 30.732H9.54608C12.3179 30.732 14.3025 29.4403 14.3025 26.8035C14.3082 26.176 14.1101 25.5636 13.738 25.0583C13.3659 24.553 12.8398 24.182 12.2389 24.0012ZM9.27859 28.3907H4.9731V25.2317H9.27859C10.4352 25.2317 11.2199 25.9399 11.2199 26.8112C11.2199 27.6825 10.4352 28.3907 9.27859 28.3907Z" fill="#D71920"/>
<path d="M45.9746 30.5818L41.6105 25.0025C41.6087 24.9993 41.6061 24.9966 41.603 24.9948C41.5998 24.9929 41.5963 24.9919 41.5926 24.9919C41.589 24.9919 41.5854 24.9929 41.5823 24.9948C41.5792 24.9966 41.5766 24.9993 41.5748 25.0025L40.4003 27.8762C40.3959 27.8844 40.3936 27.8936 40.3936 27.9029C40.3936 27.9123 40.3959 27.9215 40.4003 27.9297L42.3085 30.4773C42.3637 30.5607 42.4398 30.6281 42.5292 30.6728C42.6186 30.7175 42.7182 30.738 42.818 30.7321H45.8905C45.909 30.735 45.928 30.7322 45.945 30.724C45.9619 30.7159 45.9758 30.7027 45.985 30.6863C45.9942 30.6699 45.9981 30.6511 45.9962 30.6324C45.9944 30.6137 45.9868 30.596 45.9746 30.5818Z" fill="#D71920"/>
<path d="M19.0791 21.0254H16.5315C16.4957 21.0254 16.4614 21.0396 16.436 21.0649C16.4107 21.0903 16.3965 21.1246 16.3965 21.1604V30.6045C16.3965 30.6221 16.4 30.6395 16.4068 30.6557C16.4136 30.672 16.4236 30.6867 16.4362 30.699C16.4488 30.7114 16.4637 30.7211 16.48 30.7276C16.4964 30.7341 16.5139 30.7373 16.5315 30.7369H19.0791C19.1145 30.7369 19.1485 30.7231 19.1737 30.6983C19.199 30.6735 19.2135 30.6398 19.2142 30.6045V21.1553C19.2128 21.1204 19.198 21.0874 19.1728 21.0631C19.1477 21.0389 19.1141 21.0254 19.0791 21.0254Z" fill="#D71920"/>
<path d="M29.563 17.2627H27.0154C26.998 17.2627 26.9807 17.2661 26.9647 17.2728C26.9486 17.2795 26.934 17.2892 26.9217 17.3015C26.9094 17.3138 26.8996 17.3284 26.893 17.3445C26.8863 17.3606 26.8829 17.3778 26.8829 17.3952V28.3321C26.64 28.3547 26.3969 28.2923 26.1949 28.1558C25.9928 28.0192 25.8443 27.8169 25.7747 27.5831L22.3074 19.1021C21.752 17.8512 20.7788 17.2627 18.9343 17.2627H16.5344C16.5168 17.2624 16.4993 17.2656 16.483 17.2721C16.4666 17.2786 16.4517 17.2883 16.4391 17.3006C16.4265 17.3129 16.4166 17.3277 16.4097 17.3439C16.4029 17.3601 16.3994 17.3776 16.3994 17.3952V19.5327C16.3994 19.5685 16.4136 19.6028 16.439 19.6281C16.4643 19.6534 16.4986 19.6677 16.5344 19.6677H18.4732C19.2782 19.6677 19.6706 19.9224 19.9457 20.5211L23.3646 28.8977C23.9225 30.1486 24.7633 30.7371 26.6052 30.7371H29.4585C29.5209 30.7371 29.5808 30.7125 29.6252 30.6686C29.6695 30.6247 29.6948 30.5651 29.6955 30.5027V17.3952C29.6955 17.3601 29.6815 17.3264 29.6567 17.3015C29.6318 17.2767 29.5981 17.2627 29.563 17.2627Z" fill="#D71920"/>
</g>
<defs>
<clipPath id="clip0_969_26781">
<rect width="44" height="13.4744" fill="white" transform="translate(2 17.2627)"/>
</clipPath>
</defs>
</svg>
