<svg width="48" height="48" viewBox="0 0 48 48" fill="none" xmlns="http://www.w3.org/2000/svg">
<g clip-path="url(#clip0_969_26778)">
<path d="M41.796 27.4258C39.857 32.2546 36.5943 33.6249 36.5943 33.6249C46.1867 23.9114 40.3231 12.7063 40.3231 12.7063C38.9062 10.1986 40.7054 9.10798 40.7054 9.10798C36.585 10.1334 37.9087 13.5453 37.9087 13.5453C39.5275 17.127 39.8569 21.1585 38.841 24.9554L37.4893 24.2004C37.4893 24.2004 40.7054 11.5317 27.5893 7.08508V4.69864H24.7927V20.4063L37.6664 27.7427C37.424 28.2181 37.1816 28.6749 36.9206 29.0851L23.991 21.6275L11.0147 29.0851C10.7437 28.6505 10.4948 28.2024 10.2689 27.7427L23.1426 20.4063V4.66138H20.346V7.04782C7.22993 11.4944 10.446 24.1631 10.446 24.1631L9.08502 24.9181C8.0745 21.1207 8.40372 17.091 10.0172 13.508C10.0172 13.508 11.3037 10.0961 7.22061 9.07068C7.22061 9.07068 9.01977 10.1614 7.60282 12.669C7.60282 12.669 1.74858 23.8554 11.3316 33.5876C11.3316 33.5876 8.07824 32.2173 6.12993 27.3885C5.73926 26.6562 5.11544 26.0752 4.35729 25.7375C3.59914 25.3998 2.74999 25.3247 1.94434 25.5241C2.41561 25.8235 2.82298 26.2133 3.14296 26.6708C3.46294 27.1284 3.68921 27.6448 3.80874 28.1902C3.80874 28.1902 6.60536 37.0461 17.335 38.3978V43.2826H22.6206V36.0766C18.8406 35.8295 15.3028 34.1291 12.7486 31.3317L14.0723 30.558C16.7949 33.0044 20.271 34.4481 23.9257 34.6503H24.0282C27.6817 34.4429 31.1562 32.9999 33.8816 30.558L35.2054 31.3317C32.6511 34.1291 29.1134 35.8295 25.3333 36.0766V43.2826H30.6096V38.3978C41.3579 37.0461 44.1452 28.1902 44.1452 28.1902C44.2647 27.6448 44.491 27.1284 44.811 26.6708C45.131 26.2133 45.5383 25.8235 46.0096 25.5241C45.1959 25.3326 44.3417 25.4152 43.5797 25.7591C42.8178 26.103 42.1908 26.6889 41.796 27.4258ZM34.9257 22.7647L27.6545 18.719V10.0308C27.6545 10.0308 36.4079 12.3893 34.9257 22.7461V22.7647ZM20.2994 10.0029V18.691L13.0376 22.7647C11.5833 12.3893 20.2994 10.0029 20.2994 10.0029ZM24.0282 24.8436L31.2621 29.0851H31.1969C29.2095 30.8382 26.6504 31.8056 24.0003 31.8056C21.3501 31.8056 18.7911 30.8382 16.8037 29.0851H16.7384L24.0282 24.8436Z" fill="#0056A7"/>
</g>
<defs>
<clipPath id="clip0_969_26778">
<rect width="44" height="38.6771" fill="white" transform="translate(2 4.66138)"/>
</clipPath>
</defs>
</svg>
