<svg width="48" height="48" viewBox="0 0 48 48" fill="none" xmlns="http://www.w3.org/2000/svg">
<path d="M45.2397 24.4236L44.8623 24.1627C44.1241 23.4368 43.2476 22.8949 42.2947 22.5755C41.3417 22.2561 40.3355 22.1669 39.3472 22.3142C37.6267 22.4679 35.9689 23.0838 34.5242 24.106V24.0153C34.5377 23.3023 34.5867 22.5906 34.6709 21.8832C34.7339 21.1461 34.8072 20.4089 34.8072 19.7058C34.8295 19.0326 34.7261 18.3615 34.5032 17.7325C34.4765 17.6581 34.4286 17.5948 34.3663 17.552C34.3041 17.5091 34.2308 17.4889 34.1572 17.4943C33.3704 17.5744 32.6105 17.8458 31.9344 18.2882L31.7666 18.6738C31.7638 19.753 31.6548 20.8289 31.4416 21.8832C31.4184 21.9756 31.3904 22.0664 31.3577 22.1554C31.0958 24.8698 31.0958 27.6064 31.3577 30.3208C31.3577 30.5476 31.8086 30.8992 32.1231 31.0353C32.8435 31.0544 33.5591 30.9034 34.2201 30.593H34.4612C34.5093 30.5861 34.5556 30.5688 34.5973 30.542C34.639 30.5152 34.6751 30.4794 34.7036 30.437C34.732 30.3945 34.7522 30.3462 34.7628 30.295C34.7734 30.2439 34.7743 30.1909 34.7653 30.1393V29.4702C35.0522 28.3061 35.623 27.2467 36.4179 26.4028C37.2129 25.5589 38.2028 24.9615 39.2843 24.6731C39.8248 24.5465 40.3866 24.5763 40.9131 24.7595C41.4396 24.9426 41.9121 25.2727 42.283 25.7164C42.5231 26.8439 42.3462 28.0282 41.7902 29.0166C41.007 30.4035 39.7908 31.4413 38.3616 31.9425C36.6822 32.5898 34.8984 32.8599 33.1192 32.7364C33.0248 32.6797 31.1795 31.3301 31.1795 31.3301C29.4737 29.921 27.6231 28.7298 25.6644 27.7805C25.2143 27.5088 24.7925 27.1856 24.4062 26.8165L24.228 26.6464C23.1795 25.7164 21.1349 24.2648 19.5098 23.0967L18.6395 22.4503V22.2575C18.6395 22.2008 19.688 21.543 19.688 21.543C20.4854 21.1171 21.2318 20.5877 21.9108 19.9666L22.11 19.8419L25.6539 17.6644C29.051 15.6458 32.9095 13.3549 34.9331 11.0868L35.0274 10.7352V10.429C35.1476 10.0117 35.1476 9.5648 35.0274 9.14751C35.0142 9.07466 34.9812 9.0077 34.9326 8.95519C34.8841 8.90268 34.8222 8.86699 34.7548 8.85264C33.1716 8.68253 31.1375 9.70321 29.2817 11.5858C28.9385 11.9276 28.554 12.2175 28.1389 12.4477L27.8558 12.6064C25.7588 13.8653 21.1979 16.9613 18.7863 18.6398C19.0143 15.2375 19.4239 11.8522 20.0131 8.50108L19.9501 8.10414L19.6985 7.60515L19.5098 7.24223C19.1467 7.05072 18.7284 7.02221 18.346 7.16287L17.8637 7.35565L17.2241 7.60515C17.1631 7.61916 17.1063 7.64928 17.0588 7.69281C17.0112 7.73635 16.9743 7.79195 16.9515 7.85465C15.6454 11.6891 14.8579 15.7073 14.6133 19.7852C12.8456 18.5854 11.0185 17.4913 9.14022 16.5077H9.0144C8.55522 16.3839 8.12142 16.1685 7.73524 15.8726L6.86499 15.2602L5.52293 14.3302L5.16644 14.2395C4.38456 14.5069 3.6897 15.0106 3.16382 15.6911C3.1238 15.7631 3.1021 15.8453 3.10092 15.9293C3.11074 16.0448 3.13182 16.1588 3.16382 16.2695L3.22674 16.5644L3.28965 16.7458C4.47876 17.8245 5.78503 18.7423 7.17954 19.479L9.0144 20.5337L11.8348 22.1894L12.3171 22.609L12.6422 22.8132H12.7051C11.9502 23.3462 7.58845 26.5103 7.58845 26.5103L4.84141 28.5516C4.33796 28.8501 3.81995 29.1189 3.28965 29.3568C2.77966 29.55 2.34898 29.9315 2.07339 30.4342L2 30.6043L2.07339 30.7177L2.2831 30.8878L2.5557 31.0806L2.85976 31.2961L3.13237 31.3528C4.00517 31.2248 4.84804 30.9209 5.61729 30.4569C6.82306 29.8785 10.0943 27.7464 11.4993 26.8391L12.097 26.4422C12.3814 26.4006 12.6459 26.2615 12.8519 26.0453C13.2474 25.729 13.6685 25.4519 14.1101 25.2174C14.1101 25.2174 14.3407 25.0813 14.5399 24.9679V25.1494C14.5155 28.6978 14.7751 32.2418 15.3158 35.7417V35.8551C15.6397 36.6324 15.8824 37.4464 16.0393 38.282L16.5635 40.21L16.7208 40.3914C17.2777 40.7523 17.917 40.937 18.5661 40.9244H18.7234L18.8178 40.6863C18.8696 40.3949 18.8942 40.0985 18.8912 39.8017C18.8912 39.4502 18.8912 39.0646 18.8912 38.5882V37.8964C18.692 34.6643 18.5032 29.9579 18.5032 26.8959V26.6464L21.2293 28.5063C25.0039 31.1487 30.6657 35.1633 34.1572 36.218C34.2439 36.246 34.3358 36.2492 34.424 36.2273C34.5122 36.2054 34.5937 36.1593 34.6605 36.0933L35.1952 35.7303H35.2896C35.4074 35.6271 35.5012 35.4953 35.5631 35.3455C35.625 35.1958 35.6535 35.0323 35.646 34.8685C38.5504 34.721 42.608 33.5075 44.7784 30.5589C45.5537 29.4903 45.9812 28.1748 45.9946 26.8165C46.041 25.9886 45.785 25.1741 45.2817 24.5483" fill="#FCAF17"/>
</svg>
