<svg width="48" height="48" viewBox="0 0 48 48" fill="none" xmlns="http://www.w3.org/2000/svg">
<g clip-path="url(#clip0_969_26810)">
<path d="M44 38.2644C43.9997 39.0143 43.8517 39.7568 43.5644 40.4494C43.2771 41.1421 42.8562 41.7714 42.3257 42.3013C41.7952 42.8313 41.1655 43.2516 40.4726 43.5382C39.7797 43.8248 39.0371 43.9721 38.2872 43.9717H9.71361C8.19917 43.9723 6.74649 43.3714 5.67503 42.3011C4.60356 41.2309 4.00105 39.7789 4 38.2644V9.733C4.00127 8.21877 4.60389 6.76705 5.67536 5.69708C6.74682 4.62711 8.19938 4.0265 9.71361 4.02735H38.2872C39.0369 4.02682 39.7795 4.174 40.4724 4.46046C41.1652 4.74692 41.7949 5.16706 42.3254 5.69689C42.8559 6.22672 43.2768 6.85586 43.5641 7.54838C43.8515 8.2409 43.9996 8.98324 44 9.733V38.2644Z" fill="#FFE400"/>
<path d="M32.5796 27.9951C32.4003 26.6028 31.7043 25.3288 30.6295 24.4257C30.4704 24.2857 30.2979 24.1553 30.107 24.0002C30.266 23.8809 30.3981 23.7895 30.5213 23.6869C31.2949 23.0466 31.8924 22.2196 32.2575 21.2842C32.6033 20.3996 32.713 19.4403 32.5757 18.5006C32.4235 17.3574 31.9183 16.2903 31.1306 15.4481C30.5691 14.8229 29.8755 14.3306 29.1001 14.007C28.347 13.7021 27.5409 13.5493 26.7284 13.5576H17.6236C17.5608 13.554 17.4979 13.554 17.4351 13.5576C17.3352 13.5622 17.2411 13.6057 17.173 13.6789C17.1049 13.752 17.0682 13.849 17.0708 13.9489C17.0708 14.0125 17.0708 14.0754 17.0708 14.1382V33.8105C17.0708 33.9092 17.0653 34.0086 17.0708 34.1072C17.0749 34.1887 17.1073 34.2662 17.1625 34.3264C17.2177 34.3865 17.2922 34.4254 17.3731 34.4365C17.4356 34.444 17.4986 34.4464 17.5615 34.4436H26.9909C27.9405 34.4473 28.8739 34.1978 29.695 33.7207C30.8681 33.0615 31.7736 32.0125 32.2544 30.7557C32.6014 29.8796 32.7136 28.9279 32.5796 27.9951ZM25.3334 28.703H23.6323V19.3182H25.3144C25.3144 19.3182 25.308 19.3134 25.3144 19.3134V19.3182H25.3334V28.703Z" fill="#1E1719"/>
</g>
<defs>
<clipPath id="clip0_969_26810">
<rect width="40" height="39.9451" fill="white" transform="translate(4 4.02734)"/>
</clipPath>
</defs>
</svg>
