<svg width="48" height="48" viewBox="0 0 48 48" fill="none" xmlns="http://www.w3.org/2000/svg">
<g clip-path="url(#clip0_969_26834)">
<path d="M2.00488 32.6357C2.00488 39.9878 6.50945 46.0047 23.5661 46.0047H24.439C41.5003 46.0047 46.0002 39.9878 46.0002 32.6357V15.3644C46.0002 8.00769 41.4957 1.99072 24.439 1.99072H23.5661C6.50478 2.00006 2.00488 8.01703 2.00488 15.3644V32.6357Z" fill="url(#paint0_linear_969_26834)"/>
<path d="M24.4345 45.9999C25.6621 45.9999 26.8198 45.9672 27.9214 45.9066V38.4612C31.0443 38.4379 35.2314 37.1869 37.0986 33.1491C39.3112 28.3598 37.1313 24.6954 35.0167 22.8796C36.3424 21.2225 37.1686 18.179 36.0436 14.9675C34.1298 9.50597 28.6916 9.22122 26.8431 9.21655H24.4111V45.9813L24.4345 45.9999ZM27.9214 12.9789H28.3882C29.6886 13.0539 30.9111 13.623 31.8058 14.5697C32.7004 15.5164 33.1994 16.7691 33.2009 18.0716C33.2009 21.6006 29.8773 23.2764 29.5319 23.3931C29.6859 23.3931 34.2838 24.7935 34.2838 29.0693C34.2838 32.3602 31.3057 34.7455 27.9121 34.7455L27.9214 12.9789Z" fill="white"/>
<path d="M17.1103 23.1225C16.074 22.2263 14.3375 20.3731 14.4169 18.0625C14.4869 15.9712 15.4812 14.3561 17.1523 13.6279C18.6461 12.9744 20.4572 12.9651 21.5635 12.9651H21.8203V9.23071H21.6289C20.2005 9.23071 17.8385 9.23071 15.6912 10.1643C12.6431 11.4947 10.7572 14.4261 10.6405 17.9971C10.5425 20.8586 11.9522 23.6967 14.613 25.9886C17.143 28.1732 18.4313 29.4382 17.7965 32.1783C17.2643 34.4796 13.6794 37.5651 12.531 38.396H17.7078C18.9495 37.4624 20.9753 35.1565 21.4748 32.9625C22.6511 27.9025 19.5796 25.2511 17.1103 23.1225Z" fill="white"/>
</g>
<defs>
<linearGradient id="paint0_linear_969_26834" x1="24.0796" y1="17.6083" x2="24.0796" y2="45.7559" gradientUnits="userSpaceOnUse">
<stop stop-color="#92C83E"/>
<stop offset="0.6" stop-color="#009D54"/>
<stop offset="1" stop-color="#007360"/>
</linearGradient>
<clipPath id="clip0_969_26834">
<rect width="44" height="44" fill="white" transform="translate(2 2)"/>
</clipPath>
</defs>
</svg>
