<svg width="48" height="48" viewBox="0 0 48 48" fill="none" xmlns="http://www.w3.org/2000/svg">
<g clip-path="url(#clip0_969_26609)">
<path d="M23.0191 2.31651C18.73 2.51102 14.595 3.97327 11.137 6.51826C7.67909 9.06325 5.05362 12.5767 3.59279 16.614C2.13196 20.6514 1.90137 25.0313 2.9302 29.1997C3.95903 33.3682 6.20108 37.1378 9.37268 40.0318C12.5443 42.9258 16.5029 44.8142 20.7479 45.458C24.9929 46.1017 29.3334 45.4721 33.2205 43.6486C37.1075 41.8251 40.3665 38.8897 42.585 35.2138C44.8035 31.5378 45.8819 27.2865 45.6839 22.9976C45.5565 20.1496 44.8691 17.3546 43.6608 14.7724C42.4526 12.1903 40.7472 9.87158 38.6423 7.94891C36.5374 6.02625 34.0741 4.53732 31.3934 3.56725C28.7126 2.59719 25.867 2.165 23.0191 2.29542V2.31651Z" fill="url(#paint0_radial_969_26609)"/>
<path d="M23.0084 2.0218C18.6614 2.21832 14.4702 3.69958 10.965 6.27823C7.45985 8.85688 4.79813 12.4171 3.31649 16.5086C1.83484 20.6001 1.59985 25.0391 2.6412 29.2642C3.68256 33.4892 5.95349 37.3106 9.16679 40.2449C12.3801 43.1793 16.3914 45.0948 20.6934 45.7492C24.9954 46.4036 29.3949 45.7675 33.3354 43.9214C37.2759 42.0752 40.5804 39.102 42.831 35.3777C45.0816 31.6534 46.1772 27.3453 45.9792 22.9983C45.7137 17.17 43.1451 11.6856 38.8378 7.75023C34.5305 3.8149 28.837 1.75068 23.0084 2.01124V2.0218ZM25.583 23.3676C29.4976 26.9763 31.6396 28.9177 31.6396 28.9177C38.5298 34.6578 36.1768 39.9019 33.5389 41.7273C31.4188 43.1413 28.9331 43.9075 26.3849 43.9326C26.2967 43.9459 26.2067 43.9414 26.1203 43.9192C26.0339 43.8971 25.9529 43.8578 25.882 43.8036C25.8111 43.7495 25.7518 43.6816 25.7077 43.604C25.6636 43.5265 25.6355 43.4409 25.6252 43.3523C25.6252 42.8564 26.3322 42.7297 26.3322 42.7297C32.8425 41.453 30.9326 37.1796 28.6324 35.006C27.6722 34.088 18.6084 26.2693 18.6084 26.2693C9.97725 18.8832 10.6631 13.0271 10.6631 13.0271C11.0746 5.88367 17.3317 4.11101 22.0693 4.52252C22.618 4.57528 22.924 4.91294 22.829 5.36666C22.7341 5.82038 21.9955 5.91533 21.9955 5.91533C20.6422 5.88018 19.3034 6.20034 18.1125 6.84387C14.3034 9.4079 15.4324 13.7762 20.5183 18.6299C21.1513 19.2419 21.8372 19.8856 22.5336 20.5398C22.5336 20.5398 23.5571 21.4367 25.583 23.3676ZM22.6286 41.8329C22.6286 42.5398 20.972 42.8352 19.041 42.6453C16.1538 42.4399 13.404 41.3326 11.1801 39.4798C9.04003 37.5529 7.49208 35.0571 6.71683 32.2837C5.99932 29.7935 5.66167 26.8918 6.88566 27.1134C7.24441 27.1873 7.87749 28.7911 8.55279 29.9518C9.0047 30.8216 9.62524 31.5928 10.3782 32.2204C10.6209 32.3997 11.4333 30.5532 12.6573 29.5086C13.3537 28.9283 14.124 28.7278 14.2506 30.4583C14.3983 32.5686 14.0185 35.1009 14.6305 35.1009C15.2425 35.1009 16.5192 34.6578 19.3787 34.4151C20.4339 34.3307 21.0669 34.5312 20.0434 35.9767C19.2954 37.1156 18.3397 38.1036 17.2262 38.889C19.6636 41.147 22.5758 40.8727 22.6286 41.8329ZM24.549 19.6746C24.3541 18.7693 24.3255 17.8361 24.4645 16.9206C24.753 15.0487 25.3221 13.2309 26.1528 11.5288C27.2079 9.02805 24.7389 7.56138 25.0976 6.64339C25.6463 5.39831 27.3768 6.98103 29.3182 7.0971C30.9748 7.19206 31.9773 7.09711 33.2646 7.27649C34.9739 7.50863 37.0209 8.07841 37.9283 9.15467C38.8358 10.2309 37.4957 11.3283 35.9552 10.5791C34.8367 10.0305 33.4228 10.3681 34.2458 11.5393C34.8651 12.3164 35.7615 12.8232 36.7466 12.9532C39.5427 13.6918 39.606 16.3719 37.7067 17.7647C35.5437 19.3369 33.3701 18.6933 32.4943 15.5911C32.0511 14.04 30.9538 13.2592 29.8353 13.6918C28.7168 14.1244 29.3816 16.1714 30.2362 18.0496C31.9245 22.3758 27.7144 22.2703 27.2291 22.1753C26.5942 22.0446 26.0078 21.7409 25.5347 21.2977C25.0617 20.8545 24.7206 20.2891 24.549 19.664V19.6746Z" fill="url(#paint1_radial_969_26609)"/>
</g>
<defs>
<radialGradient id="paint0_radial_969_26609" cx="0" cy="0" r="1" gradientUnits="userSpaceOnUse" gradientTransform="translate(27.3889 16.8941) scale(20.6219 20.6219)">
<stop stop-color="white"/>
<stop offset="1" stop-color="#CF9C51"/>
</radialGradient>
<radialGradient id="paint1_radial_969_26609" cx="0" cy="0" r="1" gradientUnits="userSpaceOnUse" gradientTransform="translate(22.2837 10.6163) scale(46.193 46.1931)">
<stop stop-color="#00C0F3"/>
<stop offset="0.22" stop-color="#0097D6"/>
<stop offset="0.28" stop-color="#0086CA"/>
<stop offset="0.37" stop-color="#0074BD"/>
<stop offset="0.46" stop-color="#0069B5"/>
<stop offset="0.57" stop-color="#0066B3"/>
</radialGradient>
<clipPath id="clip0_969_26609">
<rect width="44" height="44" fill="white" transform="translate(2 2)"/>
</clipPath>
</defs>
</svg>
