<svg width="48" height="48" viewBox="0 0 48 48" fill="none" xmlns="http://www.w3.org/2000/svg">
<g clip-path="url(#clip0_969_26683)">
<path d="M30.8064 27.6932C30.7039 27.0938 30.5294 26.5087 30.2868 25.9506C29.5818 24.2935 28.373 22.8978 26.83 21.9596C25.6114 21.2449 24.2207 20.8726 22.8063 20.8825C21.3918 20.8924 20.0066 21.2841 18.7982 22.0158C17.6724 22.6873 16.76 23.6615 16.1661 24.8264C15.9639 25.2245 15.7939 25.638 15.6577 26.063C15.2901 27.1668 15.1496 28.3329 15.2447 29.4918C15.3398 30.6508 15.6685 31.7788 16.2113 32.8085C16.5826 33.4387 17.1495 33.9319 17.8267 34.2138C18.1647 34.3539 18.5311 34.4127 18.8962 34.3854C19.2613 34.358 19.6147 34.2453 19.9278 34.0564C20.2723 33.7844 20.5296 33.4183 20.668 33.0029C20.8065 32.5875 20.8201 32.141 20.7073 31.718C20.4449 30.6432 20.4722 29.5186 20.7864 28.4577C20.9111 28.1109 21.1117 27.796 21.3738 27.5358C21.5366 27.3797 21.7234 27.2507 21.9273 27.1536C22.353 26.9406 22.8338 26.8622 23.3055 26.9287C23.7148 27.0167 24.0972 27.2002 24.4212 27.4641C24.7453 27.7279 25.0017 28.0646 25.1694 28.4464C25.4831 29.1948 25.6481 29.9965 25.6552 30.8074C25.661 34.4687 25.1165 38.1103 24.0398 41.6113C23.9381 41.9711 23.8364 42.3196 23.7461 42.6794C23.6557 43.0391 23.5201 43.2977 23.7461 43.5675C23.8249 43.679 23.9349 43.765 24.0624 43.8149C24.6046 44.0285 25.0339 43.7024 25.3954 43.3427C27.4474 41.1553 28.9596 38.5225 29.8123 35.6528C30.1672 34.6013 30.4503 33.5271 30.6595 32.4375C30.9823 30.8653 31.0396 29.2505 30.829 27.6595" fill="#008375"/>
<path d="M45.9887 11.0317C45.9845 10.9081 45.9551 10.7866 45.9022 10.6746C45.8494 10.5626 45.7741 10.4626 45.6811 10.3805C45.5881 10.2985 45.4792 10.2361 45.3612 10.1973C45.2432 10.1585 45.1184 10.1441 44.9946 10.1548C44.4741 10.2265 43.9698 10.3862 43.5034 10.627C33.9868 14.0166 23.7677 14.9752 13.7822 13.4151C12.0991 13.1678 10.3933 12.8418 8.69881 12.5719C7.63693 12.4033 6.58636 12.1672 5.52448 12.0885C4.56436 11.9052 3.57012 12.0942 2.74554 12.6169C2.32195 13.0805 2.05926 13.6673 1.99621 14.2907C1.93316 14.9142 2.07309 15.5413 2.39535 16.0796C3.11486 17.306 4.15793 18.3129 5.41152 18.9914C6.57498 19.8119 7.95189 20.2804 9.3766 20.3405C13.1421 20.0931 16.9076 19.7184 20.6731 19.2162C27.0557 18.3955 33.7319 17.6198 39.7304 15.1577C41.7149 14.3722 43.5843 13.3248 45.2883 12.0435C45.5933 11.8187 46.0338 11.4365 46.0338 10.998" fill="#008375"/>
<path d="M19.2158 7.85011C19.2158 8.81916 19.6026 9.74852 20.2911 10.4337C20.9796 11.119 21.9135 11.5039 22.8872 11.5039C23.8609 11.5039 24.7947 11.119 25.4832 10.4337C26.1718 9.74852 26.5586 8.81916 26.5586 7.85011C26.558 7.54754 26.4925 7.24857 26.3665 6.97321C26.0502 6.3099 25.6887 5.98387 25.7339 5.18566C25.7339 4.11763 24.3896 4.06141 23.6441 4.06141C22.8152 4.03454 21.9914 4.20007 21.2379 4.54487C20.6527 4.84127 20.1575 5.28754 19.8032 5.83774C19.4318 6.39932 19.2281 7.05425 19.2158 7.72646V7.81639" fill="#D50037"/>
</g>
<defs>
<clipPath id="clip0_969_26683">
<rect width="44" height="39.8095" fill="white" transform="translate(2 4.09521)"/>
</clipPath>
</defs>
</svg>
