<svg width="48" height="48" viewBox="0 0 48 48" fill="none" xmlns="http://www.w3.org/2000/svg">
<g clip-path="url(#clip0_969_26613)">
<path d="M45.6803 23.9949C45.6823 28.3016 44.4069 32.512 42.0155 36.0936C39.6241 39.6753 36.2241 42.4672 32.2457 44.1162C28.2673 45.7652 23.8892 46.1971 19.6653 45.3574C15.4413 44.5177 11.5613 42.4441 8.51603 39.3989C5.4708 36.3536 3.39717 32.4736 2.55748 28.2497C1.71779 24.0257 2.14976 19.6476 3.79874 15.6692C5.44772 11.6908 8.23961 8.2908 11.8212 5.89941C15.4029 3.50802 19.6133 2.23265 23.92 2.23462C29.6903 2.23727 35.2236 4.53072 39.3039 8.611C43.3842 12.6913 45.6776 18.2246 45.6803 23.9949Z" fill="white"/>
<path d="M23.9202 44.7267C28.0206 44.7267 32.0288 43.5107 35.4381 41.2327C38.8475 38.9547 41.5047 35.7168 43.0738 31.9286C44.643 28.1404 45.0535 23.9719 44.2536 19.9504C43.4537 15.9288 41.4791 12.2348 38.5798 9.33537C35.6804 6.43599 31.9863 4.46149 27.9648 3.66155C23.9432 2.86161 19.7747 3.27217 15.9865 4.8413C12.1983 6.41044 8.96046 9.06768 6.68243 12.477C4.4044 15.8863 3.18848 19.8946 3.18848 23.9949C3.18848 29.4933 5.37272 34.7665 9.26067 38.6545C13.1486 42.5424 18.4218 44.7267 23.9202 44.7267Z" fill="#0083CA"/>
<mask id="mask0_969_26613" style="mask-type:alpha" maskUnits="userSpaceOnUse" x="3" y="3" width="42" height="42">
<path d="M23.9202 44.7267C28.0206 44.7267 32.0288 43.5107 35.4381 41.2327C38.8475 38.9547 41.5047 35.7168 43.0738 31.9286C44.643 28.1404 45.0535 23.9719 44.2536 19.9504C43.4537 15.9288 41.4791 12.2348 38.5798 9.33537C35.6804 6.43599 31.9863 4.46149 27.9648 3.66155C23.9432 2.86161 19.7747 3.27217 15.9865 4.8413C12.1983 6.41044 8.96046 9.06768 6.68243 12.477C4.4044 15.8863 3.18848 19.8946 3.18848 23.9949C3.18848 29.4933 5.37272 34.7665 9.26067 38.6545C13.1486 42.5424 18.4218 44.7267 23.9202 44.7267Z" fill="#0083CA"/>
</mask>
<g mask="url(#mask0_969_26613)">
<path d="M23.9901 34.0113C33.0976 34.0113 40.907 36.5478 44.2524 40.1429C45.4094 37.4979 46.0045 34.6414 46 31.7544C46 25.9196 43.6822 20.3238 39.5564 16.198C35.4306 12.0722 29.8348 9.75439 24 9.75439C18.1653 9.75439 12.5695 12.0722 8.44369 16.198C4.31789 20.3238 2.00002 25.9196 2.00002 31.7544C1.99587 34.6404 2.58744 37.4961 3.73767 40.1429C7.07312 36.5478 14.8725 34.0113 23.9901 34.0113Z" fill="#0083CA"/>
<path d="M23.9901 34.0321C33.0777 34.0321 40.867 36.5487 44.2025 40.1238C45.3515 37.4977 45.9432 34.6617 45.9401 31.7951C45.9401 20.0012 36.1035 10.4143 23.9701 10.4143C11.8366 10.4143 2.00002 20.0012 2.00002 31.7951C1.99606 34.6617 2.5878 37.4979 3.73767 40.1238C7.11307 36.5487 14.8725 34.0321 23.9901 34.0321Z" fill="#0085CB"/>
<path d="M23.9898 34.0513C33.0474 34.0513 40.8168 36.5578 44.1423 40.093C45.29 37.491 45.8818 34.6781 45.8799 31.8343C45.8799 20.1303 36.0633 10.5933 23.9898 10.5933C11.9163 10.5933 2.09963 20.1402 2.09963 31.8343C2.09543 34.6784 2.68738 37.4918 3.83728 40.093C7.15276 36.5578 14.9222 34.0513 23.9898 34.0513Z" fill="#0086CC"/>
<path d="M23.9802 34.0813C33.0179 34.0813 40.7773 36.5579 44.0928 40.0731C45.2351 37.5081 45.827 34.7321 45.8304 31.9242C45.8304 20.3201 36.0438 10.823 23.9902 10.823C11.9367 10.823 2.16997 20.3201 2.16997 31.9242C2.1635 34.745 2.75221 37.5353 3.89763 40.1131C7.19314 36.5579 14.9426 34.0813 23.9802 34.0813Z" fill="#0088CC"/>
<path d="M23.9803 34.1011C32.968 34.1011 40.7275 36.5577 44.033 40.043C45.1762 37.4892 45.765 34.722 45.7606 31.924C45.7606 20.4097 36.0039 10.9526 23.9803 10.9526C11.9567 10.9526 2.20998 20.3998 2.20998 31.924C2.206 34.7209 2.79126 37.4873 3.92764 40.043C7.23313 36.5577 14.9626 34.1011 23.9803 34.1011Z" fill="#0089CD"/>
<path d="M23.9796 34.1212C32.9674 34.1212 40.6768 36.5579 43.9524 40.0132C45.0875 37.4818 45.6729 34.7384 45.67 31.9642C45.67 20.5398 35.9333 11.1426 23.9496 11.1426C11.966 11.1426 2.23927 20.5497 2.23927 31.9642C2.23688 34.7373 2.81873 37.4799 3.94693 40.0132C7.27239 36.5579 14.9919 34.1212 23.9796 34.1212Z" fill="#008BCE"/>
<path d="M23.9801 34.1511C32.9679 34.1511 40.6374 36.5579 43.9529 39.9932C45.0866 37.4825 45.6722 34.7589 45.6705 32.0041C45.6705 20.6795 35.9638 11.3323 24.0101 11.3323C12.0564 11.3323 2.34961 20.6795 2.34961 32.0041C2.34845 34.7578 2.93046 37.4806 4.0573 39.9932C7.31286 36.5579 15.0123 34.1511 23.9801 34.1511Z" fill="#008DCF"/>
<path d="M23.9697 34.1711C32.9574 34.1711 40.587 36.5678 43.8725 39.9632C44.9984 37.4749 45.5806 34.7751 45.5802 32.044C45.5802 20.8193 35.9034 11.512 23.9697 11.512C12.0359 11.512 2.36914 20.8193 2.36914 32.044C2.36784 34.7752 2.95005 37.4752 4.07681 39.9632C7.35234 36.5678 15.0318 34.1711 23.9697 34.1711Z" fill="#008ED0"/>
<path d="M23.9703 34.191C32.8882 34.191 40.5477 36.5678 43.8133 39.9332C44.9446 37.4714 45.5272 34.7931 45.521 32.0839C45.521 20.9491 35.8641 11.7017 23.9703 11.7017C12.0765 11.7017 2.42973 20.959 2.42973 32.0839C2.42412 34.792 3.00318 37.4694 4.12739 39.9332C7.39294 36.5678 15.0525 34.191 23.9703 34.191Z" fill="#0090D0"/>
<path d="M23.9702 34.2211C32.8581 34.2211 40.4976 36.5679 43.7632 39.9134C44.8853 37.4701 45.4645 34.8126 45.4609 32.124C45.4609 21.139 35.834 11.8816 23.9702 11.8816C12.1064 11.8816 2.47949 21.089 2.47949 32.124C2.47968 34.8122 3.05871 37.4689 4.17719 39.9134C7.44274 36.5679 15.0723 34.2211 23.9702 34.2211Z" fill="#0092D1"/>
<path d="M23.97 34.241C32.8379 34.241 40.4476 36.5679 43.7131 39.8833C44.8293 37.4628 45.4084 34.8294 45.4108 32.1639C45.4108 21.1789 35.8039 12.0613 23.97 12.0613C12.1362 12.0613 2.5293 21.2288 2.5293 32.1639C2.52948 34.8296 3.10871 37.4635 4.22696 39.8833C7.48252 36.5679 15.0921 34.241 23.97 34.241Z" fill="#0093D2"/>
<path d="M23.9597 34.2609C32.8077 34.2609 40.4073 36.5778 43.6529 39.8533C44.7698 37.4577 45.3492 34.8469 45.3505 32.2037C45.3505 21.3585 35.7636 12.231 23.9597 12.231C12.1558 12.231 2.58888 21.3485 2.58888 32.2037C2.58583 34.8463 3.16191 37.4574 4.27658 39.8533C7.52215 36.5778 15.1118 34.2609 23.9597 34.2609Z" fill="#0095D3"/>
<path d="M23.9606 34.2909C32.7786 34.2909 40.3582 36.5777 43.6038 39.8333C44.7164 37.4579 45.2926 34.8667 45.2915 32.2437C45.2915 21.4983 35.7345 12.4307 23.9606 12.4307C12.1866 12.4307 2.63966 21.4983 2.63966 32.2437C2.63659 34.8669 3.21288 37.4585 4.32736 39.8333C7.56295 36.5777 15.1326 34.2909 23.9606 34.2909Z" fill="#0097D4"/>
<path d="M23.9605 34.3108C32.7585 34.3108 40.3181 36.5777 43.5437 39.8033C44.6549 37.4557 45.2313 34.8908 45.2314 32.2935C45.2314 21.6381 35.7045 12.6204 23.9605 12.6204C12.2165 12.6204 2.68945 21.6081 2.68945 32.2935C2.68859 34.8909 3.26506 37.456 4.37715 39.8033C7.60276 36.5777 15.1525 34.3108 23.9605 34.3108Z" fill="#0098D5"/>
<path d="M23.9501 34.3309C32.7282 34.3309 40.2679 36.5779 43.4935 39.7735C44.5965 37.4483 45.1695 34.9072 45.1712 32.3337C45.1712 21.7681 35.6642 12.8003 23.9501 12.8003C12.2361 12.8003 2.74902 21.788 2.74902 32.3337C2.7484 34.9075 3.32156 37.4491 4.42676 39.7735C7.64237 36.5779 15.1721 34.3309 23.9501 34.3309Z" fill="#009AD5"/>
<path d="M23.95 34.3509C32.698 34.3509 40.2178 36.5878 43.4334 39.7535C44.535 37.4491 45.1082 34.9278 45.1111 32.3736C45.1111 21.9078 35.634 12.99 23.95 12.99C12.2659 12.99 2.79883 21.9078 2.79883 32.3736C2.79938 34.928 3.37268 37.4499 4.47653 39.7535C7.68216 36.5878 15.1919 34.3509 23.95 34.3509Z" fill="#009CD6"/>
<path d="M23.9499 34.3808C32.678 34.3808 40.1778 36.5877 43.3834 39.7235C44.4772 37.4415 45.047 34.944 45.0512 32.4134C45.0512 22.0476 35.5941 13.1697 23.9499 13.1697C12.3058 13.1697 2.88867 22.0476 2.88867 32.4134C2.8905 34.9453 3.46399 37.4442 4.56638 39.7235C7.72207 36.5877 15.2119 34.3808 23.9499 34.3808Z" fill="#009ED7"/>
<path d="M23.95 34.4007C32.6481 34.4007 40.1279 36.5877 43.3235 39.6934C44.4214 37.4378 44.9917 34.9619 44.9913 32.4533C44.9913 22.1773 35.5641 13.3494 23.95 13.3494C12.3358 13.3494 2.88868 22.1773 2.88868 32.4533C2.8858 34.9622 3.45624 37.4386 4.55642 39.6934C7.76205 36.5877 15.2318 34.4007 23.95 34.4007Z" fill="#00A0D8"/>
<path d="M23.9397 34.4208C32.6179 34.4208 40.0877 36.5878 43.2733 39.6736C44.3632 37.4369 44.9301 34.9816 44.9311 32.4934C44.9311 22.3173 35.5339 13.5193 23.9597 13.5193C12.3855 13.5193 2.98828 22.2973 2.98828 32.4934C2.98824 34.9817 3.55518 37.4372 4.64602 39.6736C7.80172 36.5878 15.2515 34.4208 23.9397 34.4208Z" fill="#00A1D9"/>
<path d="M23.94 34.4507C32.5982 34.4507 40.0381 36.5978 43.2138 39.6436C44.3033 37.4317 44.8704 34.9991 44.8715 32.5333C44.8715 22.4571 35.4943 13.719 23.9001 13.719C12.3059 13.719 2.92871 22.4571 2.92871 32.5333C2.93334 34.9987 3.5003 37.4305 4.58645 39.6436C7.88196 36.5978 15.2818 34.4507 23.94 34.4507Z" fill="#00A3DA"/>
<path d="M23.9399 34.4708C32.5681 34.4708 39.988 36.5979 43.1637 39.6138C44.2421 37.4405 44.8091 35.0494 44.8214 32.6233C44.8214 22.6369 35.4642 13.9587 23.9399 13.9587C12.4156 13.9587 3.06836 22.6369 3.06836 32.6233C3.07721 35.0486 3.64083 37.4398 4.71611 39.6138C7.88179 36.5979 15.3017 34.4708 23.9399 34.4708Z" fill="#00A5DB"/>
<path d="M23.9397 34.4908C32.538 34.4908 39.918 36.5979 43.1036 39.5938C44.1929 37.4245 44.7606 35.0308 44.7614 32.6033C44.7614 22.7168 35.4341 14.0786 23.9397 14.0786C12.4454 14.0786 3.11816 22.7168 3.11816 32.6033C3.11804 35.0297 3.68214 37.4229 4.76591 39.5938C7.88166 36.5979 15.3215 34.4908 23.9397 34.4908Z" fill="#00A7DC"/>
<path d="M23.9304 34.5207C32.5187 34.5207 39.9086 36.5979 43.0543 39.5638C44.1339 37.4235 44.6981 35.0604 44.7021 32.6633C44.7021 22.8666 35.3948 14.2783 23.9304 14.2783C12.466 14.2783 3.17871 22.8666 3.17871 32.6633C3.17918 35.0597 3.74002 37.4228 4.81646 39.5638C7.96217 36.5979 15.3421 34.5207 23.9304 34.5207Z" fill="#00A9DD"/>
<path d="M23.9303 34.5406C32.4886 34.5406 39.8586 36.6078 42.9943 39.5338C44.0738 37.4184 44.6383 35.078 44.642 32.7031C44.642 22.9964 35.3647 14.458 23.9303 14.458C12.4959 14.458 3.22852 22.9964 3.22852 32.7031C3.23249 35.0768 3.79346 37.4164 4.8663 39.5338C8.00202 36.6078 15.362 34.5406 23.9303 34.5406Z" fill="#00ABDE"/>
<path d="M23.9301 34.5606C32.4684 34.5606 39.8084 36.6078 42.9042 39.5538C43.9746 37.457 44.5357 35.1373 44.5419 32.7831C44.5419 23.1762 35.2946 14.6877 23.8901 14.6877C12.4857 14.6877 3.23828 23.1762 3.23828 32.7831C3.2539 35.1246 3.81825 37.4299 4.88603 39.5139C8.05171 36.6079 15.3817 34.5606 23.9301 34.5606Z" fill="#00ADDE"/>
<path d="M23.9206 34.5807C32.439 34.5807 39.759 36.5779 42.8947 39.484C43.9691 37.4136 44.5308 35.1156 44.5325 32.7831C44.5325 23.2761 35.3051 14.8076 23.9306 14.8076C12.5561 14.8076 3.34863 23.2561 3.34863 32.7831C3.35071 35.1144 3.90875 37.4116 4.97642 39.484C8.09217 36.6079 15.4022 34.5807 23.9206 34.5807Z" fill="#00AFDF"/>
<path d="M23.9197 34.6106C32.4081 34.6106 39.7182 36.6079 42.8339 39.454C43.9002 37.4061 44.4585 35.1319 44.4617 32.823C44.4617 23.4059 35.2642 15.0073 23.9197 15.0073C12.5752 15.0073 3.3877 23.4059 3.3877 32.823C3.38969 35.132 3.94805 37.4065 5.01548 39.454C8.13123 36.6079 15.4213 34.6106 23.9197 34.6106Z" fill="#00B1E0"/>
<path d="M23.9206 34.6305C32.389 34.6305 39.6691 36.6278 42.7748 39.434C43.8407 37.4074 44.3993 35.1527 44.4026 32.8629C44.4026 23.5456 35.2351 15.197 23.9206 15.197C12.606 15.197 3.43848 23.5456 3.43848 32.8629C3.44064 35.1528 3.99926 37.4079 5.06626 39.434C8.17203 36.6178 15.4421 34.6305 23.9206 34.6305Z" fill="#00B3E1"/>
<path d="M23.9202 34.6504C32.3587 34.6504 39.6288 36.6477 42.7246 39.404C43.7828 37.4 44.338 35.1689 44.3424 32.9028C44.3424 23.6754 35.1948 15.3767 23.9202 15.3767C12.6456 15.3767 3.49805 23.6854 3.49805 32.9028C3.50247 35.1689 4.05769 37.4 5.11587 39.404C8.21164 36.6178 15.4617 34.6504 23.9202 34.6504Z" fill="#0DB5E2"/>
<path d="M23.9101 34.6803C32.3286 34.6803 39.5787 36.6177 42.6645 39.374C43.7219 37.3949 44.2774 35.1865 44.2823 32.9427C44.2823 23.8152 35.1647 15.5664 23.9101 15.5664C12.6554 15.5664 3.54785 23.8152 3.54785 32.9427C3.55276 35.1865 4.10827 37.3949 5.16564 39.374C8.25143 36.6177 15.4816 34.6803 23.9101 34.6803Z" fill="#19B7E3"/>
<path d="M23.91 34.7005C32.3085 34.7005 39.5287 36.6179 42.6145 39.3541C43.6692 37.3992 44.2249 35.2141 44.2322 32.9928C44.2322 24.0051 35.1346 15.7463 23.91 15.7463C12.6853 15.7463 3.59766 23.9551 3.59766 32.9928C3.60378 35.2143 4.15956 37.3997 5.21545 39.3541C8.29125 36.6179 15.5014 34.7005 23.91 34.7005Z" fill="#21B9E4"/>
<path d="M23.9106 34.7204C32.2792 34.7204 39.4894 36.6278 42.5652 39.3241C43.6115 37.3916 44.1638 35.2303 44.173 33.0327C44.173 24.045 35.0953 15.936 23.9106 15.936C12.7258 15.936 3.6582 24.0849 3.6582 33.0327C3.66268 35.2297 4.21166 37.3913 5.25603 39.3241C8.33184 36.6278 15.522 34.7204 23.9106 34.7204Z" fill="#28BBE5"/>
<path d="M23.9099 34.7703C32.2685 34.7703 39.4687 36.6677 42.5345 39.344C43.5819 37.4263 44.1344 35.2777 44.1423 33.0926C44.1423 24.2147 35.0847 16.1157 23.9099 16.1157C12.7352 16.1157 3.6875 24.2347 3.6875 33.0926C3.69064 35.277 4.23991 37.426 5.28533 39.344C8.35115 36.6677 15.5413 34.7703 23.9099 34.7703Z" fill="#37BDE6"/>
<path d="M23.9104 34.8303C32.2591 34.8303 39.4493 36.7077 42.5051 39.3741C43.5539 37.4678 44.1068 35.3284 44.1129 33.1526C44.1129 24.3346 35.0652 16.2656 23.9104 16.2656C12.7556 16.2656 3.70801 24.3346 3.70801 33.1526C3.71863 35.3266 4.26759 37.4641 5.30584 39.3741C8.37165 36.7077 15.5518 34.8303 23.9104 34.8303Z" fill="#43BFE6"/>
<path d="M23.9098 34.9202C32.2484 34.9202 39.4186 36.7876 42.4845 39.434C43.5257 37.5432 44.0751 35.421 44.0823 33.2624C44.0823 24.4944 35.0945 16.4753 23.9098 16.4753C12.725 16.4753 3.7373 24.4644 3.7373 33.2624C3.74316 35.4212 4.29268 37.5437 5.33513 39.434C8.39096 36.7477 15.5612 34.9202 23.9098 34.9202Z" fill="#4DC0E7"/>
<path d="M23.9101 34.92C32.2387 34.92 39.399 36.7775 42.4548 39.4039C43.5003 37.5287 44.0535 35.4191 44.0626 33.2722C44.0626 24.5641 35.0749 16.595 23.9101 16.595C12.7453 16.595 3.76758 24.5841 3.76758 33.2722C3.77493 35.4169 4.32091 37.5253 5.35541 39.4039C8.41124 36.7874 15.5715 34.92 23.9101 34.92Z" fill="#56C2E8"/>
<path d="M23.9104 34.9901C32.2291 34.9901 39.3793 36.8276 42.4352 39.434C43.4715 37.5737 44.0211 35.4817 44.033 33.3523C44.033 24.7041 35.0452 16.7749 23.9104 16.7749C12.7756 16.7749 3.79785 24.7041 3.79785 33.3523C3.80061 35.4817 4.34715 37.5751 5.38568 39.434C8.43153 36.8276 15.5818 34.9901 23.9104 34.9901Z" fill="#5EC4E8"/>
<path d="M23.91 35.0399C32.2087 35.0399 39.3589 36.8674 42.4048 39.4639C43.4452 37.6161 43.9952 35.5327 44.0026 33.4121C44.0026 24.8238 35.0148 16.9446 23.91 16.9446C12.8051 16.9446 3.81738 24.8238 3.81738 33.4121C3.8261 35.5312 4.37242 37.6135 5.40521 39.4639C8.46105 36.9173 15.5913 35.0399 23.91 35.0399Z" fill="#65C6E9"/>
<path d="M23.9104 35.0898C32.1991 35.0898 39.3393 36.9073 42.3852 39.4838C43.4143 37.6536 43.9607 35.5916 43.973 33.492C43.973 24.9636 34.9853 17.1343 23.9104 17.1343C12.8355 17.1343 3.8877 24.9336 3.8877 33.472C3.89868 35.5718 4.44519 37.6341 5.47553 39.4638C8.48143 36.9173 15.6117 35.0898 23.9104 35.0898Z" fill="#6DC7EA"/>
<path d="M23.9104 35.1398C32.1891 35.1398 39.3194 36.9473 42.3552 39.5038C43.3922 37.6768 43.9392 35.6127 43.9431 33.512C43.9431 25.0335 34.9553 17.2542 23.9104 17.2542C12.8654 17.2542 3.8877 25.0635 3.8877 33.5419C3.88804 35.6419 4.43158 37.706 5.46553 39.5338C8.50139 36.9173 15.6217 35.1398 23.9104 35.1398Z" fill="#74C9EA"/>
<path d="M23.9104 35.1997C32.1791 35.1997 39.2994 36.9872 42.3352 39.5337C43.3615 37.7241 43.9081 35.6822 43.9231 33.6018C43.9231 25.1833 34.9353 17.4539 23.9503 17.4539C12.9653 17.4539 3.97754 25.1933 3.97754 33.6018C3.98323 35.6821 4.52679 37.7256 5.5554 39.5337C8.52136 36.9872 15.6316 35.1997 23.9104 35.1997Z" fill="#7ACBEB"/>
<path d="M23.91 35.2495C32.1688 35.2495 39.2791 37.0271 42.305 39.5536C43.3351 37.7637 43.8823 35.7368 43.8928 33.6717C43.8928 25.3131 34.905 17.6235 23.92 17.6235C12.935 17.6235 3.94727 25.3131 3.94727 33.6717C3.95794 35.7355 4.50145 37.7616 5.52513 39.5536C8.54102 37.0271 15.6413 35.2495 23.91 35.2495Z" fill="#81CDEC"/>
<path d="M23.9097 35.2995C32.1585 35.2995 39.2588 37.0671 42.2847 39.5737C43.3072 37.7956 43.8509 35.7827 43.8625 33.7316C43.8625 25.4329 34.9247 17.7534 23.8898 17.7534C12.8548 17.7534 3.91699 25.403 3.91699 33.7316C3.92266 35.7835 4.46672 37.7979 5.49483 39.5737C8.56065 37.0671 15.651 35.2995 23.9097 35.2995Z" fill="#87CFEC"/>
<path d="M23.9101 35.3594C32.1489 35.3594 39.2293 37.107 42.2551 39.5936C43.2782 37.8303 43.8222 35.8301 43.833 33.7915C43.833 25.5528 34.9051 17.9531 23.9101 17.9531C12.9151 17.9531 3.9873 25.5528 3.9873 33.7915C3.99459 35.8292 4.53513 37.8296 5.55517 39.5936C8.58105 37.107 15.6614 35.3594 23.9101 35.3594Z" fill="#8ED1ED"/>
<path d="M23.9104 35.4095C32.1392 35.4095 39.2096 37.1471 42.2355 39.6237C43.2557 37.8738 43.7997 35.8872 43.8133 33.8616C43.8133 25.6728 34.8955 18.123 23.9104 18.123C12.9254 18.123 4.01758 25.6827 4.01758 33.8616C4.02625 35.8865 4.56693 37.8736 5.58545 39.6237C8.60134 37.1471 15.6817 35.4095 23.9104 35.4095Z" fill="#94D3EE"/>
<path d="M23.9099 35.4593C32.1287 35.4593 39.189 37.1869 42.2049 39.6436C43.2438 37.9136 43.8055 35.9392 43.8327 33.9214C43.8327 25.7925 34.9249 18.2927 23.9598 18.2927C12.9948 18.2927 4.08691 25.8025 4.08691 33.9214C4.09554 35.9337 4.63644 37.9079 5.65475 39.6436C8.62071 37.1869 15.6911 35.4593 23.9099 35.4593Z" fill="#9AD5EF"/>
<path d="M23.9103 35.5091C32.1191 35.5091 39.1695 37.2268 42.1754 39.6635C43.1949 37.946 43.7395 35.9884 43.7533 33.9912C43.7533 25.9222 34.8654 18.4624 23.9103 18.4624C12.9553 18.4624 4.06738 25.9222 4.06738 33.9912C4.07623 35.9878 4.61746 37.9458 5.63525 39.6635C8.64115 37.2268 15.7015 35.5091 23.9103 35.5091Z" fill="#A0D7F0"/>
<path d="M23.9106 35.5692C32.1095 35.5692 39.1499 37.2669 42.1558 39.6836C43.1685 37.9784 43.7096 36.0345 43.7236 34.0513C43.7236 26.0622 34.8457 18.6323 23.9106 18.6323C12.9755 18.6323 4.09766 26.0422 4.09766 34.0513C4.10332 36.0344 4.64134 37.9795 5.65553 39.6836C8.66143 37.2669 15.7118 35.5692 23.9106 35.5692Z" fill="#A6D9F0"/>
<path d="M23.91 35.6191C32.0988 35.6191 39.1292 37.3068 42.1252 39.7135C43.1453 38.0219 43.6903 36.0865 43.703 34.1111C43.703 26.122 34.8351 18.802 23.91 18.802C12.9849 18.802 4.12695 26.172 4.12695 34.1111C4.13357 36.0846 4.67172 38.0199 5.68483 39.7135C8.68074 37.3068 15.7211 35.6191 23.91 35.6191Z" fill="#ACDCF1"/>
<path d="M23.9103 35.6692C32.0791 35.6692 39.1096 37.3469 42.1055 39.7336C43.1162 38.0567 43.6577 36.139 43.6733 34.1812C43.6733 26.282 34.8154 18.9719 23.9103 18.9719C13.0052 18.9719 4.15723 26.2919 4.15723 34.1812C4.16585 36.1373 4.70051 38.0551 5.70513 39.7336C8.71104 37.3469 15.7314 35.6692 23.9103 35.6692Z" fill="#B2DEF2"/>
<path d="M23.9098 35.7189C32.0687 35.7189 39.0891 37.3866 42.0751 39.7135C43.0857 38.0512 43.6275 36.1463 43.6429 34.201C43.6429 26.3716 34.795 19.1016 23.9098 19.1016C13.0247 19.1016 4.17676 26.3716 4.17676 34.201C4.18263 36.1463 4.72142 38.0528 5.73463 39.7135C8.73055 37.3866 15.751 35.7189 23.9098 35.7189Z" fill="#B8E0F3"/>
<path d="M23.9101 35.7788C32.059 35.7788 39.0695 37.4266 42.0554 39.7734C43.0598 38.1235 43.5981 36.2323 43.6133 34.3009C43.6133 26.5215 34.7853 19.3213 23.9101 19.3213C13.035 19.3213 4.20703 26.5414 4.20703 34.3009C4.21561 36.2333 4.75448 38.1262 5.7649 39.7734C8.75083 37.4266 15.7613 35.7788 23.9101 35.7788Z" fill="#BDE2F4"/>
<path d="M23.9105 35.8289C32.0494 35.8289 39.0498 37.4667 42.0258 39.8235C43.0311 38.1887 43.5698 36.31 43.5836 34.3909C43.5836 26.6714 34.7657 19.4912 23.9105 19.4912C13.0553 19.4912 4.2373 26.6814 4.2373 34.3909C4.24609 36.3093 4.78151 38.1885 5.78518 39.8235C8.77111 37.4667 15.7716 35.8289 23.9105 35.8289Z" fill="#C3E5F5"/>
<path d="M23.9098 35.9188C32.0387 35.9188 39.0192 37.5465 42.0051 39.8634C43.0058 38.2412 43.5445 36.3766 43.563 34.4707C43.563 26.8112 34.755 19.6809 23.9098 19.6809C13.0646 19.6809 4.2666 26.8212 4.2666 34.4707C4.27198 36.3757 4.80425 38.2421 5.80451 39.8634C8.79044 37.5066 15.7809 35.9188 23.9098 35.9188Z" fill="#C9E7F5"/>
<path d="M23.9103 35.9188C32.0293 35.9188 38.9998 37.5266 41.9757 39.8235C42.9756 38.2193 43.5146 36.3709 43.5336 34.4807C43.5336 26.8711 34.7356 19.7908 23.9103 19.7908C13.0851 19.7908 4.28711 26.931 4.28711 34.5007C4.29635 36.3909 4.8324 38.241 5.83502 39.8434C8.81096 37.5465 15.7914 35.9188 23.9103 35.9188Z" fill="#CEE9F6"/>
<path d="M23.9097 35.9887C32.0186 35.9887 38.9791 37.5865 41.9551 39.8734C42.9504 38.2788 43.4861 36.4403 43.503 34.5606C43.503 27.0209 34.7249 19.9805 23.9097 19.9805C13.0944 19.9805 4.31641 27.0209 4.31641 34.5606C4.32496 36.4568 4.86841 38.3121 5.88428 39.9133C8.88019 37.5865 15.8007 35.9887 23.9097 35.9887Z" fill="#D4ECF7"/>
<path d="M23.9099 36.0385C32.0088 36.0385 38.9594 37.6263 41.8854 39.8932C42.8825 38.3178 43.4187 36.4948 43.4333 34.6304C43.4333 27.1406 34.6652 20.1501 23.87 20.1501C13.0747 20.1501 4.30664 27.1406 4.30664 34.6304C4.3221 36.5052 4.86923 38.337 5.88448 39.9132C8.88039 37.6263 15.8708 36.0385 23.9099 36.0385Z" fill="#DAEEF8"/>
<path d="M23.9105 36.0886C31.9995 36.0886 38.94 37.6664 41.886 39.9133C42.8834 38.3523 43.4231 36.5428 43.4439 34.6905C43.4439 27.2606 34.6759 20.3201 23.9005 20.3201C13.1252 20.3201 4.36719 27.3105 4.36719 34.6905C4.37437 36.5392 4.90028 38.3488 5.88511 39.9133C8.88102 37.6664 15.8715 36.0886 23.9105 36.0886Z" fill="#DFF1F9"/>
<path d="M23.9106 36.1484C31.9896 36.1484 38.8902 37.7063 41.8861 39.9332C42.8812 38.3865 43.4179 36.5895 43.434 34.7503C43.434 27.3803 34.6859 20.4897 23.9206 20.4897C13.1553 20.4897 4.40723 27.3903 4.40723 34.7503C4.41483 36.5893 4.94847 38.3877 5.94514 39.9332C8.88113 37.7063 15.8716 36.1484 23.9106 36.1484Z" fill="#E5F3FA"/>
<path d="M23.9103 36.1982C31.9793 36.1982 38.8899 37.7461 41.8858 39.9631C42.8777 38.4296 43.4144 36.6463 43.4337 34.8201C43.4337 27.5101 34.6956 20.6594 23.9502 20.6594C13.2049 20.6594 4.4668 27.5101 4.4668 34.8201C4.479 36.6445 5.00884 38.428 5.99471 39.9631C8.88078 37.7461 15.8712 36.1982 23.9103 36.1982Z" fill="#EBF6FB"/>
<path d="M23.9105 36.2483C31.9695 36.2483 38.8901 37.7862 41.8261 39.9832C42.8112 38.462 43.3445 36.6925 43.364 34.8802C43.364 27.6301 34.6458 20.8293 23.9105 20.8293C13.1751 20.8293 4.45703 27.6301 4.45703 34.9201C4.46798 36.7322 4.99823 38.5032 5.98495 40.0232C8.93093 37.7862 15.8714 36.2483 23.9105 36.2483Z" fill="#F1F8FD"/>
<path d="M23.9098 36.2983C31.9588 36.2983 38.8894 37.8262 41.7954 40.0032C42.7887 38.4932 43.3229 36.7276 43.3333 34.9201C43.3333 27.72 34.6252 20.9392 23.9098 20.9392C13.1944 20.9392 4.48633 27.7 4.48633 34.9201C4.49543 36.7155 5.02249 38.4701 6.00425 39.9733C8.96022 37.8262 15.8708 36.2983 23.9098 36.2983Z" fill="#F7FBFE"/>
<path d="M23.9104 36.3581C31.8995 36.3581 38.83 37.866 41.776 40.033C42.7534 38.5489 43.2869 36.8167 43.3139 35.0399C43.3139 27.8996 34.6158 21.1987 23.9104 21.1987C13.205 21.1987 4.50684 27.9096 4.50684 35.0399C4.52533 36.8166 5.05583 38.5502 6.03475 40.033C8.98073 37.9159 15.8713 36.3581 23.9104 36.3581Z" fill="white"/>
<path d="M23.9097 29.2279C17.4462 29.1684 11.0229 30.2502 4.93555 32.4236C6.56578 36.0849 9.22233 39.1952 12.5836 41.378C15.9449 43.5608 19.8669 44.7225 23.8747 44.7225C27.8826 44.7225 31.8045 43.5608 35.1658 41.378C38.5271 39.1952 41.1837 36.0849 42.8139 32.4236C36.7493 30.2554 30.3499 29.1737 23.9097 29.2279Z" fill="#0083CA"/>
</g>
</g>
<defs>
<clipPath id="clip0_969_26613">
<rect width="44" height="43.5306" fill="white" transform="translate(2 2.23462)"/>
</clipPath>
</defs>
</svg>
