<svg width="48" height="48" viewBox="0 0 48 48" fill="none" xmlns="http://www.w3.org/2000/svg">
<g clip-path="url(#clip0_969_26704)">
<path d="M15.4186 32.7101L15.3342 32.7885C14.796 33.3899 14.1413 33.8758 13.4097 34.2167C12.6782 34.5576 11.885 34.7465 11.0783 34.7717C7.91951 34.7717 5.62275 32.3966 5.62275 29.1233C5.62275 25.85 7.91951 23.4809 11.0783 23.4809C11.885 23.5062 12.6782 23.695 13.4097 24.0359C14.1413 24.3768 14.796 24.8627 15.3342 25.4642L15.4186 25.5486L17.4501 23.083L17.3959 23.0227C16.6591 22.0818 15.7147 21.324 14.6366 20.8085C13.5584 20.2929 12.3757 20.0336 11.1808 20.0508C8.81181 19.9991 6.51052 20.8429 4.7366 22.4139C2.98287 24.2081 2.00098 26.6174 2.00098 29.1263C2.00098 31.6353 2.98287 34.0446 4.7366 35.8388C6.50897 37.4123 8.81131 38.2566 11.1808 38.2018C12.3751 38.2188 13.5572 37.96 14.6351 37.4456C15.7131 36.9312 16.6578 36.175 17.3959 35.2359L17.4501 35.1696L15.4186 32.7101Z" fill="#004785"/>
<path d="M23.0987 20.3167H19.5059V37.8527H23.0987V20.3167Z" fill="#004785"/>
<path d="M37.1689 34.0308C36.3828 34.5631 35.4648 34.8677 34.5164 34.9109C33.353 34.9109 32.8346 34.3081 32.8346 32.9336V23.6321H36.4937V20.3286H32.8346V14.873L29.3081 16.7539V20.3286H26.2939V23.6321H29.3081V33.5304C29.3081 36.225 30.9055 38.0636 33.2927 38.1119C34.412 38.1701 35.523 37.8908 36.4816 37.3101H36.5178L37.41 33.9162L37.1689 34.0308Z" fill="#004785"/>
<path d="M43.7334 20.3167H40.1406V37.8527H43.7334V20.3167Z" fill="#004785"/>
<path d="M45.8491 17.2368C44.2411 14.9446 42.1046 13.0734 39.6203 11.7816C37.1361 10.4898 34.3773 9.81543 31.5773 9.81543C28.7773 9.81543 26.0185 10.4898 23.5343 11.7816C21.0501 13.0734 18.9136 14.9446 17.3055 17.2368L17.1367 17.4718H21.2661L21.3143 17.4236C22.6316 16.0228 24.2217 14.9064 25.9868 14.1433C27.7518 13.3802 29.6544 12.9866 31.5773 12.9866C33.5003 12.9866 35.4028 13.3802 37.1679 14.1433C38.9329 14.9064 40.5231 16.0228 41.8404 17.4236L41.8886 17.4718H46.0179L45.8491 17.2368Z" fill="#ED1C2E"/>
</g>
<defs>
<clipPath id="clip0_969_26704">
<rect width="44" height="28.3688" fill="white" transform="translate(2 9.81543)"/>
</clipPath>
</defs>
</svg>
