<svg width="48" height="48" viewBox="0 0 48 48" fill="none" xmlns="http://www.w3.org/2000/svg">
<g clip-path="url(#clip0_969_26713)">
<path d="M11.6184 31.5011C11.2999 33.2503 12.1949 33.8133 13.7495 33.8133C14.8513 33.8133 16.0874 33.3952 16.3364 32.2919C16.6382 30.9819 14.6837 30.7313 12.7941 30.1246C10.9045 29.5179 9.03902 28.564 9.65783 25.8352C10.3944 22.5873 13.7691 21.3149 16.4043 21.3149C19.198 21.3149 21.6868 22.7533 20.9442 26.1084H17.2872C17.6525 24.7501 16.5507 24.3154 15.4308 24.3154C14.643 24.3154 13.594 24.6052 13.3737 25.5862C13.1126 26.7317 15.0912 26.9446 16.9959 27.5483C18.9006 28.152 20.7027 29.1496 20.096 31.8361C19.2402 35.6093 15.9379 36.8168 12.8515 36.8168C9.62462 36.8168 7.1162 35.318 7.95536 31.5071L11.6184 31.5011Z" fill="#005EA1"/>
<path d="M36.9289 21.6274H40.5859L37.2157 36.4984H33.5557L36.9289 21.6274Z" fill="#005EA1"/>
<path d="M23.5978 21.6289H30.1646C32.593 21.5882 35.0969 22.2523 34.3906 25.3568C34.0887 26.6895 33.0956 27.7717 31.8626 28.3558C33.2541 28.8086 33.8669 30.1896 33.485 31.8754C32.6851 35.4177 29.982 36.5044 26.9725 36.5044H20.2275L23.5978 21.6289ZM25.9281 27.4819H28.7595C29.3889 27.4819 30.3337 27.1257 30.5706 26.0647C30.8076 25.0037 30.1707 24.6264 29.4039 24.6264H26.5741L25.9281 27.4819ZM24.5863 33.3953H27.5189C28.678 33.3953 29.582 32.9561 29.8628 31.7351C30.1646 30.422 29.3934 29.9843 28.2916 29.9843H25.3606L24.5863 33.3953Z" fill="#005EA1"/>
<path d="M45.6951 15.6579C43.6727 10.2878 32.1026 9.67508 19.8563 14.2874C11.1221 17.5777 4.40428 22.6383 2 27.2204C5.32041 23.7491 10.6904 20.3381 17.1667 17.8961C29.4145 13.2823 40.9832 13.8965 43.0056 19.2681C43.5882 20.8075 43.318 22.5719 42.3506 24.4162C45.3118 21.3252 46.6475 18.1874 45.6951 15.6624" fill="#EE303C"/>
</g>
<defs>
<clipPath id="clip0_969_26713">
<rect width="44" height="25.6215" fill="white" transform="translate(2 11.1892)"/>
</clipPath>
</defs>
</svg>
