<svg width="48" height="48" viewBox="0 0 48 48" fill="none" xmlns="http://www.w3.org/2000/svg">
<g clip-path="url(#clip0_969_26695)">
<path fill-rule="evenodd" clip-rule="evenodd" d="M18.4025 44.5048C17.4234 45.1684 16.279 45.5464 15.0973 45.5967C13.7211 45.5717 12.405 45.0278 11.4128 44.0738C10.4205 43.1198 9.82523 41.8263 9.74609 40.4521L15.294 37.1567L23.9012 41.0127L18.4025 44.5048Z" fill="#72A3B6"/>
<path fill-rule="evenodd" clip-rule="evenodd" d="M21.6783 30.3201L17.5665 28.5102C15.7271 27.7035 13.9958 27.0051 13.9958 24.9886C13.9686 24.5957 14.0266 24.2016 14.1658 23.8332C14.305 23.4647 14.5222 23.1307 14.8024 22.854L23.4883 26.6707L21.3537 27.9298C20.7537 28.2839 20.37 28.6085 20.37 29.0709C20.37 29.5332 20.9307 29.9857 21.7078 30.3201H21.6783Z" fill="#96CE8E"/>
<path fill-rule="evenodd" clip-rule="evenodd" d="M25.7115 11.3449L21.4916 13.9123C21.1178 14.1385 20.6062 14.4927 20.6062 15.0632C20.6062 15.6338 21.5899 16.1846 22.4457 16.5978L17.183 14.2763C15.6387 13.5877 14.0746 12.8204 14.0746 10.9416C14.064 10.2407 14.2702 9.55359 14.6648 8.97424L26.0755 2.00977C26.8741 2.44887 27.5424 3.0915 28.0123 3.87242C28.4822 4.65333 28.7371 5.54472 28.7511 6.45602C28.758 7.47866 28.4765 8.48254 27.9389 9.35248C27.4013 10.2224 26.6293 10.9232 25.7115 11.3744V11.3449Z" fill="#72A3B6"/>
<path fill-rule="evenodd" clip-rule="evenodd" d="M34.6732 19.5684L33.6305 20.1685L24.9053 16.3223L35.0372 10.2136C35.8382 10.6552 36.5094 11.299 36.9841 12.0809C37.4587 12.8627 37.7201 13.7553 37.7423 14.6697C37.7585 15.698 37.4775 16.7091 36.9331 17.5815C36.3887 18.454 35.604 19.1507 34.6732 19.5881V19.5684Z" fill="#96CE8E"/>
<path fill-rule="evenodd" clip-rule="evenodd" d="M27.3052 26.9856L32.4695 29.248C34.4368 30.1137 34.9976 31.1367 34.9976 32.4155C34.9805 32.794 34.8842 33.1648 34.7147 33.5037C34.5453 33.8426 34.3065 34.1421 34.0139 34.3829L25.3477 30.5268L26.8035 29.7202C28.043 29.0218 28.4659 28.6185 28.4659 28.166C28.4659 27.7135 28.161 27.3889 27.315 26.9954L27.3052 26.9856Z" fill="#72A3B6"/>
<path fill-rule="evenodd" clip-rule="evenodd" d="M36.5223 46C34.2272 44.3453 31.7441 42.9684 29.125 41.8981L16.0027 36.0648C12.6975 34.5893 10.5039 32.6416 10.5039 29.3365C10.5039 26.0313 12.0581 24.5755 14.0747 23.2967L14.8026 22.854C14.5224 23.1307 14.3052 23.4647 14.166 23.8332C14.0268 24.2016 13.9688 24.5957 13.996 24.9886C13.996 27.0051 15.7272 27.7035 17.5667 28.5102L32.8335 35.2385C35.5091 36.3894 37.9289 38.3568 37.9289 41.6817C37.9619 43.2388 37.466 44.761 36.5223 46Z" fill="#4C9847"/>
<path fill-rule="evenodd" clip-rule="evenodd" d="M34.9479 33.7728L33.9642 34.3729C34.2569 34.1321 34.4956 33.8326 34.6651 33.4937C34.8345 33.1548 34.9309 32.784 34.9479 32.4055C34.9479 31.1267 34.3479 30.1037 32.4199 29.2381L16.0908 22.0671C12.7856 20.5817 10.7297 18.7029 10.7297 15.4174C10.7189 14.0867 11.0761 12.7789 11.7617 11.6384C12.4474 10.4979 13.4349 9.56915 14.6152 8.95459C14.2206 9.53395 14.0145 10.221 14.025 10.9219C14.025 12.8008 15.5891 13.5681 17.1335 14.2566L33.0002 21.2604C35.9021 22.5491 38.2433 24.4967 38.2433 27.9986C38.2768 29.1741 37.9815 30.3356 37.3906 31.3523C36.7997 32.369 35.9367 33.2005 34.8987 33.7532L34.9479 33.7728Z" fill="#296085"/>
</g>
<defs>
<clipPath id="clip0_969_26695">
<rect width="28.5661" height="44" fill="white" transform="translate(9.7168 2)"/>
</clipPath>
</defs>
</svg>
