<svg width="48" height="48" viewBox="0 0 48 48" fill="none" xmlns="http://www.w3.org/2000/svg">
<g clip-path="url(#clip0_969_26688)">
<path d="M45.7447 17.992C46.1598 16.7388 46.0603 15.3721 45.4682 14.1922C44.8761 13.0124 43.8398 12.1158 42.587 11.6996L16.512 2.94607C15.8914 2.73543 15.235 2.65057 14.5812 2.69641C13.9274 2.74226 13.2893 2.91791 12.7041 3.2131" fill="white"/>
<path d="M12.7039 3.21313C11.5232 3.80405 10.6254 4.83965 10.2079 6.09228L2.25538 29.9962C1.84354 31.2495 1.94449 32.6148 2.53619 33.7938C3.12789 34.9729 4.16222 35.8698 5.41316 36.2886L31.4997 45.0421C32.1208 45.2502 32.7768 45.3338 33.4303 45.2879C34.0837 45.2421 34.7216 45.0679 35.3076 44.7751C35.8924 44.4845 36.4133 44.0802 36.8398 43.5858C37.2664 43.0914 37.5902 42.5169 37.7921 41.896L45.7562 17.992" fill="white"/>
<path d="M25.4627 26.1766C24.0272 27.7852 22.2337 29.0339 20.2269 29.822L19.0659 30.2747V19.1993L20.2269 19.652C22.2363 20.4359 24.0337 21.6806 25.4743 23.2858C26.3861 21.7941 26.961 20.1213 27.1589 18.3842C27.3568 16.6472 27.1729 14.8879 26.6201 13.2293C26.0672 11.5708 25.1588 10.053 23.9582 8.78209C22.7577 7.5112 21.294 6.51787 19.6696 5.87157L15.8617 4.57131C15.4584 4.43898 15.0331 4.38747 14.6099 4.41974C14.1868 4.45202 13.7741 4.56744 13.3956 4.75939C13.0171 4.95134 12.6802 5.21605 12.4041 5.53837C12.128 5.8607 11.9182 6.2343 11.7867 6.6378L3.81102 30.565C3.55062 31.3887 3.62512 32.2818 4.0184 33.051C4.41169 33.8202 5.09211 34.4035 5.91234 34.6747L24.0115 40.7117C25.8167 38.7842 26.9351 36.3147 27.1933 33.6866C27.4515 31.0584 26.835 28.4185 25.4395 26.1766H25.4627ZM14.991 18.5375V30.9597H13.1915V18.5724L14.991 18.5375Z" fill="#2293C8"/>
<path d="M24.4178 24.7254C23.3984 23.5348 22.1612 22.5497 20.7725 21.823V27.6278C22.1671 26.8951 23.4053 25.8974 24.4178 24.6905" fill="#E43D30"/>
<path d="M42.0175 13.2901L25.4043 7.74072C27.4911 10.0227 28.7422 12.9451 28.9531 16.0302C29.1639 19.1153 28.3221 22.1807 26.5652 24.7254C28.2724 27.1941 29.12 30.1559 28.9773 33.154C28.8347 36.1521 27.7097 39.0199 25.7758 41.3154L32.0217 43.3935C32.4249 43.5274 32.8506 43.5801 33.2742 43.5486C33.6979 43.5171 34.1111 43.4019 34.49 43.2097C34.8689 43.0176 35.2059 42.7523 35.4817 42.4291C35.7575 42.106 35.9665 41.7314 36.0966 41.327L44.1072 17.4114C44.3713 16.5893 44.2999 15.6961 43.9085 14.9263C43.5171 14.1566 42.8374 13.5727 42.0175 13.3017V13.2901ZM37.6175 30.9365H35.3652L30.7214 24.7254L35.3652 18.526H37.6871L33.0433 24.7486L37.6175 30.9365Z" fill="#215C9C"/>
</g>
<defs>
<clipPath id="clip0_969_26688">
<rect width="44" height="42.6185" fill="white" transform="translate(2 2.69067)"/>
</clipPath>
</defs>
</svg>
