<svg width="48" height="48" viewBox="0 0 48 48" fill="none" xmlns="http://www.w3.org/2000/svg">
<g clip-path="url(#clip0_969_26830)">
<path d="M21.0684 29.0742C21.5412 29.0742 22.2978 29.4524 23.3694 30.5871C28.2931 36.0556 34.0474 40.7145 40.4209 44.3922C41.1773 44.802 41.5871 45.1171 41.5871 45.5268C41.5871 45.9366 41.5872 46.1257 40.8938 46.1257C37.677 45.7359 34.5086 45.0178 31.4382 43.9825C29.7046 43.163 25.9223 40.1057 21.4466 32.3521C20.8966 31.6786 20.5279 30.8758 20.3751 30.0197C20.3524 29.9115 20.3529 29.7996 20.3763 29.6915C20.3997 29.5834 20.4455 29.4815 20.5109 29.3923C20.5763 29.3031 20.6597 29.2287 20.7558 29.1739C20.8519 29.1191 20.9584 29.0851 21.0684 29.0742Z" fill="#659AD2"/>
<path d="M36.0088 6.91735C36.0088 6.91735 37.112 9.09214 26.5533 10.5735L28.476 5.12086C28.6251 4.78922 28.691 4.42624 28.6682 4.06337C28.6454 3.70051 28.5346 3.3487 28.3452 3.03831C28.1559 2.72792 27.8937 2.4683 27.5815 2.28199C27.2693 2.09567 26.9163 1.98826 26.5533 1.96899C26.0119 2.01563 25.4971 2.22387 25.0756 2.5667C24.6541 2.90954 24.3453 3.37111 24.1894 3.89158L21.0375 11.1409C18.1631 11.3633 15.2758 11.3633 12.4014 11.1409C10.4788 10.9518 9.97462 12.0234 9.97462 13.1265C9.97462 15.0176 13.3471 16.9719 15.4904 16.7512L18.6422 16.4676L6.85412 43.3844C6.41286 44.393 6.03465 46.0005 8.05184 46.0005C10.069 46.0005 14.6393 44.1409 15.3957 41.9976L20.6908 27.0578C23.1305 26.5959 25.5922 26.2593 28.0663 26.0492C29.2955 26.0492 29.9573 26.6165 29.9573 27.3099C29.9573 28.8543 26.2382 33.2985 19.0205 38.7827C18.2325 39.3816 19.0203 39.8543 19.304 39.8543C22.3723 38.4869 25.2448 36.7169 27.8456 34.5908C30.5562 32.5421 35.2524 27.2469 35.2524 23.4962C35.2524 22.0463 34.622 20.6911 31.6593 20.6911C28.6965 20.6911 23.7481 21.3214 22.645 21.4475C23.3699 19.4618 24.0319 17.5077 24.6938 15.6796C30.2726 14.9232 33.582 14.4188 35.5362 14.009C38.2468 13.4417 40.4215 11.8973 40.4215 10.2899C40.4215 6.88585 36.0088 6.91735 36.0088 6.91735Z" fill="#632D00"/>
</g>
<defs>
<clipPath id="clip0_969_26830">
<rect width="35.0487" height="44" fill="white" transform="translate(6.47559 2)"/>
</clipPath>
</defs>
</svg>
