<svg width="48" height="48" viewBox="0 0 48 48" fill="none" xmlns="http://www.w3.org/2000/svg">
<g clip-path="url(#clip0_969_26722)">
<path d="M24.0087 8.4563C10.7474 8.4563 2.00586 15.4158 2.00586 24.0056C2.00586 32.5953 10.7418 39.5492 24.0087 39.5492C37.2756 39.5492 46.0059 32.5841 46.0059 24.0056C46.0059 15.427 37.2643 8.4563 24.0087 8.4563Z" fill="white"/>
<path d="M27.944 29.8125C31.7217 29.1548 44.477 26.5296 42.903 19.2552C42.3408 16.6412 39.6537 13.7686 35.595 11.7729C31.9231 10.1954 27.9599 9.40998 23.9639 9.46809C11.6583 9.46809 3.09668 15.9779 3.09668 24.0055C3.09668 29.5933 7.25102 34.4447 13.9351 36.8732C15.3348 33.1405 20.9789 31.0156 27.944 29.8125Z" fill="#007DC5"/>
<path d="M24.0085 32.3873C18.4825 33.0788 15.9528 34.8608 14.3281 37.0251C17.4218 38.0531 20.6643 38.5622 23.9241 38.5317C36.2354 38.5317 44.797 32.0275 44.797 24.0055C44.797 23.302 44.7311 22.6 44.6003 21.9087C44.2124 31.3304 30.0685 31.634 24.0085 32.3873Z" fill="url(#paint0_linear_969_26722)"/>
<path d="M12.0686 16.4165H7.94238L7.98735 16.5346C8.15134 17.1786 8.20645 17.8455 8.15038 18.5077C8.15038 18.6764 8.15038 28.0644 8.15038 28.0644H8.22907C8.22907 28.0644 10.1123 28.1318 11.8775 28.1318C15.5652 28.1318 18.0612 25.6359 18.0612 21.9144C18.0387 18.5639 15.6945 16.4165 12.0686 16.4165ZM9.91554 17.4565C10.1516 17.4565 10.8824 17.3834 11.4053 17.3834C14.559 17.3834 16.0262 18.9125 16.0262 22.1898C16.0262 25.5628 14.722 27.2493 12.0405 27.2493C10.0729 27.2493 9.91554 27.1537 9.91554 25.99V17.4565Z" fill="white"/>
<path d="M29.1188 27.9574C29.0569 27.2716 29.0288 26.8331 29.0288 26.4115V22.3359H27.0725L27.1343 22.4652C27.2903 22.8618 27.3575 23.2878 27.3311 23.7132C27.3311 23.7413 27.3311 26.5239 27.2636 27.2042C26.7651 27.3135 26.2562 27.3682 25.7458 27.3672C22.6315 27.3672 21.0518 25.5795 21.0518 22.0604C21.0518 19.3733 22.8282 17.3664 25.3748 17.1809C26.6047 17.0528 27.8367 17.4031 28.8152 18.1591L28.9557 18.2827V16.6356H28.8883C28.0047 16.4444 27.105 16.3372 26.2012 16.3152C21.7039 16.3152 19.0449 18.6706 19.0449 22.6226C19.0449 26.8275 22.3111 28.3285 25.3692 28.3285C26.5998 28.3324 27.8288 28.2422 29.0457 28.0586H29.1244L29.1188 27.9574Z" fill="white"/>
<path d="M36.1169 21.6558C36.7326 21.5072 37.2819 21.1594 37.6794 20.6663C38.0769 20.1732 38.3004 19.5625 38.3149 18.9293C38.3149 17.3553 36.8926 16.4165 34.5147 16.4165H30.9844V16.5177C31.074 17.0259 31.1098 17.5422 31.0912 18.058V28.1375H31.1755C31.1755 28.1375 32.564 28.1094 34.2674 28.1094C37.2356 28.1094 38.9389 26.822 38.9389 24.5734C38.9614 23.1849 37.809 22.0212 36.1169 21.6558ZM32.8732 22.218H33.7839C35.8864 22.218 36.9545 23.0443 36.9545 24.6746C36.9545 26.3048 36.0382 27.2268 34.1437 27.2268C33.233 27.2268 32.8732 26.8951 32.8732 26.0463V22.218ZM32.8732 17.3216H34.0256C35.8414 17.3216 36.6172 17.8837 36.6172 19.1598C36.6172 20.6214 35.6671 21.3073 33.6209 21.3073H32.8676L32.8732 17.3216Z" fill="white"/>
</g>
<defs>
<linearGradient id="paint0_linear_969_26722" x1="13.8278" y1="30.2174" x2="45.05" y2="30.2174" gradientUnits="userSpaceOnUse">
<stop offset="0.1" stop-color="#007DC5"/>
<stop offset="0.23" stop-color="#0083CB"/>
<stop offset="0.4" stop-color="#0095DA"/>
<stop offset="0.75" stop-color="#00B49D"/>
<stop offset="1" stop-color="#72BF44"/>
</linearGradient>
<clipPath id="clip0_969_26722">
<rect width="44" height="31.0873" fill="white" transform="translate(2 8.4563)"/>
</clipPath>
</defs>
</svg>
