<svg width="48" height="48" viewBox="0 0 48 48" fill="none" xmlns="http://www.w3.org/2000/svg">
<g clip-path="url(#clip0_969_26770)">
<path d="M2.06247 23.9294C2.04493 23.9349 2.02959 23.9458 2.01871 23.9606C2.00782 23.9754 2.00195 23.9933 2.00195 24.0117C2.00195 24.0301 2.00782 24.048 2.01871 24.0628C2.02959 24.0776 2.04493 24.0885 2.06247 24.094L8.84979 28.5771L10.7935 19.4307L2.06247 23.9294Z" fill="#E72511"/>
<path d="M42.2852 19.4229H40.561C40.4551 19.4294 40.3513 19.456 40.2553 19.5012L31.634 23.9373C31.5556 23.9373 31.5478 24.047 31.634 24.1019L38.3038 28.4909C38.3951 28.5421 38.497 28.5716 38.6016 28.5771H40.318C40.4121 28.5771 40.4199 28.5771 40.318 28.4909L33.4993 24.0078L42.2852 19.5012C42.3558 19.462 42.3479 19.4229 42.2852 19.4229Z" fill="#F08300"/>
<path d="M38.5777 19.4229H26.6097L24.666 28.5771H36.6183C36.7123 28.5771 36.7202 28.5771 36.6183 28.4909L29.8153 24.0078L38.5542 19.5012C38.6796 19.462 38.6717 19.4229 38.5777 19.4229Z" fill="#E72511"/>
<path d="M45.9297 19.4229H44.2133C44.1071 19.428 44.0031 19.4547 43.9076 19.5012L35.2863 23.9373C35.2079 23.9373 35.2079 24.047 35.2863 24.1019L41.9639 28.4909C42.0521 28.5429 42.1516 28.5725 42.2539 28.5771H43.9782C44.0644 28.5771 44.08 28.5771 43.9782 28.4909L37.1673 24.0078L45.914 19.5012C46.0238 19.462 46.0159 19.4229 45.9297 19.4229Z" fill="#FABE00"/>
<path d="M38.0531 13.435H9.90059C9.23069 13.4026 8.57062 13.606 8.0351 14.0098C7.49959 14.4136 7.1225 14.9922 6.96935 15.6452C6.89981 15.9554 6.92206 16.2792 7.03339 16.577C7.14473 16.8749 7.34034 17.1339 7.59636 17.3224L17.7146 24L38.0923 13.5133C38.1471 13.4663 38.1393 13.435 38.0531 13.435Z" fill="#E72511"/>
<path d="M33.5853 34.4788L17.7221 24L4.76665 30.6854C4.43945 30.8572 4.1514 31.0949 3.92072 31.3836C3.69004 31.6722 3.52173 32.0056 3.42643 32.3627C3.15995 33.5775 3.84183 34.565 5.41717 34.565H33.5697C33.6637 34.565 33.6637 34.5258 33.5853 34.4788Z" fill="#E72511"/>
</g>
<defs>
<clipPath id="clip0_969_26770">
<rect width="44" height="21.13" fill="white" transform="translate(2 13.4351)"/>
</clipPath>
</defs>
</svg>
