<svg width="62" height="63" viewBox="0 0 62 63" fill="none" xmlns="http://www.w3.org/2000/svg">
<g filter="url(#filter0_d_1276_18162)">
<path d="M60 30L30 60C13.4315 60 0 46.5685 0 30C0 13.4315 13.4315 0 30 0C46.5685 0 60 13.4315 60 30Z" fill="white"/>
<path d="M59.2484 29.6909L29.6909 59.2484C13.679 59.0826 0.75 46.0512 0.75 30C0.75 13.8457 13.8457 0.75 30 0.75C46.0512 0.75 59.0826 13.679 59.2484 29.6909Z" stroke="#D9D9D9" stroke-width="1.5"/>
</g>
<path fill-rule="evenodd" clip-rule="evenodd" d="M30 60C30 45 45 30 60 30L30 60Z" fill="#ADADAD"/>
<g clip-path="url(#clip0_1276_18162)">
<path d="M35.6699 33.0761C35.5844 32.5766 35.439 32.089 35.2368 31.624C34.6494 30.243 33.642 29.08 32.3562 28.2981C31.3407 27.7025 30.1818 27.3923 29.0031 27.4006C27.8244 27.4088 26.67 27.7352 25.663 28.3449C24.7249 28.9045 23.9646 29.7164 23.4696 30.6871C23.3011 31.0189 23.1595 31.3635 23.046 31.7177C22.7396 32.6374 22.6225 33.6092 22.7018 34.575C22.781 35.5408 23.055 36.4808 23.5073 37.3389C23.8167 37.864 24.2891 38.275 24.8534 38.51C25.1351 38.6267 25.4405 38.6757 25.7447 38.6529C26.049 38.6301 26.3435 38.5362 26.6044 38.3788C26.8915 38.1522 27.1059 37.847 27.2212 37.5009C27.3366 37.1547 27.348 36.7826 27.254 36.4301C27.0353 35.5345 27.0581 34.5973 27.3199 33.7132C27.4238 33.4242 27.591 33.1617 27.8094 32.945C27.945 32.8149 28.1008 32.7074 28.2706 32.6264C28.6254 32.449 29.0261 32.3836 29.4191 32.439C29.7602 32.5124 30.0789 32.6653 30.3489 32.8852C30.619 33.1051 30.8327 33.3856 30.9724 33.7038C31.2338 34.3274 31.3713 34.9956 31.3772 35.6712C31.382 38.7224 30.9283 41.757 30.031 44.6746C29.9463 44.9744 29.8616 45.2648 29.7863 45.5646C29.711 45.8644 29.598 46.0799 29.7863 46.3047C29.852 46.3976 29.9436 46.4693 30.0499 46.5109C30.5017 46.6889 30.8594 46.4172 31.1607 46.1174C32.8707 44.2945 34.1309 42.1006 34.8415 39.7092C35.1373 38.8329 35.3731 37.9377 35.5475 37.0297C35.8165 35.7195 35.8642 34.3738 35.6887 33.048" fill="#008375"/>
<path d="M48.3211 19.1926C48.3177 19.0896 48.2932 18.9883 48.2491 18.895C48.205 18.8017 48.1423 18.7183 48.0648 18.65C47.9873 18.5816 47.8966 18.5296 47.7982 18.4973C47.6999 18.4649 47.5959 18.4529 47.4927 18.4619C47.059 18.5216 46.6387 18.6546 46.2501 18.8553C38.3196 21.68 29.8036 22.4789 21.4824 21.1788C20.0798 20.9727 18.6583 20.701 17.2462 20.4761C16.3613 20.3356 15.4859 20.1389 14.601 20.0733C13.8009 19.9205 12.9723 20.078 12.2852 20.5136C11.9322 20.8999 11.7133 21.3889 11.6607 21.9085C11.6082 22.428 11.7248 22.9506 11.9934 23.3992C12.5929 24.4211 13.4622 25.2603 14.5068 25.8257C15.4764 26.5094 16.6238 26.8999 17.8111 26.9499C20.949 26.7438 24.0869 26.4315 27.2248 26.013C32.5436 25.3291 38.1072 24.6827 43.1059 22.6309C44.7597 21.9764 46.3175 21.1035 47.7375 20.0358C47.9916 19.8484 48.3588 19.5299 48.3588 19.1645" fill="#008375"/>
<path d="M26.0117 16.5414C26.0117 17.349 26.334 18.1234 26.9078 18.6945C27.4816 19.2655 28.2598 19.5863 29.0712 19.5863C29.8826 19.5863 30.6608 19.2655 31.2346 18.6945C31.8083 18.1234 32.1307 17.349 32.1307 16.5414C32.1302 16.2893 32.0757 16.0401 31.9706 15.8107C31.707 15.2579 31.4058 14.9862 31.4435 14.3211C31.4435 13.431 30.3232 13.3842 29.7019 13.3842C29.0112 13.3618 28.3247 13.4997 27.6968 13.7871C27.2091 14.0341 26.7965 14.406 26.5012 14.8645C26.1917 15.3324 26.022 15.8782 26.0117 16.4384V16.5133" fill="#D50037"/>
</g>
<defs>
<filter id="filter0_d_1276_18162" x="0" y="0" width="62" height="63" filterUnits="userSpaceOnUse" color-interpolation-filters="sRGB">
<feFlood flood-opacity="0" result="BackgroundImageFix"/>
<feColorMatrix in="SourceAlpha" type="matrix" values="0 0 0 0 0 0 0 0 0 0 0 0 0 0 0 0 0 0 127 0" result="hardAlpha"/>
<feOffset dx="1" dy="2"/>
<feGaussianBlur stdDeviation="0.5"/>
<feComposite in2="hardAlpha" operator="out"/>
<feColorMatrix type="matrix" values="0 0 0 0 0 0 0 0 0 0 0 0 0 0 0 0 0 0 0.35 0"/>
<feBlend mode="normal" in2="BackgroundImageFix" result="effect1_dropShadow_1276_18162"/>
<feBlend mode="normal" in="SourceGraphic" in2="effect1_dropShadow_1276_18162" result="shape"/>
</filter>
<clipPath id="clip0_1276_18162">
<rect width="36.6667" height="33.1746" fill="white" transform="translate(11.666 13.4121)"/>
</clipPath>
</defs>
</svg>
