<svg width="24" height="24" viewBox="0 0 24 24" fill="none" xmlns="http://www.w3.org/2000/svg">
<g clip-path="url(#clip0_969_26597)">
<path d="M18.6274 13.1581L12.7183 19.2585C12.3253 19.6641 11.6747 19.6641 11.2817 19.2585L5.37258 13.1581C3.54247 11.2687 3.54247 8.20547 5.37258 6.31612C7.20269 4.42677 10.1255 4.31216 12 7.69875C13.8745 4.31216 16.7973 4.42677 18.6274 6.31612C20.4575 8.20547 20.4575 11.2687 18.6274 13.1581Z" fill="#111111"/>
<path fill-rule="evenodd" clip-rule="evenodd" d="M12.0004 6.14708C11.0114 4.86829 9.80978 4.15987 8.54275 3.99692C6.99641 3.79804 5.507 4.4327 4.39898 5.54073C2.15346 7.78624 2.15347 11.4269 4.39898 13.6725L10.7629 20.0364C11.4464 20.7198 12.5544 20.7198 13.2378 20.0364L19.6018 13.6725C21.8473 11.4269 21.8473 7.78624 19.6018 5.54073C18.4938 4.4327 17.0044 3.79804 15.458 3.99692C14.191 4.15987 12.9893 4.86829 12.0004 6.14708ZM8.35141 5.48466C7.35037 5.35592 6.30424 5.75679 5.45964 6.60139C3.79991 8.26112 3.79991 10.9521 5.45964 12.6118L11.8236 18.9758C11.9212 19.0734 12.0795 19.0734 12.1772 18.9758L18.5411 12.6118C20.2008 10.9521 20.2008 8.26112 18.5411 6.60139C17.6965 5.75679 16.6504 5.35592 15.6494 5.48466C14.6625 5.61158 13.5646 6.27421 12.6516 7.87209L12.0004 9.01166L11.3492 7.87209C10.4361 6.27421 9.33825 5.61158 8.35141 5.48466Z" fill="#111111"/>
</g>
<defs>
<clipPath id="clip0_969_26597">
<rect width="24" height="24" fill="white"/>
</clipPath>
</defs>
</svg>
