<svg width="24" height="24" viewBox="0 0 24 24" fill="none" xmlns="http://www.w3.org/2000/svg">
<path fill-rule="evenodd" clip-rule="evenodd" d="M4.5 9.5V17C4.5 18.3807 5.61929 19.5 7 19.5H19.5V9.5H4.5ZM4 8C3.44772 8 3 8.44772 3 9V17C3 19.2091 4.79086 21 7 21H21V9C21 8.44772 20.5523 8 20 8H4Z" />
<path fill-rule="evenodd" clip-rule="evenodd" d="M19.5 6.5H4.5V10.5H19.5V6.5ZM3 5V12H21V5H3Z" />
<path d="M18 14C18 14.5523 17.5523 15 17 15C16.4477 15 16 14.5523 16 14C16 13.4477 16.4477 13 17 13C17.5523 13 18 13.4477 18 14Z" />
</svg>
