<?xml version="1.0" encoding="UTF-8"?>
<svg id="_레이어_2" data-name="레이어 2" xmlns="http://www.w3.org/2000/svg" viewBox="0 0 130.55 29.95">
  <defs>
    <style>
      .cls-1 {
        fill: #000;
        stroke-width: 0px;
      }
    </style>
  </defs>
  <g id="_레이어_1-2" data-name="레이어 1">
    <g>
      <path class="cls-1" d="M31.95,18.48c-1.84,7.08-7.04,11.48-17.28,11.48S0,24.32,0,17.52,4,.36,18.4.36c10.32,0,14.64,4.8,14.68,11.36h-11.44c.2-2.72-.56-4.56-3.12-4.56-4.76,0-6.08,7.68-6.08,10.88s1.16,4.76,3.4,4.76c2.08,0,3.8-1.2,4.96-4.32h11.16Z"/>
      <path class="cls-1" d="M50.64,0l-1.96,9.28c1.36-.88,3.28-1.96,6.52-1.96,6,0,7.84,3.52,6.68,9l-2.72,12.92h-11.6l2.72-12.96c.32-1.36.08-2.2-.96-2.2-1.36,0-1.96,1.28-2.32,3l-2.56,12.16h-11.6L39.04,0h11.6Z"/>
      <path class="cls-1" d="M89.4,21.88c-.36,1.68-1.24,6.12-1.44,7.36h-10.76c.04-.48.2-1.36.32-2.16-1.6,1.56-3.8,2.72-7.44,2.72-4.12,0-6.6-2.28-6.6-5.96,0-5.48,4.44-7.64,9.96-8.16,1.84-.2,4.2-.28,6.48-.32l.12-.6c.24-1.12-.16-1.84-1.6-1.84-1.24,0-1.84.64-2.16,1.76h-10.08c.52-2.84,2.6-7.36,12.8-7.36s12.64,4.08,11.68,8.6l-1.28,5.96ZM78.92,20.12c-1,0-1.76.04-2.64.2-1.04.2-1.6.84-1.6,1.84,0,.72.6,1.28,1.36,1.28,1.28,0,2.28-.52,2.8-3l.08-.32Z"/>
      <path class="cls-1" d="M97.88,1.08h11.72l-2.32,11c2.8-3.12,6.44-7.4,9.56-11h13.72l-13.04,12,7.6,16.16h-12.72l-4-9.92-3.2,2.56-1.56,7.36h-11.72l5.96-28.16Z"/>
    </g>
  </g>
</svg>