<svg xmlns="http://www.w3.org/2000/svg" width="13" height="13" viewBox="0 0 13 13" fill="none">
  <path d="M4.25 5.75H4.255M6.5 5.75H6.505M8.75 5.75H8.755M4 9.5V10.6678C4 10.9342 4 11.0674 4.05461 11.1358C4.10211 11.1953 4.17413 11.2299 4.25027 11.2298C4.33781 11.2297 4.44184 11.1465 4.64988 10.9801L5.84261 10.0259C6.08626 9.83099 6.20808 9.73353 6.34374 9.66423C6.4641 9.60274 6.59221 9.5578 6.72461 9.53063C6.87383 9.5 7.02985 9.5 7.34187 9.5H8.6C9.44008 9.5 9.86012 9.5 10.181 9.33651C10.4632 9.1927 10.6927 8.96323 10.8365 8.68099C11 8.36012 11 7.94008 11 7.1V4.4C11 3.55992 11 3.13988 10.8365 2.81901C10.6927 2.53677 10.4632 2.3073 10.181 2.16349C9.86012 2 9.44008 2 8.6 2H4.4C3.55992 2 3.13988 2 2.81901 2.16349C2.53677 2.3073 2.3073 2.53677 2.16349 2.81901C2 3.13988 2 3.55992 2 4.4V7.5C2 7.96499 2 8.19748 2.05111 8.38823C2.18981 8.90587 2.59413 9.31019 3.11177 9.44889C3.30252 9.5 3.53501 9.5 4 9.5ZM4.5 5.75C4.5 5.88807 4.38807 6 4.25 6C4.11193 6 4 5.88807 4 5.75C4 5.61193 4.11193 5.5 4.25 5.5C4.38807 5.5 4.5 5.61193 4.5 5.75ZM6.75 5.75C6.75 5.88807 6.63807 6 6.5 6C6.36193 6 6.25 5.88807 6.25 5.75C6.25 5.61193 6.36193 5.5 6.5 5.5C6.63807 5.5 6.75 5.61193 6.75 5.75ZM9 5.75C9 5.88807 8.88807 6 8.75 6C8.61193 6 8.5 5.88807 8.5 5.75C8.5 5.61193 8.61193 5.5 8.75 5.5C8.88807 5.5 9 5.61193 9 5.75Z" stroke="#AEB5BC" stroke-linecap="round" stroke-linejoin="round"/>
</svg>