<svg width="247" height="102" viewBox="0 0 247 102" fill="none" xmlns="http://www.w3.org/2000/svg">
<g clip-path="url(#clip0_165_2754)">
<path d="M71.5832 46.5014C66.4612 55.1502 57.9218 58.9825 44.4007 55.0884C30.8796 51.1943 27.1618 42.0587 29.7477 33.0798C32.3337 24.101 41.5683 11.9465 60.5691 17.4188C74.1958 21.3433 78.0746 29.3241 75.6328 38.0013L60.5272 33.6508C61.8257 30.1353 61.5219 27.4168 58.1416 26.4432C51.8564 24.6331 47.1929 34.2719 45.976 38.4972C44.7591 42.7225 45.6975 45.2235 48.6552 46.0754C51.4017 46.8664 54.1292 45.9359 56.8473 42.2574L71.5832 46.5014Z" fill="#01EA2B"/>
<path d="M103.277 29.2036L97.1598 40.7117C99.2902 40.067 102.236 39.3711 106.514 40.6032C114.437 42.8849 115.528 48.2325 111.912 55.0272L103.407 71.0526L88.0904 66.6413L96.6104 50.5631C97.5502 48.889 97.5527 47.6886 96.1795 47.2931C94.3837 46.7759 93.1047 48.2379 91.9752 50.3721L83.9707 65.4548L68.6539 61.0435L87.9732 24.7961L103.29 29.2075L103.277 29.2036Z" stroke="#111111" stroke-width="1.40945" stroke-miterlimit="10"/>
<path d="M146.135 72.8342C145.021 74.9156 142.171 80.4436 141.435 82.0049L127.228 77.913C127.463 77.2944 128.009 76.1933 128.471 75.1826C125.766 76.634 122.42 77.329 117.613 75.9448C112.173 74.378 109.766 70.4244 111.165 65.5652C113.249 58.3293 119.933 57.1657 127.419 58.5783C129.925 59.0139 133.072 59.8058 136.097 60.62L136.484 59.8734C137.227 58.4858 136.972 57.383 135.071 56.8354C133.434 56.3638 132.398 56.9807 131.55 58.3379L118.24 54.5046C120.007 50.9524 124.472 45.7751 137.94 49.654C151.408 53.5329 153.079 59.8481 150.092 65.4513L146.135 72.8342ZM132.967 66.5249C131.646 66.1446 130.628 65.9084 129.405 65.785C127.956 65.6536 126.973 66.2857 126.592 67.6061C126.319 68.5568 126.898 69.5244 127.901 69.8134C129.592 70.3002 131.11 69.9939 132.74 66.917L132.967 66.5249Z" fill="white"/>
<path d="M165.243 48.5944L180.718 53.0513L173.471 66.6936C178.355 63.6387 184.789 59.3716 190.278 55.8046L208.394 61.0221L186.612 71.9082L190.502 96.1363L173.706 91.299L172.197 76.6794L166.998 78.8427L162.139 87.9677L146.664 83.5108L165.243 48.5944Z" fill="white"/>
<path d="M37.9062 11.2062C29.9012 9.55851 21.1273 13.6093 16.618 21.7196C12.1087 29.8299 13.3058 39.4264 18.9349 45.3517L37.9062 11.2062Z" fill="#01EA2B"/>
<path d="M18.4514 13.2677C13.9738 13.5225 9.57794 16.1745 7.08836 20.6482C4.59877 25.1218 4.6766 30.2634 6.81809 34.1977L18.4514 13.2677Z" fill="#01EA2B"/>
</g>
<g clip-path="url(#clip1_165_2754)">
<path d="M246.584 25.8884L170.889 0L145 75.6954L220.696 101.584L246.584 25.8884Z" fill="#A8FF00"/>
<path d="M181.012 32.6771C175.871 31.3527 170.05 33.701 166.866 38.819C163.681 43.937 164.152 50.2012 167.615 54.2249L181.01 32.6855L181.012 32.6771Z" fill="black"/>
<path d="M208.806 68.3031C213.947 69.6274 219.768 67.2792 222.953 62.1612C226.137 57.0432 225.666 50.779 222.203 46.7552L208.809 68.2946L208.806 68.3031Z" fill="black"/>
<path d="M186.199 49.289C187.058 49.5825 188.194 48.5311 188.738 46.9406C189.282 45.3501 189.027 43.8228 188.169 43.5293C187.311 43.2357 186.174 44.2872 185.63 45.8777C185.086 47.4682 185.341 48.9955 186.199 49.289Z" fill="black"/>
<path d="M202.531 54.875C203.39 55.1685 204.526 54.1171 205.07 52.5266C205.614 50.9361 205.359 49.4088 204.501 49.1153C203.643 48.8218 202.506 49.8732 201.962 51.4637C201.418 53.0542 201.673 54.5815 202.531 54.875Z" fill="black"/>
<path d="M185.135 52.3969C185.044 55.7522 187.324 59.0131 190.931 60.2465C194.537 61.4798 198.328 60.2956 200.319 57.5901L185.143 52.3997L185.135 52.3969Z" fill="black"/>
</g>
<defs>
<clipPath id="clip0_165_2754">
<rect width="205" height="41.8409" fill="white" transform="translate(12 2.20117) rotate(16.0666)"/>
</clipPath>
<clipPath id="clip1_165_2754">
<rect width="80" height="80" fill="white" transform="translate(170.889) rotate(18.8811)"/>
</clipPath>
</defs>
</svg>
