<svg width="323" height="179" viewBox="0 0 323 179" fill="none" xmlns="http://www.w3.org/2000/svg">
<circle cx="45" cy="79.5365" r="41" fill="#1F1F1F"/>
<path d="M228.424 24.2682L304.164 71.3866L225.488 113.421L228.424 24.2682Z" fill="#FF4242"/>
<path d="M150.5 70.9999L186.916 86.0839L202 122.5L186.916 158.916L150.5 174L114.084 158.916L99 122.5L114.084 86.0839L150.5 70.9999Z" fill="#FF5500"/>
<g clip-path="url(#clip0_169_2754)">
<path d="M45.2548 147.502L14.5029 133L0.000352263 163.752L30.7522 178.254L45.2548 147.502Z" fill="#A8FF00"/>
<path d="M17.2387 147.279C15.1297 146.478 12.5601 147.195 10.9739 149.207C9.38775 151.218 9.29126 153.886 10.5643 155.749L17.2371 147.283L17.2387 147.279Z" fill="black"/>
<path d="M27.2993 163.637C29.4083 164.439 31.9778 163.721 33.564 161.709C35.1502 159.698 35.2467 157.03 33.9736 155.167L27.3009 163.633L27.2993 163.637Z" fill="black"/>
<path d="M18.646 154.54C18.9946 154.705 19.5243 154.314 19.829 153.668C20.1337 153.022 20.0981 152.365 19.7495 152.2C19.4008 152.036 18.8711 152.426 18.5664 153.072C18.2617 153.719 18.2973 154.376 18.646 154.54Z" fill="black"/>
<path d="M25.2817 157.669C25.6304 157.834 26.16 157.443 26.4648 156.797C26.7695 156.151 26.7339 155.494 26.3852 155.329C26.0365 155.165 25.5069 155.556 25.2022 156.202C24.8974 156.848 24.933 157.505 25.2817 157.669Z" fill="black"/>
<path d="M18.0508 155.803C17.8542 157.216 18.6638 158.701 20.1288 159.391C21.5938 160.082 23.2511 159.761 24.2197 158.712L18.0542 155.804L18.0508 155.803Z" fill="black"/>
</g>
<g clip-path="url(#clip1_169_2754)">
<path d="M281.371 126.438L247.901 132.419L253.882 165.889L287.352 159.908L281.371 126.438Z" fill="#A8FF00"/>
<path d="M258.4 142.477C256.217 143.045 254.537 145.118 254.408 147.676C254.28 150.235 255.746 152.466 257.863 153.248L258.401 142.481L258.4 142.477Z" fill="black"/>
<path d="M276.073 149.989C278.257 149.422 279.936 147.349 280.065 144.791C280.193 142.232 278.727 140.001 276.611 139.219L276.072 149.986L276.073 149.989Z" fill="black"/>
<path d="M263.752 147.583C264.131 147.515 264.337 146.89 264.211 146.186C264.085 145.483 263.676 144.968 263.296 145.036C262.917 145.104 262.711 145.729 262.837 146.432C262.963 147.135 263.372 147.65 263.752 147.583Z" fill="black"/>
<path d="M270.973 146.292C271.353 146.224 271.558 145.599 271.433 144.896C271.307 144.193 270.898 143.677 270.518 143.745C270.139 143.813 269.933 144.438 270.059 145.141C270.184 145.845 270.594 146.36 270.973 146.292Z" fill="black"/>
<path d="M263.997 148.957C264.655 150.223 266.175 150.964 267.769 150.68C269.364 150.395 270.529 149.173 270.711 147.757L264.001 148.956L263.997 148.957Z" fill="black"/>
</g>
<g clip-path="url(#clip2_169_2754)">
<path d="M132.47 30.9997L99 36.9808L104.981 70.4506L138.451 64.4695L132.47 30.9997Z" fill="#A8FF00"/>
<path d="M109.499 47.0389C107.315 47.6064 105.636 49.6792 105.507 52.2377C105.379 54.7963 106.845 57.0275 108.961 57.8091L109.5 47.0427L109.499 47.0389Z" fill="black"/>
<path d="M127.172 54.5509C129.355 53.9834 131.035 51.9107 131.164 49.3521C131.292 46.7936 129.826 44.5624 127.709 43.7807L127.171 54.5472L127.172 54.5509Z" fill="black"/>
<path d="M114.85 52.144C115.23 52.0762 115.435 51.4512 115.31 50.7479C115.184 50.0446 114.775 49.5295 114.395 49.5973C114.016 49.6651 113.81 50.2902 113.936 50.9935C114.061 51.6967 114.471 52.2119 114.85 52.144Z" fill="black"/>
<path d="M122.072 50.8535C122.451 50.7857 122.657 50.1606 122.531 49.4574C122.406 48.7541 121.996 48.239 121.617 48.3068C121.237 48.3746 121.032 48.9997 121.157 49.7029C121.283 50.4062 121.692 50.9213 122.072 50.8535Z" fill="black"/>
<path d="M115.096 53.5183C115.754 54.7842 117.273 55.526 118.868 55.2411C120.462 54.9561 121.627 53.7345 121.81 52.3185L115.099 53.5176L115.096 53.5183Z" fill="black"/>
</g>
<defs>
<clipPath id="clip0_169_2754">
<rect width="34" height="34" fill="white" transform="translate(14.5029 133) rotate(25.2486)"/>
</clipPath>
<clipPath id="clip1_169_2754">
<rect width="34" height="34" fill="white" transform="translate(247.901 132.419) rotate(-10.1319)"/>
</clipPath>
<clipPath id="clip2_169_2754">
<rect width="34" height="34" fill="white" transform="translate(99 36.9808) rotate(-10.1319)"/>
</clipPath>
</defs>
</svg>
