<svg xmlns="http://www.w3.org/2000/svg" width="19" height="19" viewBox="0 0 19 19" fill="none">
  <path fill-rule="evenodd" clip-rule="evenodd" d="M9.49931 5.1105C8.7576 4.1514 7.85636 3.62009 6.90609 3.49787C5.74633 3.34871 4.62928 3.82471 3.79826 4.65573C2.11412 6.33987 2.11412 9.07039 3.79826 10.7545L8.57123 15.5275C9.08379 16.0401 9.91482 16.0401 10.4274 15.5275L15.2004 10.7545C16.8845 9.07039 16.8845 6.33987 15.2004 4.65573C14.3693 3.82471 13.2523 3.34871 12.0925 3.49787C11.1423 3.62009 10.241 4.1514 9.49931 5.1105ZM6.76258 4.61368C6.0118 4.51712 5.2272 4.81778 4.59375 5.45122C3.34896 6.69602 3.34896 8.71423 4.59375 9.95903L9.36672 14.732C9.43995 14.8052 9.55867 14.8052 9.63189 14.732L14.4049 9.95903C15.6497 8.71423 15.6497 6.69602 14.4049 5.45122C13.7714 4.81778 12.9868 4.51712 12.236 4.61368C11.4959 4.70887 10.6725 5.20584 9.98769 6.40425L9.49931 7.25893L9.01092 6.40425C8.32611 5.20584 7.50271 4.70887 6.76258 4.61368Z" fill="#F8F9FA"/>
</svg>