<svg width="56" height="62" viewBox="0 0 56 62" fill="none" xmlns="http://www.w3.org/2000/svg">
<g id="FAB" filter="url(#filter0_dddd_1455_30504)">
<circle id="Ellipse 79" cx="28" cy="24" r="24" fill="black"/>
<g id="icon/heart" clip-path="url(#clip0_1455_30504)">
<g id="Icon Frame">
<path id="Union" d="M36.2843 25.4476L28.8978 33.0731C28.4067 33.5802 27.5933 33.5802 27.1022 33.0731L19.7157 25.4476C17.4281 23.0859 17.4281 19.2568 19.7157 16.8951C22.0034 14.5335 25.6569 14.3902 28 18.6234C30.3432 14.3902 33.9966 14.5335 36.2843 16.8951C38.5719 19.2568 38.5719 23.0859 36.2843 25.4476Z" fill="#01EA2B"/>
<path id="Union (Stroke)" fill-rule="evenodd" clip-rule="evenodd" d="M28.0005 16.6839C26.7643 15.0854 25.2622 14.1999 23.6784 13.9962C21.7455 13.7476 19.8838 14.5409 18.4987 15.926C15.6918 18.7329 15.6918 23.2837 18.4987 26.0906L26.4537 34.0456C27.3079 34.8999 28.693 34.8999 29.5473 34.0456L37.5022 26.0906C40.3091 23.2837 40.3091 18.7329 37.5022 15.926C36.1172 14.5409 34.2554 13.7476 32.3225 13.9962C30.7387 14.1999 29.2367 15.0854 28.0005 16.6839ZM23.4393 15.8559C22.188 15.695 20.8803 16.196 19.8246 17.2518C17.7499 19.3265 17.7499 22.6901 19.8246 24.7648L27.7795 32.7198C27.9015 32.8418 28.0994 32.8418 28.2214 32.7198L36.1764 24.7648C38.2511 22.6901 38.2511 19.3265 36.1764 17.2518C35.1206 16.196 33.813 15.695 32.5617 15.8559C31.3281 16.0145 29.9558 16.8428 28.8144 18.8402L28.0005 20.2646L27.1865 18.8402C26.0452 16.8428 24.6728 16.0145 23.4393 15.8559Z" fill="#01EA2B"/>
</g>
</g>
</g>
<defs>
<filter id="filter0_dddd_1455_30504" x="0" y="0" width="56" height="62" filterUnits="userSpaceOnUse" color-interpolation-filters="sRGB">
<feFlood flood-opacity="0" result="BackgroundImageFix"/>
<feColorMatrix in="SourceAlpha" type="matrix" values="0 0 0 0 0 0 0 0 0 0 0 0 0 0 0 0 0 0 127 0" result="hardAlpha"/>
<feOffset dy="1"/>
<feGaussianBlur stdDeviation="0.5"/>
<feColorMatrix type="matrix" values="0 0 0 0 0 0 0 0 0 0 0 0 0 0 0 0 0 0 0.1 0"/>
<feBlend mode="normal" in2="BackgroundImageFix" result="effect1_dropShadow_1455_30504"/>
<feColorMatrix in="SourceAlpha" type="matrix" values="0 0 0 0 0 0 0 0 0 0 0 0 0 0 0 0 0 0 127 0" result="hardAlpha"/>
<feOffset dy="2"/>
<feGaussianBlur stdDeviation="1"/>
<feColorMatrix type="matrix" values="0 0 0 0 0 0 0 0 0 0 0 0 0 0 0 0 0 0 0.09 0"/>
<feBlend mode="normal" in2="effect1_dropShadow_1455_30504" result="effect2_dropShadow_1455_30504"/>
<feColorMatrix in="SourceAlpha" type="matrix" values="0 0 0 0 0 0 0 0 0 0 0 0 0 0 0 0 0 0 127 0" result="hardAlpha"/>
<feOffset dy="5"/>
<feGaussianBlur stdDeviation="1.5"/>
<feColorMatrix type="matrix" values="0 0 0 0 0 0 0 0 0 0 0 0 0 0 0 0 0 0 0.05 0"/>
<feBlend mode="normal" in2="effect2_dropShadow_1455_30504" result="effect3_dropShadow_1455_30504"/>
<feColorMatrix in="SourceAlpha" type="matrix" values="0 0 0 0 0 0 0 0 0 0 0 0 0 0 0 0 0 0 127 0" result="hardAlpha"/>
<feOffset dy="10"/>
<feGaussianBlur stdDeviation="2"/>
<feColorMatrix type="matrix" values="0 0 0 0 0 0 0 0 0 0 0 0 0 0 0 0 0 0 0.01 0"/>
<feBlend mode="normal" in2="effect3_dropShadow_1455_30504" result="effect4_dropShadow_1455_30504"/>
<feBlend mode="normal" in="SourceGraphic" in2="effect4_dropShadow_1455_30504" result="shape"/>
</filter>
<clipPath id="clip0_1455_30504">
<rect width="30" height="30" fill="white" transform="translate(13 9)"/>
</clipPath>
</defs>
</svg>
