<svg width="24" height="24" viewBox="0 0 24 24" fill="none" xmlns="http://www.w3.org/2000/svg">
<path fill-rule="evenodd" clip-rule="evenodd" d="M3.5 6.5C3.5 8.15685 4.84315 9.5 6.5 9.5C8.15685 9.5 9.5 8.15685 9.5 6.5C9.5 4.84315 8.15685 3.5 6.5 3.5C4.84315 3.5 3.5 4.84315 3.5 6.5ZM6.5 2C4.01472 2 2 4.01472 2 6.5C2 8.98528 4.01472 11 6.5 11C8.98528 11 11 8.98528 11 6.5C11 4.01472 8.98528 2 6.5 2Z" />
<path fill-rule="evenodd" clip-rule="evenodd" d="M12.25 2.25H21.75V11.75H12.25V2.25ZM13.75 3.75V10.25H20.25V3.75H13.75Z"/>
<path fill-rule="evenodd" clip-rule="evenodd" d="M2.25 12.25H11.75V21.75H7C4.37665 21.75 2.25 19.6234 2.25 17V12.25ZM3.75 13.75V17C3.75 18.7949 5.20507 20.25 7 20.25H10.25V13.75H3.75Z" />
<path fill-rule="evenodd" clip-rule="evenodd" d="M14.5 17.5C14.5 19.1569 15.8431 20.5 17.5 20.5C19.1569 20.5 20.5 19.1569 20.5 17.5C20.5 15.8431 19.1569 14.5 17.5 14.5C15.8431 14.5 14.5 15.8431 14.5 17.5ZM17.5 13C15.0147 13 13 15.0147 13 17.5C13 19.9853 15.0147 22 17.5 22C19.9853 22 22 19.9853 22 17.5C22 15.0147 19.9853 13 17.5 13Z"/>
</svg>
