<svg xmlns="http://www.w3.org/2000/svg" width="30" height="30" viewBox="0 0 30 30" fill="none">
  <path d="M23.2843 16.4476L15.8978 24.0731C15.4067 24.5802 14.5933 24.5802 14.1022 24.0731L6.71573 16.4476C4.42809 14.0859 4.42809 10.2568 6.71573 7.89515C9.00337 5.53346 12.6569 5.3902 15 9.62343C17.3432 5.3902 20.9966 5.53346 23.2843 7.89515C25.5719 10.2568 25.5719 14.0859 23.2843 16.4476Z" fill="#01EA2B"/>
  <path fill-rule="evenodd" clip-rule="evenodd" d="M15.0005 7.68416C13.7643 6.08567 12.2622 5.20015 10.6784 4.99645C8.74551 4.74786 6.88375 5.54118 5.49872 6.92621C2.69183 9.73311 2.69183 14.284 5.49872 17.0909L13.4537 25.0458C14.3079 25.9001 15.693 25.9001 16.5473 25.0458L24.5022 17.0909C27.3091 14.284 27.3091 9.73311 24.5022 6.92621C23.1172 5.54119 21.2554 4.74786 19.3225 4.99645C17.7387 5.20015 16.2367 6.08567 15.0005 7.68416ZM10.4393 6.85614C9.18796 6.6952 7.8803 7.19629 6.82455 8.25204C4.74989 10.3267 4.74989 13.6904 6.82455 15.7651L14.7795 23.72C14.9015 23.842 15.0994 23.842 15.2214 23.72L23.1764 15.7651C25.2511 13.6904 25.2511 10.3267 23.1764 8.25204C22.1206 7.19629 20.813 6.6952 19.5617 6.85614C18.3281 7.01478 16.9558 7.84307 15.8144 9.84042L15.0005 11.2649L14.1865 9.84042C13.0452 7.84307 11.6728 7.01478 10.4393 6.85614Z" fill="#01EA2B"/>
</svg>