<svg xmlns="http://www.w3.org/2000/svg" width="19" height="19" viewBox="0 0 19 19" fill="none">
<path d="M2.39453 9.94727L1.87057 9.74264C1.81919 9.87422 1.81919 10.0203 1.87057 10.1519L2.39453 9.94727ZM17.3945 9.94727L17.9185 10.1519C17.9699 10.0203 17.9699 9.87422 17.9185 9.74264L17.3945 9.94727ZM8.87707 4.19344L8.31835 4.25858L8.44862 5.37601L9.00734 5.31087L8.87707 4.19344ZM6.0772 6.31703C6.34241 6.15524 6.42623 5.80909 6.26444 5.54389C6.10264 5.27868 5.75649 5.19486 5.49129 5.35665L6.0772 6.31703ZM8.70134 8.75397C8.92102 8.53431 8.92104 8.17815 8.70138 7.95848C8.48171 7.7388 8.12556 7.73878 7.90588 7.95844L8.70134 8.75397ZM11.8834 11.9359C12.103 11.7162 12.103 11.3601 11.8833 11.1404C11.6636 10.9208 11.3075 10.9208 11.0878 11.1405L11.8834 11.9359ZM15.7798 11.6982L15.44 12.1465L16.3366 12.8261L16.6763 12.3778L15.7798 11.6982ZM14.298 14.5378C14.5632 14.376 14.647 14.0298 14.4852 13.7646C14.3234 13.4994 13.9772 13.4156 13.712 13.5774L14.298 14.5378ZM9.89453 11.6348C8.96255 11.6348 8.20703 10.8792 8.20703 9.94727H7.08203C7.08203 11.5006 8.34123 12.7598 9.89453 12.7598V11.6348ZM9.89453 5.25977C13.1382 5.25977 15.7462 7.27281 16.8706 10.1519L17.9185 9.74264C16.6426 6.47569 13.6468 4.13477 9.89453 4.13477V5.25977ZM9.89453 14.6348C6.65088 14.6348 4.04286 12.6217 2.91849 9.74264L1.87057 10.1519C3.14641 13.4188 6.14223 15.7598 9.89453 15.7598V14.6348ZM9.00734 5.31087C9.29658 5.27715 9.59251 5.25977 9.89453 5.25977V4.13477C9.54927 4.13477 9.20984 4.15465 8.87707 4.19344L9.00734 5.31087ZM2.91849 10.1519C3.55218 8.52925 4.65824 7.18272 6.0772 6.31703L5.49129 5.35665C3.85015 6.35789 2.58855 7.90416 1.87057 9.74264L2.91849 10.1519ZM8.20703 9.94727C8.20703 9.48109 8.39532 9.05997 8.70134 8.75397L7.90588 7.95844C7.39748 8.46679 7.08203 9.17073 7.08203 9.94727H8.20703ZM11.0878 11.1405C10.7818 11.4465 10.3607 11.6348 9.89453 11.6348V12.7598C10.6711 12.7598 11.375 12.4443 11.8834 11.9359L11.0878 11.1405ZM16.8706 9.74264C16.5931 10.453 16.225 11.1107 15.7798 11.6982L16.6763 12.3778C17.1854 11.7061 17.604 10.9571 17.9185 10.1519L16.8706 9.74264ZM13.712 13.5774C12.6124 14.2483 11.3183 14.6348 9.89453 14.6348V15.7598C11.5271 15.7598 13.0237 15.3152 14.298 14.5378L13.712 13.5774Z" fill="#4A5056"/>
<path d="M3.89453 3.94727L15.8945 15.9473" stroke="#4A5056" stroke-width="1.125" stroke-linecap="square"/>
</svg>