<svg xmlns="http://www.w3.org/2000/svg" width="18" height="19" viewBox="0 0 18 19" fill="none">
<path fill-rule="evenodd" clip-rule="evenodd" d="M9 17.375C4.65076 17.375 1.125 13.8492 1.125 9.5C1.125 5.15076 4.65076 1.625 9 1.625C13.3492 1.625 16.875 5.15076 16.875 9.5C16.875 13.8492 13.3492 17.375 9 17.375ZM8.08402 5L8.14549 6.61628L8.40369 10.907L9.58402 10.907L9.84221 6.61628L9.90369 5H8.08402ZM8.19467 13.686C8.40779 13.8954 8.67418 14 8.99385 14C9.31353 14 9.57992 13.8954 9.79303 13.686C10.0143 13.469 10.125 13.2016 10.125 12.8837C10.125 12.5659 10.0143 12.3023 9.79303 12.093C9.57992 11.876 9.31353 11.7674 8.99385 11.7674C8.67418 11.7674 8.40779 11.876 8.19467 12.093C7.98156 12.3023 7.875 12.5659 7.875 12.8837C7.875 13.2016 7.98156 13.469 8.19467 13.686Z" fill="#F05C2E"/>
</svg>