<svg width="31" height="30" viewBox="0 0 31 30" fill="none" xmlns="http://www.w3.org/2000/svg">
<g clip-path="url(#clip0_898_1675)">
<path d="M0.5 15C0.5 6.71572 7.21572 0 15.5 0C23.7842 0 30.5 6.71572 30.5 15C30.5 23.2842 23.7842 30 15.5 30C7.21572 30 0.5 23.2842 0.5 15Z" fill="#FFE812"/>
<path d="M15.5 6.875C9.97711 6.875 5.5 10.4051 5.5 14.7596C5.5 17.5749 7.37173 20.0452 10.1873 21.4401C10.0341 21.9684 9.20298 24.8385 9.1699 25.064C9.1699 25.064 9.15 25.2334 9.25971 25.2981C9.36942 25.3627 9.49846 25.3125 9.49846 25.3125C9.81307 25.2685 13.1468 22.9268 13.7238 22.5202C14.3003 22.6018 14.8938 22.6442 15.5 22.6442C21.0229 22.6442 25.5 19.1142 25.5 14.7596C25.5 10.4051 21.0229 6.875 15.5 6.875Z" fill="#381F1F"/>
<path d="M9.971 17.512C9.65283 17.512 9.39408 17.2649 9.39408 16.961V13.5336H8.49389C8.18168 13.5336 7.92773 13.2802 7.92773 12.9687C7.92773 12.6573 8.18177 12.4038 8.49389 12.4038H11.4481C11.7603 12.4038 12.0143 12.6573 12.0143 12.9687C12.0143 13.2802 11.7602 13.5336 11.4481 13.5336H10.5479V16.961C10.5479 17.2649 10.2892 17.512 9.971 17.512ZM15.0298 17.5045C14.7893 17.5045 14.6052 17.4068 14.5497 17.2497L14.2641 16.5018L12.5048 16.5017L12.219 17.2501C12.1637 17.4069 11.9797 17.5045 11.7392 17.5045C11.6126 17.5046 11.4875 17.4774 11.3724 17.4249C11.2134 17.3515 11.0605 17.1498 11.2357 16.6056L12.6157 12.9733C12.7129 12.6971 13.0082 12.4125 13.384 12.4039C13.7608 12.4124 14.0561 12.6971 14.1535 12.9739L15.5329 16.6046C15.7085 17.15 15.5556 17.3518 15.3966 17.425C15.2814 17.4775 15.1564 17.5046 15.0298 17.5045C15.0298 17.5045 15.0297 17.5045 15.0298 17.5045ZM13.9607 15.4799L13.3845 13.8428L12.8082 15.4799H13.9607ZM16.4614 17.4278C16.1565 17.4278 15.9085 17.1905 15.9085 16.899V12.9807C15.9085 12.6626 16.1727 12.4038 16.4974 12.4038C16.8221 12.4038 17.0864 12.6626 17.0864 12.9807V16.3701H18.3123C18.6172 16.3701 18.8652 16.6075 18.8652 16.899C18.8652 17.1905 18.6172 17.4278 18.3123 17.4278H16.4614ZM19.6666 17.5045C19.3484 17.5045 19.0896 17.2457 19.0896 16.9276V12.9807C19.0896 12.6626 19.3484 12.4038 19.6666 12.4038C19.9847 12.4038 20.2435 12.6626 20.2435 12.9807V14.2207L21.8531 12.6111C21.9359 12.5283 22.0496 12.4828 22.1731 12.4828C22.3171 12.4828 22.4618 12.5449 22.5701 12.6531C22.6712 12.7541 22.7315 12.884 22.7397 13.0189C22.7481 13.155 22.7028 13.2797 22.6124 13.3702L21.2977 14.6847L22.7178 16.566C22.7637 16.6264 22.7971 16.6952 22.8161 16.7686C22.8351 16.842 22.8393 16.9184 22.8286 16.9934C22.8183 17.0685 22.7932 17.1408 22.7548 17.2061C22.7164 17.2714 22.6654 17.3284 22.6047 17.3739C22.505 17.4497 22.383 17.4906 22.2577 17.4903C22.1683 17.4908 22.0801 17.4702 22 17.4304C21.92 17.3906 21.8504 17.3326 21.7969 17.261L20.4439 15.4683L20.2437 15.6685V16.9273C20.2435 17.0803 20.1826 17.227 20.0745 17.3352C19.9663 17.4434 19.8196 17.5043 19.6666 17.5045Z" fill="#FFE812"/>
</g>
<defs>
<clipPath id="clip0_898_1675">
<rect width="30" height="30" fill="white" transform="translate(0.5)"/>
</clipPath>
</defs>
</svg>
