<svg width="24" height="24" viewBox="0 0 24 24" fill="none" xmlns="http://www.w3.org/2000/svg">
<path d="M13 4C13 4.55228 12.5523 5 12 5C11.4477 5 11 4.55228 11 4C11 3.44772 11.4477 3 12 3C12.5523 3 13 3.44772 13 4Z" />
<path fill-rule="evenodd" clip-rule="evenodd" d="M8.25 9C8.25 7.48122 9.48122 6.25 11 6.25H14C14.9665 6.25 15.75 7.0335 15.75 8V21.75H8.25V9ZM11 7.75C10.3096 7.75 9.75 8.30964 9.75 9V20.25H14.25V8C14.25 7.86193 14.1381 7.75 14 7.75H11Z" />
<path fill-rule="evenodd" clip-rule="evenodd" d="M2.25 16C2.25 14.4812 3.48122 13.25 5 13.25H8C8.9665 13.25 9.75 14.0335 9.75 15V21.75H4C3.0335 21.75 2.25 20.9665 2.25 20V16ZM5 14.75C4.30964 14.75 3.75 15.3096 3.75 16V20C3.75 20.1381 3.86193 20.25 4 20.25H8.25V15C8.25 14.8619 8.13807 14.75 8 14.75H5Z" />
<path fill-rule="evenodd" clip-rule="evenodd" d="M14.25 13C14.25 11.4812 15.4812 10.25 17 10.25H20C20.9665 10.25 21.75 11.0335 21.75 12V21.75H14.25V13ZM17 11.75C16.3096 11.75 15.75 12.3096 15.75 13V20.25H20.25V12C20.25 11.8619 20.1381 11.75 20 11.75H17Z" />
</svg>
