<svg width="24" height="24" viewBox="0 0 24 24" fill="none" xmlns="http://www.w3.org/2000/svg">
<path d="M13 4C13 4.55228 12.5523 5 12 5C11.4477 5 11 4.55228 11 4C11 3.44772 11.4477 3 12 3C12.5523 3 13 3.44772 13 4Z"/>
<path d="M9 9C9 7.89543 9.89543 7 11 7H14C14.5523 7 15 7.44772 15 8V21H9V9Z"  stroke-width="1.5"/>
<path d="M3 16C3 14.8954 3.89543 14 5 14H8C8.55228 14 9 14.4477 9 15V21H4C3.44772 21 3 20.5523 3 20V16Z"  stroke-width="1.5"/>
<path d="M15 13C15 11.8954 15.8954 11 17 11H20C20.5523 11 21 11.4477 21 12V21H15V13Z"  stroke-width="1.5"/>
</svg>
