<svg xmlns="http://www.w3.org/2000/svg" width="111" height="23" viewBox="0 0 111 23" fill="none">
  <g clip-path="url(#clip0_1721_19119)">
    <path d="M37.8068 13.9947C36.4501 19.2149 32.6161 22.459 25.066 22.459C17.5159 22.459 14.2422 18.3006 14.2422 13.2868C14.2422 8.2731 17.1988 0.634521 27.8088 0.634521C35.4179 0.634521 38.6031 4.17363 38.6326 9.01042L30.1977 9.01042C30.3451 7.00492 29.7848 5.64826 27.8973 5.64826C24.3876 5.64826 23.4144 11.3108 23.4144 13.6703C23.4144 16.0297 24.2697 17.1799 25.9213 17.1799C27.4549 17.1799 28.7231 16.2951 29.5783 13.9947L37.8068 13.9947Z" fill="#01EA2B"/>
    <path d="M51.5865 0.368652L50.1413 7.21093C51.1441 6.5621 52.5597 5.7658 54.9486 5.7658C59.3725 5.7658 60.7292 8.36114 59.8739 12.4016L57.8684 21.9277L49.3156 21.9277L51.321 12.3721C51.557 11.3694 51.38 10.75 50.6132 10.75C49.6105 10.75 49.1681 11.6938 48.9027 12.962L47.0151 21.9277L38.4623 21.9277L43.041 0.368652L51.5939 0.368652H51.5865Z" stroke="white" stroke-width="0.756289" stroke-miterlimit="10"/>
    <path d="M80.1656 16.5007C79.9002 17.7394 79.2514 21.0131 79.1039 21.9273L71.1704 21.9273C71.1999 21.5734 71.3178 20.9246 71.4063 20.3347C70.2266 21.4849 68.6045 22.3402 65.9207 22.3402C62.883 22.3402 61.0544 20.6591 61.0544 17.9458C61.0544 13.9053 64.3281 12.3127 68.3981 11.9293C69.7547 11.7819 71.4948 11.7229 73.1759 11.6934L73.2644 11.251C73.4413 10.4252 73.1464 9.89434 72.0846 9.89434C71.1704 9.89434 70.728 10.3662 70.4921 11.192L63.0599 11.192C63.4433 9.09804 64.9769 5.76538 72.4975 5.76538C80.0182 5.76538 81.8172 8.77363 81.1094 12.1063L80.1656 16.5007ZM72.4386 15.203C71.7012 15.203 71.1409 15.2325 70.4921 15.3505C69.7252 15.4979 69.3123 15.9698 69.3123 16.7071C69.3123 17.238 69.7547 17.6509 70.3151 17.6509C71.2589 17.6509 71.9962 17.2675 72.3796 15.439L72.4386 15.203Z" fill="white"/>
    <path d="M86.4128 1.16455L95.0541 1.16455L93.3436 9.27502C95.408 6.97459 98.0919 3.81888 100.392 1.16455L110.508 1.16455L100.894 10.0123L106.497 21.9273L97.1186 21.9273L94.1694 14.6132L91.8099 16.5007L90.6597 21.9273L82.0184 21.9273L86.4128 1.16455Z" fill="white"/>
    <path d="M15.177 0.795166C10.8047 1.13433 6.88216 4.52598 5.76144 9.37751C4.64072 14.229 6.68308 18.9995 10.4655 21.2188L15.177 0.795166Z" fill="#01EA2B"/>
    <path d="M5.46739 4.74854C3.19646 5.54484 1.32368 7.56508 0.704336 10.2415C0.0849919 12.918 0.888665 15.5576 2.57712 17.2681L5.46739 4.74854Z" fill="#01EA2B"/>
  </g>
  <defs>
    <clipPath id="clip0_1721_19119">
      <rect width="110" height="22.4512" fill="white" transform="translate(0.5)"/>
    </clipPath>
  </defs>
</svg>