<svg xmlns="http://www.w3.org/2000/svg" width="104" height="104" viewBox="0 0 104 104" fill="none">
  <g filter="url(#filter0_d_1721_19118)">
    <path d="M50 100C77.6142 100 100 77.6142 100 50C100 22.3858 77.6142 0 50 0C22.3858 0 0 22.3858 0 50C0 77.6142 22.3858 100 50 100Z" fill="#A0F400"/>
    <path d="M97.5 50C97.5 76.2335 76.2335 97.5 50 97.5C23.7665 97.5 2.5 76.2335 2.5 50C2.5 23.7665 23.7665 2.5 50 2.5C76.2335 2.5 97.5 23.7665 97.5 50Z" stroke="white" stroke-width="5"/>
  </g>
  <path d="M25.7626 34.9175C19.3001 35.4188 13.5024 40.4319 11.8459 47.6027C10.1894 54.7736 13.2081 61.8246 18.7988 65.1049L25.7626 34.9284V34.9175Z" fill="black"/>
  <path d="M71.9531 65.0939C78.4156 64.5926 84.2134 59.5795 85.8699 52.4087C87.5264 45.2378 84.5076 38.1868 78.9169 34.9065L71.9531 65.083V65.0939Z" fill="black"/>
  <path d="M38.316 52.0604C39.4234 52.0604 40.3212 50.3966 40.3212 48.3441C40.3212 46.2917 39.4234 44.6279 38.316 44.6279C37.2085 44.6279 36.3108 46.2917 36.3108 48.3441C36.3108 50.3966 37.2085 52.0604 38.316 52.0604Z" fill="black"/>
  <path d="M59.4097 52.0604C60.5172 52.0604 61.415 50.3966 61.415 48.3441C61.415 46.2917 60.5172 44.6279 59.4097 44.6279C58.3023 44.6279 57.4045 46.2917 57.4045 48.3441C57.4045 50.3966 58.3023 52.0604 59.4097 52.0604Z" fill="black"/>
  <path d="M38.316 56.071C39.5366 59.9834 43.4598 62.8496 48.1133 62.8496C52.7667 62.8496 56.6791 59.9834 57.9106 56.071H38.3269H38.316Z" fill="black"/>
  <defs>
    <filter id="filter0_d_1721_19118" x="0" y="0" width="103.333" height="103.333" filterUnits="userSpaceOnUse" color-interpolation-filters="sRGB">
      <feFlood flood-opacity="0" result="BackgroundImageFix"/>
      <feColorMatrix in="SourceAlpha" type="matrix" values="0 0 0 0 0 0 0 0 0 0 0 0 0 0 0 0 0 0 127 0" result="hardAlpha"/>
      <feOffset dx="1.66667" dy="1.66667"/>
      <feGaussianBlur stdDeviation="0.833333"/>
      <feComposite in2="hardAlpha" operator="out"/>
      <feColorMatrix type="matrix" values="0 0 0 0 0 0 0 0 0 0 0 0 0 0 0 0 0 0 0.25 0"/>
      <feBlend mode="normal" in2="BackgroundImageFix" result="effect1_dropShadow_1721_19118"/>
      <feBlend mode="normal" in="SourceGraphic" in2="effect1_dropShadow_1721_19118" result="shape"/>
    </filter>
  </defs>
</svg>