<svg xmlns="http://www.w3.org/2000/svg" width="209" height="98" viewBox="0 0 209 98" fill="none">
  <g clip-path="url(#clip0_1231_41416)">
    <path d="M71.5817 44.5017C66.4597 53.1506 57.9203 56.9829 44.3992 53.0888C30.8782 49.1946 27.1603 40.059 29.7463 31.0802C32.3322 22.1014 41.5668 9.94682 60.5676 15.4191C74.1943 19.3437 78.0732 27.3245 75.6313 36.0016L60.5257 31.6512C61.8242 28.1357 61.5204 25.4171 58.1401 24.4436C51.855 22.6334 47.1914 32.2722 45.9745 36.4976C44.7576 40.7229 45.696 43.2239 48.6538 44.0757C51.4002 44.8667 54.1277 43.9363 56.8459 40.2577L71.5817 44.5017Z" fill="#01EA2B"/>
    <path d="M103.275 27.2041L97.1578 38.7122C99.2882 38.0675 102.234 37.3716 106.512 38.6037C114.435 40.8854 115.526 46.233 111.91 53.0277L103.405 69.0531L88.0885 64.6418L96.6085 48.5636C97.5482 46.8895 97.5507 45.6891 96.1775 45.2936C94.3817 44.7764 93.1027 46.2384 91.9733 48.3726L83.9688 63.4553L68.6519 59.044L87.9713 22.7966L103.288 27.2079L103.275 27.2041Z" stroke="#111111" stroke-width="1.40945" stroke-miterlimit="10"/>
    <path d="M146.134 70.8347C145.019 72.9161 142.169 78.4441 141.433 80.0053L127.226 75.9135C127.461 75.2949 128.007 74.1938 128.47 73.1831C125.764 74.6345 122.418 75.3295 117.611 73.9453C112.171 72.3785 109.764 68.4248 111.163 63.5657C113.247 56.3298 119.931 55.1662 127.417 56.5788C129.923 57.0144 133.07 57.8062 136.095 58.6205L136.482 57.8739C137.225 56.4863 136.971 55.3835 135.069 54.8358C133.432 54.3643 132.396 54.9812 131.548 56.3384L118.238 52.5051C120.005 48.9528 124.47 43.7756 137.938 47.6545C151.406 51.5334 153.077 57.8486 150.09 63.4518L146.134 70.8347ZM132.965 64.5254C131.644 64.1451 130.626 63.9089 129.403 63.7855C127.954 63.6541 126.971 64.2862 126.591 65.6066C126.317 66.5573 126.896 67.5249 127.9 67.8139C129.59 68.3007 131.108 67.9944 132.738 64.9175L132.965 64.5254Z" fill="white"/>
    <path d="M165.241 46.5946L180.716 51.0516L173.47 64.6939C178.353 61.639 184.787 57.3718 190.276 53.8048L208.392 59.0224L186.61 69.9084L190.5 94.1365L173.704 89.2993L172.195 74.6796L166.996 76.843L162.138 85.968L146.662 81.511L165.241 46.5946Z" fill="white"/>
    <path d="M37.9053 9.20609C29.9003 7.55839 21.1263 11.6092 16.617 19.7195C12.1077 27.8298 13.3048 37.4263 18.9339 43.3516L37.9053 9.20609Z" fill="#01EA2B"/>
    <path d="M18.4509 11.2676C13.9733 11.5224 9.57746 14.1744 7.08787 18.648C4.59828 23.1217 4.67612 28.2633 6.81761 32.1975L18.4509 11.2676Z" fill="#01EA2B"/>
  </g>
  <defs>
    <clipPath id="clip0_1231_41416">
      <rect width="205" height="41.8409" fill="white" transform="translate(12 0.201172) rotate(16.0666)"/>
    </clipPath>
  </defs>
</svg>