<svg width="79" height="16" viewBox="0 0 79 16" fill="none" xmlns="http://www.w3.org/2000/svg">
<g clip-path="url(#clip0_1043_4780)">
<path d="M26.5825 9.97382C25.6157 13.694 22.8833 16.006 17.5027 16.006C12.1221 16.006 9.78906 13.0425 9.78906 9.46939C9.78906 5.89631 11.8961 0.452637 19.4574 0.452637C24.88 0.452637 27.15 2.9748 27.171 6.42177L21.1598 6.42177C21.2649 4.99254 20.8656 4.02571 19.5204 4.02571C17.0193 4.02571 16.3257 8.06118 16.3257 9.74262C16.3257 11.4241 16.9352 12.2438 18.1122 12.2438C19.2052 12.2438 20.1089 11.6132 20.7185 9.97382L26.5825 9.97382Z" fill="#01EA2B"/>
<path d="M36.3989 0.263672L35.3691 5.13986C36.0837 4.67746 37.0925 4.10998 38.795 4.10998C41.9477 4.10998 42.9145 5.95957 42.305 8.83904L40.8758 15.6279L34.7805 15.6279L36.2098 8.81802C36.3779 8.10341 36.2518 7.66203 35.7053 7.66203C34.9907 7.66203 34.6755 8.33461 34.4863 9.23838L33.1411 15.6279L27.0459 15.6279L30.309 0.263672L36.4042 0.263672H36.3989Z" stroke="white" stroke-width="0.538973" stroke-miterlimit="10"/>
<path d="M56.7642 11.7604C56.5751 12.6432 56.1127 14.9762 56.0076 15.6278L50.3537 15.6278C50.3747 15.3755 50.4588 14.9131 50.5219 14.4928C49.6812 15.3125 48.5252 15.922 46.6125 15.922C44.4477 15.922 43.1445 14.724 43.1445 12.7903C43.1445 9.91085 45.4775 8.77587 48.378 8.50264C49.3449 8.39755 50.5849 8.35551 51.783 8.33449L51.846 8.01922C51.9721 7.43072 51.7619 7.05239 51.0053 7.05239C50.3537 7.05239 50.0385 7.38868 49.8703 7.97719L44.5738 7.97719C44.847 6.4849 45.9399 4.10986 51.2995 4.10986C56.6592 4.10986 57.9413 6.25371 57.4368 8.62875L56.7642 11.7604ZM51.2575 10.8356C50.7321 10.8356 50.3327 10.8567 49.8703 10.9407C49.3238 11.0458 49.0296 11.3821 49.0296 11.9076C49.0296 12.2859 49.3449 12.5801 49.7442 12.5801C50.4168 12.5801 50.9422 12.3069 51.2155 11.0038L51.2575 10.8356Z" fill="white"/>
<path d="M61.2206 0.830566L67.3789 0.830566L66.1598 6.61053C67.6311 4.97113 69.5437 2.72219 71.1831 0.830566L78.3923 0.830566L71.5404 7.13599L75.5339 15.6273L68.8501 15.6273L66.7483 10.4148L65.0669 11.76L64.2472 15.6273L58.0889 15.6273L61.2206 0.830566Z" fill="white"/>
<path d="M10.4722 0.567871C7.35628 0.809579 4.56088 3.22666 3.76219 6.68412C2.9635 10.1416 4.419 13.5413 7.11457 15.1229L10.4722 0.567871Z" fill="#01EA2B"/>
<path d="M3.54174 3.38428C1.92335 3.95177 0.588699 5.3915 0.14732 7.29889C-0.294059 9.20628 0.278683 11.0874 1.48197 12.3064L3.54174 3.38428Z" fill="#01EA2B"/>
</g>
<defs>
<clipPath id="clip0_1043_4780">
<rect width="78.3921" height="16" fill="white"/>
</clipPath>
</defs>
</svg>
