<svg width="24" height="24" viewBox="0 0 24 24" fill="none" xmlns="http://www.w3.org/2000/svg">
<path fill-rule="evenodd" clip-rule="evenodd" d="M16.6027 17.5662L17.4998 16.5991C18.7424 15.2597 19.5 13.47 19.5 11.4999C19.5 7.35781 16.1421 3.99998 12 3.99998C7.85786 3.99998 4.5 7.35781 4.5 11.4999C4.5 15.642 7.85786 18.9998 12 18.9998C12.0308 18.9998 12.0615 18.9996 12.0922 18.9993L12.1089 19.0671V18.9998H17.7974L16.6027 17.5662ZM21 20.4998H12.1089C12.1088 20.4998 12.109 20.4998 12.1089 20.4998C12.0728 20.5002 12.0363 20.4998 12 20.4998C11.9158 20.4998 11.8319 20.4987 11.7482 20.4964C6.89407 20.363 3 16.3862 3 11.4999C3 6.52939 7.02944 2.5 12 2.5C16.9706 2.5 21 6.52939 21 11.4999C21 13.863 20.0892 16.0134 18.5995 17.6193L21 20.4998Z"/>
<path d="M9 11C9 11.5523 8.55228 12 8 12C7.44772 12 7 11.5523 7 11C7 10.4477 7.44772 10 8 10C8.55228 10 9 10.4477 9 11Z" />
<path d="M13 11C13 11.5523 12.5523 12 12 12C11.4477 12 11 11.5523 11 11C11 10.4477 11.4477 10 12 10C12.5523 10 13 10.4477 13 11Z"/>
<path d="M17 11C17 11.5523 16.5523 12 16 12C15.4477 12 15 11.5523 15 11C15 10.4477 15.4477 10 16 10C16.5523 10 17 10.4477 17 11Z"/>
</svg>
