<svg width="24" height="24" viewBox="0 0 24 24" fill="none" xmlns="http://www.w3.org/2000/svg">
<mask id="path-1-inside-1_399_23257" fill="white">
<path fill-rule="evenodd" clip-rule="evenodd" d="M18.5995 17.6194C20.0892 16.0136 21 13.8632 21 11.5C21 6.52944 16.9706 2.5 12 2.5C7.02944 2.5 3 6.52944 3 11.5C3 16.4706 7.02944 20.5 12 20.5C12.0368 20.5 12.0735 20.4998 12.1102 20.4993L12.1089 20.5H21L18.5995 17.6194Z"/>
</mask>
<path d="M18.5995 17.6194L17.4998 16.5993L16.6027 17.5663L17.4472 18.5797L18.5995 17.6194ZM12.1102 20.4993L12.7908 21.836L12.0922 18.9994L12.1102 20.4993ZM12.1089 20.5L11.4283 19.1633L12.1089 22V20.5ZM21 20.5V22H24.2026L22.1523 19.5397L21 20.5ZM19.5 11.5C19.5 13.4701 18.7424 15.2599 17.4998 16.5993L19.6992 18.6396C21.436 16.7673 22.5 14.2562 22.5 11.5H19.5ZM12 4C16.1421 4 19.5 7.35786 19.5 11.5H22.5C22.5 5.70101 17.799 1 12 1V4ZM4.5 11.5C4.5 7.35786 7.85786 4 12 4V1C6.20101 1 1.5 5.70101 1.5 11.5H4.5ZM12 19C7.85786 19 4.5 15.6421 4.5 11.5H1.5C1.5 17.299 6.20101 22 12 22V19ZM12.0922 18.9994C12.0615 18.9998 12.0308 19 12 19V22C12.0428 22 12.0856 21.9997 12.1282 21.9992L12.0922 18.9994ZM12.7895 21.8367L12.7908 21.836L11.4296 19.1626L11.4283 19.1633L12.7895 21.8367ZM21 19H12.1089V22H21V19ZM17.4472 18.5797L19.8477 21.4603L22.1523 19.5397L19.7518 16.6591L17.4472 18.5797Z"  mask="url(#path-1-inside-1_399_23257)"/>
<circle cx="8" cy="11" r="1" />
<circle cx="12" cy="11" r="1" />
<circle cx="16" cy="11" r="1" />
</svg>
