<svg width="18" height="18" viewBox="0 0 18 18" fill="none" xmlns="http://www.w3.org/2000/svg">
<path d="M13.9706 9.86854L9.53871 14.4439C9.244 14.7481 8.756 14.7481 8.46129 14.4439L4.02944 9.86854C2.65685 8.45153 2.65685 6.1541 4.02944 4.73709C5.40202 3.32008 7.59412 3.23412 9 5.77406C10.4059 3.23412 12.598 3.32008 13.9706 4.73709C15.3431 6.1541 15.3431 8.45153 13.9706 9.86854Z" />
<path fill-rule="evenodd" clip-rule="evenodd" d="M9.00028 4.6105C8.25858 3.6514 7.35734 3.12009 6.40706 2.99787C5.2473 2.84871 4.13025 3.32471 3.29923 4.15573C1.6151 5.83987 1.6151 8.57039 3.29923 10.2545L8.07221 15.0275C8.58477 15.5401 9.4158 15.5401 9.92836 15.0275L14.7013 10.2545C16.3855 8.57039 16.3855 5.83987 14.7013 4.15573C13.8703 3.32471 12.7533 2.84871 11.5935 2.99787C10.6432 3.12009 9.74199 3.6514 9.00028 4.6105ZM6.26356 4.11368C5.51278 4.01712 4.72818 4.31778 4.09473 4.95122C2.84993 6.19602 2.84993 8.21423 4.09473 9.45903L8.8677 14.232C8.94092 14.3052 9.05964 14.3052 9.13287 14.232L13.9058 9.45903C15.1506 8.21423 15.1506 6.19602 13.9058 4.95122C13.2724 4.31778 12.4878 4.01712 11.737 4.11368C10.9969 4.20887 10.1735 4.70584 9.48867 5.90425L9.00028 6.75893L8.5119 5.90425C7.82709 4.70584 7.00369 4.20887 6.26356 4.11368Z" />
</svg>
