<svg width="24" height="24" viewBox="0 0 24 24" fill="none" xmlns="http://www.w3.org/2000/svg">
<g clip-path="url(#clip0_1043_4793)">
<path fill-rule="evenodd" clip-rule="evenodd" d="M12 10C13.6569 10 15 8.65685 15 7C15 5.34315 13.6569 4 12 4C10.3431 4 9 5.34315 9 7C9 8.65685 10.3431 10 12 10ZM12 12C14.7614 12 17 9.76142 17 7C17 4.23858 14.7614 2 12 2C9.23858 2 7 4.23858 7 7C7 9.76142 9.23858 12 12 12Z" fill="white"/>
<path fill-rule="evenodd" clip-rule="evenodd" d="M20 15H4V18C4 19.1046 4.89543 20 6 20H20V15ZM2 13V18C2 20.2091 3.79086 22 6 22H22V13H2Z" fill="white"/>
</g>
<defs>
<clipPath id="clip0_1043_4793">
<rect width="24" height="24" fill="white"/>
</clipPath>
</defs>
</svg>
