<svg width="151" height="150" viewBox="0 0 151 150" fill="none" xmlns="http://www.w3.org/2000/svg">
<g id="sticker">
<g id="Vector" filter="url(#filter0_d_1625_19077)">
<path d="M74.5 146C114.265 146 146.5 113.765 146.5 74C146.5 34.2355 114.265 2 74.5 2C34.7355 2 2.5 34.2355 2.5 74C2.5 113.765 34.7355 146 74.5 146Z" fill="#FF8447"/>
<path d="M145 74C145 112.936 113.436 144.5 74.5 144.5C35.5639 144.5 4 112.936 4 74C4 35.0639 35.5639 3.5 74.5 3.5C113.436 3.5 145 35.0639 145 74Z" stroke="white" stroke-width="3"/>
</g>
<g id="Group">
<path id="Vector_2" d="M94.8211 89.3002L50.1211 78.9202L52.1011 76.7002L96.8011 87.0202L94.8211 89.3002Z" fill="black"/>
<g id="Group_2">
<path id="Vector_3" d="M57.6203 68.3005L54.0803 70.6405L52.8203 68.4205L56.6003 66.5605L52.8203 64.6405L54.0803 62.4805L57.6203 64.7605L57.3803 60.5605H59.9003L59.6603 64.7605L63.2003 62.4805L64.4603 64.6405L60.6803 66.5605L64.4603 68.4205L63.2003 70.6405L59.6603 68.3005L59.9003 72.5005H57.3803L57.6203 68.3005Z" fill="black"/>
<path id="Vector_4" d="M89.0617 68.3005L85.5217 70.6405L84.2617 68.4205L88.0417 66.5605L84.2617 64.6405L85.5217 62.4805L89.0617 64.7605L88.8217 60.5605H91.3417L91.1017 64.7605L94.6417 62.4805L95.9017 64.6405L92.1217 66.5605L95.9017 68.4205L94.6417 70.6405L91.1017 68.3005L91.3417 72.5005H88.8217L89.0617 68.3005Z" fill="black"/>
</g>
<g id="Group_3">
<path id="Vector_5" d="M40.4803 51.7402C30.9403 52.4602 22.4203 59.8402 19.9603 70.4602C17.5003 81.0802 22.0003 91.4002 30.2203 96.2602L40.4803 51.7402Z" fill="black"/>
<path id="Vector_6" d="M108.52 96.2602C118.06 95.5402 126.58 88.1602 129.04 77.5402C131.5 66.9202 127 56.6002 118.78 51.7402L108.52 96.2602Z" fill="black"/>
</g>
</g>
</g>
<defs>
<filter id="filter0_d_1625_19077" x="0.5" y="0" width="150" height="150" filterUnits="userSpaceOnUse" color-interpolation-filters="sRGB">
<feFlood flood-opacity="0" result="BackgroundImageFix"/>
<feColorMatrix in="SourceAlpha" type="matrix" values="0 0 0 0 0 0 0 0 0 0 0 0 0 0 0 0 0 0 127 0" result="hardAlpha"/>
<feOffset dx="1" dy="1"/>
<feGaussianBlur stdDeviation="1.5"/>
<feComposite in2="hardAlpha" operator="out"/>
<feColorMatrix type="matrix" values="0 0 0 0 0 0 0 0 0 0 0 0 0 0 0 0 0 0 0.25 0"/>
<feBlend mode="normal" in2="BackgroundImageFix" result="effect1_dropShadow_1625_19077"/>
<feBlend mode="normal" in="SourceGraphic" in2="effect1_dropShadow_1625_19077" result="shape"/>
</filter>
</defs>
</svg>
