<svg xmlns="http://www.w3.org/2000/svg" width="24" height="24" viewBox="0 0 24 24" fill="none">
<path fill-rule="evenodd" clip-rule="evenodd" d="M15.4341 16.8502C15.8246 17.2408 16.4578 17.2408 16.8483 16.8502C17.2388 16.4597 17.2388 15.8266 16.8483 15.436L12.4125 11.0003L16.8483 6.56453C17.2388 6.174 17.2388 5.54084 16.8483 5.15032C16.4578 4.75979 15.8246 4.75979 15.4341 5.15032L10.9983 9.58607L6.56258 5.15032C6.17205 4.75979 5.53889 4.75979 5.14836 5.15031C4.75784 5.54084 4.75784 6.174 5.14836 6.56453L9.58411 11.0003L5.14836 15.436C4.75784 15.8266 4.75784 16.4597 5.14836 16.8502C5.53889 17.2408 6.17205 17.2408 6.56258 16.8502L10.9983 12.4145L15.4341 16.8502Z" fill="#A0F400"/>
</svg>
