<svg xmlns="http://www.w3.org/2000/svg" width="24" height="24" viewBox="0 0 24 24" fill="none">
<path fill-rule="evenodd" clip-rule="evenodd" d="M9.59259 3.56198C10.7921 1.94874 13.2079 1.94874 14.4074 3.56198L15.5369 5.08096C15.7014 5.30221 15.95 5.44572 16.2238 5.47757L18.104 5.69622C20.1009 5.92844 21.3088 8.02053 20.5114 9.86599L19.7607 11.6036C19.6514 11.8567 19.6514 12.1437 19.7607 12.3968L20.5114 14.1345C21.3088 15.9799 20.1009 18.072 18.104 18.3042L16.2238 18.5229C15.95 18.5547 15.7014 18.6982 15.5369 18.9195L14.4074 20.4385C13.2079 22.0517 10.7921 22.0517 9.59259 20.4385L8.46313 18.9195C8.29862 18.6982 8.05005 18.5547 7.77618 18.5229L5.89598 18.3042C3.8991 18.072 2.69123 15.9799 3.48856 14.1345L4.2393 12.3968C4.34866 12.1437 4.34866 11.8567 4.2393 11.6036L3.48856 9.86599C2.69123 8.02053 3.8991 5.92844 5.89598 5.69622L7.77618 5.47757C8.05005 5.44572 8.29862 5.30221 8.46313 5.08096L9.59259 3.56198ZM12.8025 4.75536C12.4026 4.21761 11.5974 4.21761 11.1975 4.75536L10.0681 6.27433C9.57453 6.9381 8.82882 7.36864 8.0072 7.46418L6.127 7.68283C5.46138 7.76024 5.05875 8.4576 5.32453 9.07275L6.07527 10.8104C6.40334 11.5697 6.40334 12.4308 6.07527 13.1901L5.32453 14.9277C5.05875 15.5429 5.46138 16.2402 6.127 16.3176L8.0072 16.5363C8.82882 16.6318 9.57453 17.0624 10.0681 17.7261L11.1975 19.2451C11.5974 19.7828 12.4026 19.7828 12.8025 19.2451L13.9319 17.7261C14.4255 17.0624 15.1712 16.6318 15.9928 16.5363L17.873 16.3176C18.5386 16.2402 18.9413 15.5429 18.6755 14.9277L17.9247 13.1901C17.5967 12.4308 17.5967 11.5697 17.9247 10.8104L18.6755 9.07275C18.9413 8.4576 18.5386 7.76024 17.873 7.68283L15.9928 7.46418C15.1712 7.36864 14.4255 6.9381 13.9319 6.27433L12.8025 4.75536Z" fill="white"/>
<path fill-rule="evenodd" clip-rule="evenodd" d="M12 13C12.5523 13 13 12.5523 13 12C13 11.4477 12.5523 11 12 11C11.4477 11 11 11.4477 11 12C11 12.5523 11.4477 13 12 13ZM12 15C13.6569 15 15 13.6569 15 12C15 10.3431 13.6569 9 12 9C10.3431 9 9 10.3431 9 12C9 13.6569 10.3431 15 12 15Z" fill="white"/>
</svg>