<svg width="17" height="18" viewBox="0 0 17 18" fill="none" xmlns="http://www.w3.org/2000/svg">
<rect width="17" height="18" fill="black"/>
<path d="M-523 -651C-523 -652.104 -522.105 -653 -521 -653H9333C9334.1 -653 9335 -652.105 9335 -651V5601C9335 5602.1 9334.1 5603 9333 5603H-521C-522.104 5603 -523 5602.1 -523 5601V-651Z" fill="#FFC4C4"/>
<path d="M-521 -652H9333V-654H-521V-652ZM9334 -651V5601H9336V-651H9334ZM9333 5602H-521V5604H9333V5602ZM-522 5601V-651H-524V5601H-522ZM-521 5602C-521.552 5602 -522 5601.55 -522 5601H-524C-524 5602.66 -522.657 5604 -521 5604V5602ZM9334 5601C9334 5601.55 9333.55 5602 9333 5602V5604C9334.66 5604 9336 5602.66 9336 5601H9334ZM9333 -652C9333.55 -652 9334 -651.552 9334 -651H9336C9336 -652.657 9334.66 -654 9333 -654V-652ZM-521 -654C-522.657 -654 -524 -652.657 -524 -651H-522C-522 -651.552 -521.552 -652 -521 -652V-654Z" fill="white" fill-opacity="0.1"/>
<rect width="375" height="1251" transform="translate(-343 -61)" fill="#111111"/>
<g opacity="0.9">
<path d="M6.74929 14.8969L7.21684 15.9484C7.35583 16.2615 7.58266 16.5274 7.86982 16.7141C8.15698 16.9007 8.49213 17.0001 8.83462 17C9.17711 17.0001 9.51226 16.9007 9.79942 16.7141C10.0866 16.5274 10.3134 16.2615 10.4524 15.9484L10.92 14.8969C11.0864 14.5238 11.3664 14.2127 11.72 14.008C12.0758 13.8027 12.4874 13.7153 12.896 13.7582L14.04 13.88C14.3805 13.916 14.7242 13.8525 15.0293 13.6971C15.3344 13.5417 15.5879 13.3011 15.7591 13.0044C15.9304 12.708 16.012 12.3682 15.994 12.0263C15.9761 11.6844 15.8592 11.355 15.6577 11.0782L14.9804 10.1476C14.7392 9.8137 14.6103 9.41185 14.6124 9C14.6123 8.58927 14.7424 8.18908 14.984 7.85689L15.6613 6.92622C15.8628 6.6494 15.9796 6.32006 15.9976 5.97814C16.0156 5.63622 15.934 5.29643 15.7626 5C15.5915 4.70339 15.338 4.46279 15.0329 4.30738C14.7277 4.15197 14.384 4.08842 14.0435 4.12444L12.8995 4.24622C12.491 4.28913 12.0793 4.2017 11.7235 3.99644C11.3692 3.7906 11.0892 3.47789 10.9235 3.10311L10.4524 2.05156C10.3134 1.73854 10.0866 1.47257 9.79942 1.28592C9.51226 1.09927 9.17711 0.999944 8.83462 1C8.49213 0.999944 8.15698 1.09927 7.86982 1.28592C7.58266 1.47257 7.35583 1.73854 7.21684 2.05156L6.74929 3.10311C6.58363 3.47789 6.30358 3.7906 5.94929 3.99644C5.59346 4.2017 5.18182 4.28913 4.77329 4.24622L3.62573 4.12444C3.28519 4.08842 2.94152 4.15197 2.63638 4.30738C2.33124 4.46279 2.07774 4.70339 1.90662 5C1.73528 5.29643 1.65365 5.63622 1.67163 5.97814C1.68962 6.32006 1.80645 6.6494 2.00795 6.92622L2.68529 7.85689C2.92684 8.18908 3.05692 8.58927 3.05684 9C3.05692 9.41073 2.92684 9.81092 2.68529 10.1431L2.00795 11.0738C1.80645 11.3506 1.68962 11.6799 1.67163 12.0219C1.65365 12.3638 1.73528 12.7036 1.90662 13C2.07791 13.2965 2.33144 13.5369 2.63654 13.6923C2.94163 13.8477 3.28522 13.9113 3.62573 13.8756L4.76973 13.7538C5.17827 13.7109 5.5899 13.7983 5.94573 14.0036C6.30135 14.2088 6.5827 14.5216 6.74929 14.8969Z" stroke="white" stroke-width="2" stroke-linecap="round" stroke-linejoin="round"/>
<path d="M8.83319 11.4C10.1587 11.4 11.2332 10.3255 11.2332 9C11.2332 7.67452 10.1587 6.6 8.83319 6.6C7.50771 6.6 6.43319 7.67452 6.43319 9C6.43319 10.3255 7.50771 11.4 8.83319 11.4Z" stroke="white" stroke-width="2" stroke-linecap="round" stroke-linejoin="round"/>
</g>
</svg>
