<svg xmlns="http://www.w3.org/2000/svg" width="16" height="16" viewBox="0 0 16 16" fill="none">
  <path d="M11.2041 3.50593C11.4643 3.95101 11.9472 4.25 12.5 4.25C13.3284 4.25 14 3.57843 14 2.75C14 1.92157 13.3284 1.25 12.5 1.25C11.6716 1.25 11 1.92157 11 2.75C11 3.02567 11.0744 3.28396 11.2041 3.50593ZM11.2041 3.50593L4.79588 7.24407M4.79588 7.24407C4.53569 6.79899 4.05276 6.5 3.5 6.5C2.67157 6.5 2 7.17157 2 8C2 8.82843 2.67157 9.5 3.5 9.5C4.05276 9.5 4.53569 9.20101 4.79588 8.75593M4.79588 7.24407C4.92564 7.46604 5 7.72433 5 8C5 8.27567 4.92564 8.53396 4.79588 8.75593M4.79588 8.75593L11.2041 12.4941M11.2041 12.4941C11.4643 12.049 11.9472 11.75 12.5 11.75C13.3284 11.75 14 12.4216 14 13.25C14 14.0784 13.3284 14.75 12.5 14.75C11.6716 14.75 11 14.0784 11 13.25C11 12.9743 11.0744 12.716 11.2041 12.4941Z" stroke="#878E95" stroke-linecap="round" stroke-linejoin="round"/>
</svg>