<svg width="18" height="18" viewBox="0 0 18 18" fill="none" xmlns="http://www.w3.org/2000/svg">
<g clip-path="url(#clip0_969_26593)">
<path d="M13.9706 9.86854L9.53871 14.4439C9.244 14.7481 8.756 14.7481 8.46129 14.4439L4.02944 9.86854C2.65685 8.45153 2.65685 6.1541 4.02944 4.73709C5.40202 3.32008 7.59412 3.23412 9 5.77406C10.4059 3.23412 12.598 3.32008 13.9706 4.73709C15.3431 6.1541 15.3431 8.45153 13.9706 9.86854Z" fill="white"/>
<path fill-rule="evenodd" clip-rule="evenodd" d="M9.00028 4.61025C8.25858 3.65116 7.35734 3.11984 6.40706 2.99763C5.2473 2.84847 4.13025 3.32447 3.29923 4.15548C1.6151 5.83962 1.6151 8.57015 3.29923 10.2543L8.07221 15.0273C8.58477 15.5398 9.4158 15.5398 9.92836 15.0273L14.7013 10.2543C16.3855 8.57015 16.3855 5.83962 14.7013 4.15548C13.8703 3.32447 12.7533 2.84847 11.5935 2.99763C10.6432 3.11984 9.74199 3.65116 9.00028 4.61025ZM6.26356 4.11344C5.51278 4.01688 4.72818 4.31753 4.09473 4.95098C2.84993 6.19578 2.84993 8.21399 4.09473 9.45879L8.8677 14.2318C8.94092 14.305 9.05964 14.305 9.13287 14.2318L13.9058 9.45879C15.1506 8.21399 15.1506 6.19578 13.9058 4.95098C13.2724 4.31753 12.4878 4.01688 11.737 4.11344C10.9969 4.20863 10.1735 4.7056 9.48867 5.90401L9.00028 6.75869L8.5119 5.90401C7.82709 4.7056 7.00369 4.20863 6.26356 4.11344Z" fill="#AEB5BC"/>
</g>
<defs>
<clipPath id="clip0_969_26593">
<rect width="18" height="18" fill="white"/>
</clipPath>
</defs>
</svg>
