<svg xmlns="http://www.w3.org/2000/svg" width="46" height="46" viewBox="0 0 46 46" fill="none">
<g clip-path="url(#clip0_1221_24177)">
<path d="M46 0H0V46H46V0Z" fill="#A8FF00"/>
<path d="M11.5885 15.8945C8.54513 16.1306 5.81479 18.4914 5.0347 21.8684C4.2546 25.2454 5.67622 28.566 8.30905 30.1108L11.5885 15.8997V15.8945Z" fill="black"/>
<path d="M33.3389 30.1054C36.3823 29.8693 39.1126 27.5085 39.8927 24.1315C40.6728 20.7545 39.2512 17.434 36.6183 15.8892L33.3389 30.1003V30.1054Z" fill="black"/>
<path d="M17.5007 23.9675C18.0223 23.9675 18.4451 23.1839 18.4451 22.2174C18.4451 21.2508 18.0223 20.4673 17.5007 20.4673C16.9792 20.4673 16.5564 21.2508 16.5564 22.2174C16.5564 23.1839 16.9792 23.9675 17.5007 23.9675Z" fill="black"/>
<path d="M27.4265 23.9675C27.948 23.9675 28.3708 23.1839 28.3708 22.2174C28.3708 21.2508 27.948 20.4673 27.4265 20.4673C26.905 20.4673 26.4822 21.2508 26.4822 22.2174C26.4822 23.1839 26.905 23.9675 27.4265 23.9675Z" fill="black"/>
<path d="M17.5007 25.856C18.0755 27.6984 19.9231 29.0482 22.1146 29.0482C24.306 29.0482 26.1485 27.6984 26.7284 25.856H17.5059H17.5007Z" fill="black"/>
</g>
<defs>
<clipPath id="clip0_1221_24177">
<rect width="46" height="46" fill="white"/>
</clipPath>
</defs>
</svg>