<svg xmlns="http://www.w3.org/2000/svg" width="102" height="102" viewBox="0 0 102 102" fill="none">
  <g clip-path="url(#clip0_1221_24894)">
    <path d="M101.584 25.8884L25.8887 0L0.000252724 75.6954L75.6956 101.584L101.584 25.8884Z" fill="#A8FF00"/>
    <path d="M36.0129 32.6771C30.8719 31.3527 25.0504 33.701 21.8662 38.819C18.6819 43.937 19.1525 50.2012 22.6156 54.2249L36.01 32.6855L36.0129 32.6771Z" fill="black"/>
    <path d="M63.8059 68.3032C68.9468 69.6275 74.7684 67.2793 77.9526 62.1613C81.1368 57.0433 80.6663 50.7791 77.2032 46.7553L63.8088 68.2948L63.8059 68.3032Z" fill="black"/>
    <path d="M41.1983 49.2887C42.0565 49.5822 43.1932 48.5308 43.7372 46.9403C44.2812 45.3498 44.0264 43.8225 43.1682 43.529C42.31 43.2355 41.1733 44.2869 40.6293 45.8774C40.0854 47.4679 40.3401 48.9952 41.1983 49.2887Z" fill="black"/>
    <path d="M57.5313 54.8752C58.3896 55.1687 59.5262 54.1173 60.0702 52.5268C60.6142 50.9363 60.3594 49.409 59.5012 49.1154C58.643 48.8219 57.5063 49.8733 56.9623 51.4638C56.4184 53.0543 56.6731 54.5816 57.5313 54.8752Z" fill="black"/>
    <path d="M40.1357 52.397C40.0447 55.7523 42.3254 59.0133 45.9315 60.2466C49.5377 61.4799 53.3292 60.2957 55.3204 57.5903L40.1442 52.3999L40.1357 52.397Z" fill="black"/>
  </g>
  <defs>
    <clipPath id="clip0_1221_24894">
      <rect width="80" height="80" fill="white" transform="translate(25.8887) rotate(18.8811)"/>
    </clipPath>
  </defs>
</svg>