<svg xmlns="http://www.w3.org/2000/svg" width="13" height="13" viewBox="0 0 13 13" fill="none">
  <path d="M4 11.5V6M1.5 7V10.5C1.5 11.0523 1.94772 11.5 2.5 11.5H9.21312C9.95348 11.5 10.5831 10.9598 10.6957 10.2281L11.2341 6.72809C11.3739 5.81945 10.6709 5 9.75158 5H8C7.72386 5 7.5 4.77614 7.5 4.5V2.73292C7.5 2.052 6.948 1.5 6.26708 1.5C6.10467 1.5 5.95749 1.59565 5.89153 1.74406L4.13197 5.70307C4.05172 5.88363 3.87266 6 3.67506 6H2.5C1.94772 6 1.5 6.44772 1.5 7Z" stroke="#AEB5BC" stroke-linecap="round" stroke-linejoin="round"/>
</svg>