<svg xmlns="http://www.w3.org/2000/svg" width="14" height="15" viewBox="0 0 14 15" fill="none">
  <path d="M11.6673 12.75C11.6673 11.9359 11.6673 11.5289 11.5668 11.1977C11.3406 10.4519 10.7571 9.86835 10.0113 9.64214C9.6801 9.54166 9.27306 9.54166 8.45898 9.54166H5.54232C4.72824 9.54166 4.3212 9.54166 3.98998 9.64214C3.24425 9.86835 2.66067 10.4519 2.43446 11.1977C2.33398 11.5289 2.33398 11.9359 2.33398 12.75M9.62565 4.875C9.62565 6.32475 8.4504 7.5 7.00065 7.5C5.5509 7.5 4.37565 6.32475 4.37565 4.875C4.37565 3.42525 5.5509 2.25 7.00065 2.25C8.4504 2.25 9.62565 3.42525 9.62565 4.875Z" stroke="#ADADAD" stroke-linecap="round" stroke-linejoin="round"/>
</svg>