<svg xmlns="http://www.w3.org/2000/svg" width="25" height="25" viewBox="0 0 25 25" fill="none">
  <path fill-rule="evenodd" clip-rule="evenodd" d="M6.32345 4.75001C6.34039 4.75002 6.35758 4.75003 6.37503 4.75003L19.5 4.75002C19.6326 4.75002 19.7598 4.8027 19.8536 4.89647C19.9473 4.99023 20 5.11741 20 5.25002V8.99747C20 9.27328 19.7767 9.497 19.5009 9.49747L18.5 9.49918V15.1717C18.5 15.7834 18.5 16.2729 18.4677 16.6685C18.4345 17.0747 18.3648 17.4256 18.2003 17.7485C17.9366 18.2659 17.5159 18.6866 16.9985 18.9503C16.6756 19.1148 16.3247 19.1845 15.9185 19.2177C15.5229 19.25 15.0334 19.25 14.4217 19.25H14.4V18.75V18.25C15.0383 18.25 15.487 18.2496 15.8371 18.221C16.1814 18.1929 16.3861 18.14 16.5445 18.0593C16.8738 17.8915 17.1415 17.6238 17.3093 17.2945C17.39 17.1361 17.4429 16.9314 17.471 16.5871C17.4996 16.237 17.5 15.7883 17.5 15.15V9.50003H6.50003V15.1661C6.50003 15.4112 6.50037 15.5076 6.50735 15.5986C6.54799 16.1284 6.75636 16.6314 7.10222 17.0348C7.16165 17.1041 7.22981 17.1727 7.40358 17.3465C7.57735 17.5202 7.64599 17.5884 7.7153 17.6478C8.11864 17.9937 8.62168 18.2021 9.15144 18.2427C9.24248 18.2497 9.33907 18.25 9.58452 18.25H14.4V18.75V19.25H9.56362C9.34564 19.25 9.20882 19.25 9.07495 19.2398C8.33328 19.1829 7.62902 18.8912 7.06435 18.407C6.96242 18.3196 6.86557 18.2227 6.71125 18.0684L6.68171 18.0388C6.52737 17.8845 6.43051 17.7876 6.3431 17.6857C5.85889 17.121 5.56718 16.4168 5.51028 15.6751C5.50001 15.5412 5.50002 15.4046 5.50003 15.1869L5.50003 9.43654C4.75964 9.24557 4.18891 8.6466 4.03846 7.89021C3.9998 7.69588 3.99989 7.47477 4.00001 7.17661C4.00002 7.15967 4.00003 7.14248 4.00003 7.12503C4.00003 7.10758 4.00002 7.09039 4.00001 7.07345C3.99989 6.77529 3.9998 6.55418 4.03846 6.35985C4.19627 5.56647 4.81647 4.94627 5.60985 4.78846C5.80418 4.7498 6.02529 4.74989 6.32345 4.75001ZM6.05072 8.50003C6.03826 8.49877 6.02565 8.49797 6.01293 8.49764C5.90015 8.49473 5.84387 8.48856 5.80494 8.48081C5.40825 8.40191 5.09815 8.09181 5.01924 7.69512C5.00245 7.61069 5.00003 7.49748 5.00003 7.12503C5.00003 6.75257 5.00245 6.63936 5.01924 6.55494C5.09815 6.15825 5.40825 5.84815 5.80494 5.76924C5.88936 5.75245 6.00257 5.75003 6.37503 5.75003L19 5.75002V8.49832L18 8.50003H6.05072Z" fill="black"/>
  <path fill-rule="evenodd" clip-rule="evenodd" d="M16.3432 11.7145C16.544 11.9041 16.5532 12.2205 16.3636 12.4214L12.3636 16.6586C12.1812 16.8519 11.8795 16.8687 11.6767 16.6969L9.67675 15.0019C9.46608 14.8234 9.44003 14.5079 9.61856 14.2972C9.79709 14.0866 10.1126 14.0605 10.3233 14.2391L11.9617 15.6276L15.6364 11.7349C15.826 11.5341 16.1424 11.525 16.3432 11.7145Z" fill="black"/>
</svg>